<svg width="410" height="87" viewBox="0 0 410 87" fill="none" xmlns="http://www.w3.org/2000/svg">
<path fill-rule="evenodd" clip-rule="evenodd" d="M66.3412 2.53342V16.4672H41.8602V86.0788H24.481V16.4672H0V2.53342H66.3412ZM99.4087 86.0788C97.9075 86.0788 96.7624 85.8676 95.9733 85.4454C95.1842 85.0232 94.5395 84.1403 94.0391 82.7968L92.7688 79.0543C91.2676 80.3594 89.8146 81.5013 88.4096 82.4801C87.0046 83.459 85.5419 84.2842 84.0215 84.956C82.501 85.6277 80.8844 86.1363 79.1715 86.4818C77.4586 86.8273 75.5629 87 73.4843 87C70.8668 87 68.4803 86.6545 66.3247 85.9636C64.1692 85.2727 62.3119 84.2459 60.753 82.8832C59.194 81.5205 57.9912 79.822 57.1443 77.7876C56.2975 75.7531 55.8741 73.4117 55.8741 70.7631C55.8741 68.5751 56.4322 66.3968 57.5485 64.228C58.6648 62.0592 60.5798 60.0824 63.2935 58.2975C66.0072 56.5126 69.6254 55.0252 74.1483 53.8352C78.6711 52.6453 84.339 51.9735 91.1522 51.82V48.7684C91.1522 45.045 90.3631 42.3101 88.7849 40.5635C87.2067 38.817 84.9357 37.9437 81.9718 37.9437C79.7777 37.9437 77.9494 38.2028 76.4867 38.721C75.0239 39.2392 73.7441 39.7958 72.6471 40.3908C71.55 40.9858 70.5204 41.5424 69.5581 42.0606C68.5958 42.5788 67.4795 42.8379 66.2093 42.8379C65.093 42.8379 64.1596 42.5596 63.4089 42.003C62.6583 41.4464 62.0329 40.7843 61.5325 40.0165L58.7033 34.9497C62.2061 31.8021 66.0745 29.451 70.3087 27.8964C74.5428 26.3418 79.1233 25.5645 84.0504 25.5645C87.5917 25.5645 90.7576 26.1403 93.5483 27.2919C96.339 28.4434 98.7062 30.046 100.65 32.0996C102.594 34.1532 104.086 36.6003 105.125 39.4408C106.164 42.2813 106.684 45.3905 106.684 48.7684V86.0788H99.4087ZM181.061 26.9464L181.292 0.233925H196.131V27.0616H238.395V86.0788H222.517V38.1165H196.131V69.0933C196.131 70.7439 196.525 72.049 197.314 73.0086C198.103 73.9682 199.229 74.4481 200.692 74.4481C201.462 74.4481 202.116 74.3617 202.655 74.189C203.194 74.0162 203.656 73.8243 204.041 73.6132C204.426 73.4021 204.782 73.2101 205.109 73.0374C205.436 72.8647 205.773 72.7783 206.119 72.7783C206.581 72.7783 206.966 72.8839 207.274 73.095C207.582 73.3061 207.89 73.6612 208.198 74.1602L212.99 81.7604C210.796 83.4878 208.313 84.7929 205.542 85.6757C202.77 86.5586 199.903 87 196.939 87C194.244 87 191.858 86.6066 189.779 85.8197C187.701 85.0328 185.949 83.91 184.525 82.4514C183.101 80.9927 182.023 79.227 181.292 77.1542C180.561 75.0814 180.195 72.7399 180.195 70.1297V38.1165H164.038L155.86 48.3653C154.513 50.1694 152.954 51.5897 151.183 52.6261C152.069 53.2402 152.839 53.9504 153.493 54.7565C154.147 55.5625 154.782 56.4646 155.398 57.4626L173.817 86.0788H159.498C158.266 86.0788 157.207 85.8772 156.322 85.4742C155.437 85.0711 154.705 84.3514 154.128 83.315L140.733 61.4931C140.194 60.5718 139.636 59.9768 139.058 59.7081C138.481 59.4394 137.615 59.3051 136.46 59.3051H133.111V86.0788H117.176V0.230311H133.111V48.9411H135.767C136.768 48.9411 137.557 48.7972 138.135 48.5093C138.712 48.2214 139.289 47.6936 139.867 46.9259L153.031 29.6525C153.685 28.7697 154.426 28.098 155.254 27.6373C156.082 27.1767 157.13 26.9464 158.401 26.9464H181.061ZM76.6454 76.2905C79.2629 76.2905 81.5532 75.8203 83.5163 74.8799C85.4794 73.9394 87.4232 72.4904 89.3479 70.5328V61.3203C85.4601 61.4739 82.2268 61.8001 79.6478 62.2991C77.0688 62.7981 75.0191 63.4219 73.4987 64.1704C71.9783 64.9189 70.9005 65.7826 70.2654 66.7614C69.6302 67.7402 69.3127 68.8054 69.3127 69.957C69.3127 72.2601 69.9574 73.8915 71.2469 74.8511C72.5364 75.8107 74.3359 76.2905 76.6454 76.2905ZM240.878 9.73064C240.878 11.0357 240.608 12.2737 240.069 13.4444C239.53 14.6152 238.809 15.6324 237.904 16.496C237 17.3597 235.941 18.0506 234.729 18.5688C233.516 19.087 232.217 19.3461 230.831 19.3461C229.523 19.3461 228.281 19.087 227.107 18.5688C225.933 18.0506 224.903 17.3597 224.018 16.496C223.133 15.6324 222.43 14.6152 221.911 13.4444C221.391 12.2737 221.131 11.0357 221.131 9.73064C221.131 8.38715 221.391 7.13005 221.911 5.9593C222.43 4.78854 223.133 3.76175 224.018 2.87889C224.903 1.99602 225.933 1.2955 227.107 0.7773C228.281 0.259097 229.523 0 230.831 0C232.217 0 233.516 0.259097 234.729 0.7773C235.941 1.2955 237 1.99602 237.904 2.87889C238.809 3.76175 239.53 4.78854 240.069 5.9593C240.608 7.13005 240.878 8.38715 240.878 9.73064ZM265.977 0.233925V48.9411H268.633C269.634 48.9411 270.423 48.7972 271.001 48.5093C271.578 48.2214 272.155 47.6936 272.733 46.9259L285.897 29.4222C286.551 28.5394 287.292 27.8676 288.12 27.407C288.948 26.9464 289.996 26.7161 291.267 26.7161H305.817L288.726 48.3653C287.379 50.1694 285.82 51.5897 284.049 52.6261C284.935 53.2402 285.705 53.9504 286.359 54.7565C287.013 55.5625 287.648 56.4646 288.264 57.4626L306.683 86.0788H292.364C291.132 86.0788 290.073 85.8772 289.188 85.4742C288.303 85.0711 287.571 84.3514 286.994 83.315L273.599 61.4931C273.06 60.5718 272.502 59.9768 271.924 59.7081C271.347 59.4394 270.481 59.3051 269.326 59.3051H265.977V86.0788H250.042V0.233925H265.977ZM350.432 86.0788C348.931 86.0788 347.786 85.8676 346.996 85.4454C346.207 85.0232 345.563 84.1403 345.062 82.7968L343.792 79.0543C342.291 80.3594 340.838 81.5013 339.433 82.4801C338.028 83.459 336.565 84.2842 335.045 84.956C333.524 85.6277 331.908 86.1363 330.195 86.4818C328.482 86.8273 326.586 87 324.507 87C321.89 87 319.503 86.6545 317.348 85.9636C315.192 85.2727 313.335 84.2459 311.776 82.8832C310.217 81.5205 309.014 79.822 308.167 77.7876C307.321 75.7531 306.897 73.4117 306.897 70.7631C306.897 68.5751 307.455 66.3968 308.572 64.228C309.688 62.0592 311.603 60.0824 314.317 58.2975C317.03 56.5126 320.649 55.0252 325.171 53.8352C329.694 52.6453 335.362 51.9735 342.175 51.82V48.7684C342.175 45.045 341.386 42.3101 339.808 40.5635C338.23 38.817 335.959 37.9437 332.995 37.9437C330.801 37.9437 328.972 38.2028 327.51 38.721C326.047 39.2392 324.767 39.7958 323.67 40.3908C322.573 40.9858 321.544 41.5424 320.581 42.0606C319.619 42.5788 318.503 42.8379 317.232 42.8379C316.116 42.8379 315.183 42.5596 314.432 42.003C313.681 41.4464 313.056 40.7843 312.556 40.0165L309.726 34.9497C313.229 31.8021 317.098 29.451 321.332 27.8964C325.566 26.3418 330.146 25.5645 335.073 25.5645C338.615 25.5645 341.781 26.1403 344.571 27.2919C347.362 28.4434 349.729 30.046 351.673 32.0996C353.617 34.1532 355.109 36.6003 356.148 39.4408C357.187 42.2813 357.707 45.3905 357.707 48.7684V86.0788H350.432ZM329.473 76.2905C332.09 76.2905 334.381 75.8203 336.344 74.8799C338.307 73.9394 340.251 72.4904 342.175 70.5328V61.3203C338.288 61.4739 335.054 61.8001 332.475 62.2991C329.896 62.7981 327.847 63.4219 326.326 64.1704C324.806 64.9189 323.728 65.7826 323.093 66.7614C322.458 67.7402 322.14 68.8054 322.14 69.957C322.14 72.2601 322.785 73.8915 324.074 74.8511C325.364 75.8107 327.163 76.2905 329.473 76.2905ZM384.25 0.230311V86.0788H368.314V0.230311H384.25Z" fill="white"/>
<path fill-rule="evenodd" clip-rule="evenodd" d="M391.499 77.839C391.499 76.589 391.731 75.4053 392.194 74.2878C392.657 73.1704 393.297 72.2045 394.112 71.3901C394.928 70.5757 395.882 69.9318 396.975 69.4583C398.069 68.9848 399.264 68.748 400.562 68.748C401.822 68.748 403.008 68.9848 404.12 69.4583C405.232 69.9318 406.195 70.5757 407.011 71.3901C407.826 72.2045 408.466 73.1704 408.929 74.2878C409.392 75.4053 409.624 76.589 409.624 77.839C409.624 79.1268 409.392 80.32 408.929 81.4185C408.466 82.517 407.826 83.4734 407.011 84.2878C406.195 85.1022 405.232 85.7367 404.12 86.1912C403.008 86.6458 401.822 86.873 400.562 86.873C399.264 86.873 398.069 86.6458 396.975 86.1912C395.882 85.7367 394.928 85.1022 394.112 84.2878C393.297 83.4734 392.657 82.517 392.194 81.4185C391.731 80.32 391.499 79.1268 391.499 77.839Z" fill="#12E8A8"/>
</svg>
