<svg width="132" height="28" viewBox="0 0 132 28" fill="none" xmlns="http://www.w3.org/2000/svg">
<path fill-rule="evenodd" clip-rule="evenodd" d="M21.3783 0.815354V5.2998H13.4893V27.7035H7.88893V5.2998H0V0.815354H21.3783ZM32.0341 27.7035C31.5504 27.7035 31.1814 27.6356 30.9271 27.4997C30.6728 27.3638 30.465 27.0796 30.3038 26.6473L29.8945 25.4428C29.4107 25.8628 28.9425 26.2303 28.4897 26.5453C28.037 26.8604 27.5656 27.126 27.0757 27.3422C26.5857 27.5584 26.0647 27.722 25.5128 27.8332C24.9608 27.9444 24.3499 28 23.6801 28C22.8366 28 22.0676 27.8888 21.3729 27.6664C20.6783 27.4441 20.0798 27.1136 19.5775 26.6751C19.0751 26.2365 18.6875 25.6898 18.4146 25.0351C18.1417 24.3803 18.0053 23.6267 18.0053 22.7743C18.0053 22.0701 18.1851 21.3691 18.5448 20.6711C18.9045 19.9731 19.5216 19.3369 20.3961 18.7624C21.2706 18.188 22.4366 17.7092 23.894 17.3263C25.3515 16.9433 27.178 16.7271 29.3735 16.6777V15.6956C29.3735 14.4972 29.1192 13.617 28.6107 13.0549C28.1021 12.4928 27.3703 12.2118 26.4151 12.2118C25.7081 12.2118 25.1189 12.2952 24.6476 12.4619C24.1762 12.6287 23.7638 12.8079 23.4103 12.9993C23.0568 13.1908 22.725 13.37 22.4149 13.5367C22.1048 13.7035 21.7451 13.7869 21.3357 13.7869C20.976 13.7869 20.6752 13.6973 20.4333 13.5182C20.1915 13.3391 19.9899 13.126 19.8286 12.8789L18.9169 11.2482C20.0457 10.2352 21.2923 9.47849 22.6567 8.97816C24.0212 8.47783 25.4972 8.22766 27.085 8.22766C28.2261 8.22766 29.2464 8.41297 30.1456 8.78359C31.0449 9.1542 31.8078 9.66997 32.4342 10.3309C33.0606 10.9918 33.5412 11.7794 33.8761 12.6936C34.211 13.6078 34.3785 14.6084 34.3785 15.6956V27.7035H32.0341ZM58.3463 8.6724L58.4207 0.0752862H63.2025V8.70946H76.822V27.7035H71.7054V12.2674H63.2025V22.2369C63.2025 22.7681 63.3296 23.1882 63.5839 23.497C63.8382 23.8059 64.201 23.9603 64.6723 23.9603C64.9204 23.9603 65.1313 23.9325 65.3049 23.8769C65.4786 23.8213 65.6274 23.7595 65.7515 23.6916C65.8755 23.6236 65.9902 23.5619 66.0957 23.5063C66.2011 23.4507 66.3097 23.4229 66.4213 23.4229C66.5701 23.4229 66.6942 23.4569 66.7934 23.5248C66.8926 23.5928 66.9919 23.707 67.0911 23.8676L68.6354 26.3137C67.9284 26.8696 67.1283 27.2897 66.2352 27.5738C65.3421 27.8579 64.418 28 63.4629 28C62.5947 28 61.8256 27.8734 61.1558 27.6201C60.486 27.3669 59.9216 27.0055 59.4627 26.5361C59.0037 26.0666 58.6564 25.4983 58.4207 24.8312C58.1851 24.1641 58.0672 23.4105 58.0672 22.5705V12.2674H52.8607L50.2255 15.5659C49.7913 16.1465 49.289 16.6036 48.7184 16.9371C49.0037 17.1348 49.2518 17.3633 49.4626 17.6228C49.6735 17.8822 49.8782 18.1725 50.0766 18.4937L56.0119 27.7035H51.3976C51.0007 27.7035 50.6596 27.6387 50.3743 27.5089C50.089 27.3792 49.8533 27.1476 49.6673 26.814L45.3507 19.7909C45.177 19.4944 44.9972 19.3029 44.8111 19.2164C44.6251 19.1299 44.346 19.0867 43.9739 19.0867H42.8947V27.7035H37.7595V0.0741231H42.8947V15.7512H43.7506C44.0731 15.7512 44.3274 15.7048 44.5134 15.6122C44.6995 15.5195 44.8856 15.3497 45.0716 15.1026L49.3138 9.54335C49.5246 9.25921 49.7634 9.04302 50.0301 8.89477C50.2968 8.74652 50.6348 8.6724 51.0441 8.6724H58.3463ZM24.6987 24.5533C25.5422 24.5533 26.2803 24.4019 26.9129 24.0993C27.5455 23.7966 28.1719 23.3302 28.7921 22.7002V19.7353C27.5393 19.7847 26.4973 19.8897 25.6663 20.0503C24.8352 20.2109 24.1747 20.4116 23.6847 20.6525C23.1948 20.8934 22.8475 21.1714 22.6428 21.4864C22.4381 21.8015 22.3358 22.1443 22.3358 22.5149C22.3358 23.2561 22.5436 23.7812 22.9591 24.09C23.3746 24.3989 23.9545 24.5533 24.6987 24.5533ZM77.6221 3.1317C77.6221 3.55173 77.5352 3.95014 77.3616 4.32694C77.1879 4.70373 76.9554 5.0311 76.6639 5.30907C76.3724 5.58703 76.0313 5.8094 75.6405 5.97617C75.2498 6.14295 74.8312 6.22634 74.3846 6.22634C73.9629 6.22634 73.5629 6.14295 73.1846 5.97617C72.8062 5.8094 72.4744 5.58703 72.1891 5.30907C71.9038 5.0311 71.6775 4.70373 71.51 4.32694C71.3426 3.95014 71.2588 3.55173 71.2588 3.1317C71.2588 2.69931 71.3426 2.29473 71.51 1.91794C71.6775 1.54114 71.9038 1.21068 72.1891 0.926539C72.4744 0.642399 72.8062 0.416943 73.1846 0.250165C73.5629 0.0833877 73.9629 0 74.3846 0C74.8312 0 75.2498 0.0833877 75.6405 0.250165C76.0313 0.416943 76.3724 0.642399 76.6639 0.926539C76.9554 1.21068 77.1879 1.54114 77.3616 1.91794C77.5352 2.29473 77.6221 2.69931 77.6221 3.1317ZM85.7104 0.0752862V15.7512H86.5662C86.8887 15.7512 87.143 15.7048 87.3291 15.6122C87.5151 15.5195 87.7012 15.3497 87.8872 15.1026L92.1294 9.46923C92.3403 9.18509 92.579 8.9689 92.8457 8.82065C93.1124 8.6724 93.4504 8.59828 93.8598 8.59828H98.5485L93.0411 15.5659C92.607 16.1465 92.1046 16.6036 91.534 16.9371C91.8193 17.1348 92.0674 17.3633 92.2783 17.6228C92.4891 17.8822 92.6938 18.1725 92.8923 18.4937L98.8276 27.7035H94.2133C93.8164 27.7035 93.4752 27.6387 93.1899 27.5089C92.9047 27.3792 92.669 27.1476 92.4829 26.814L88.1663 19.7909C87.9927 19.4944 87.8128 19.3029 87.6268 19.2164C87.4407 19.1299 87.1616 19.0867 86.7895 19.0867H85.7104V27.7035H80.5751V0.0752862H85.7104ZM112.926 27.7035C112.442 27.7035 112.073 27.6356 111.819 27.4997C111.564 27.3638 111.356 27.0796 111.195 26.6473L110.786 25.4428C110.302 25.8628 109.834 26.2303 109.381 26.5453C108.928 26.8604 108.457 27.126 107.967 27.3422C107.477 27.5584 106.956 27.722 106.404 27.8332C105.852 27.9444 105.241 28 104.571 28C103.728 28 102.959 27.8888 102.264 27.6664C101.57 27.4441 100.971 27.1136 100.469 26.6751C99.9665 26.2365 99.5789 25.6898 99.306 25.0351C99.0331 24.3803 98.8967 23.6267 98.8967 22.7743C98.8967 22.0701 99.0765 21.3691 99.4362 20.6711C99.796 19.9731 100.413 19.3369 101.288 18.7624C102.162 18.188 103.328 17.7092 104.785 17.3263C106.243 16.9433 108.069 16.7271 110.265 16.6777V15.6956C110.265 14.4972 110.011 13.617 109.502 13.0549C108.993 12.4928 108.262 12.2118 107.307 12.2118C106.6 12.2118 106.01 12.2952 105.539 12.4619C105.068 12.6287 104.655 12.8079 104.302 12.9993C103.948 13.1908 103.616 13.37 103.306 13.5367C102.996 13.7035 102.636 13.7869 102.227 13.7869C101.867 13.7869 101.567 13.6973 101.325 13.5182C101.083 13.3391 100.881 13.126 100.72 12.8789L99.8083 11.2482C100.937 10.2352 102.184 9.47849 103.548 8.97816C104.913 8.47783 106.389 8.22766 107.976 8.22766C109.118 8.22766 110.138 8.41297 111.037 8.78359C111.936 9.1542 112.699 9.66997 113.326 10.3309C113.952 10.9918 114.433 11.7794 114.768 12.6936C115.102 13.6078 115.27 14.6084 115.27 15.6956V27.7035H112.926ZM106.172 24.5533C107.015 24.5533 107.753 24.4019 108.386 24.0993C109.018 23.7966 109.645 23.3302 110.265 22.7002V19.7353C109.012 19.7847 107.97 19.8897 107.139 20.0503C106.308 20.2109 105.648 20.4116 105.158 20.6525C104.668 20.8934 104.32 21.1714 104.116 21.4864C103.911 21.8015 103.809 22.1443 103.809 22.5149C103.809 23.2561 104.016 23.7812 104.432 24.09C104.847 24.3989 105.427 24.5533 106.172 24.5533ZM123.823 0.0741231V27.7035H118.688V0.0741231H123.823Z" fill="#1B223A"/>
<path fill-rule="evenodd" clip-rule="evenodd" d="M126.159 25.0515C126.159 24.6492 126.234 24.2683 126.383 23.9086C126.533 23.549 126.739 23.2382 127.001 22.976C127.264 22.7139 127.572 22.5067 127.924 22.3543C128.277 22.2019 128.662 22.1257 129.08 22.1257C129.486 22.1257 129.868 22.2019 130.226 22.3543C130.585 22.5067 130.895 22.7139 131.158 22.976C131.421 23.2382 131.627 23.549 131.776 23.9086C131.925 24.2683 132 24.6492 132 25.0515C132 25.466 131.925 25.85 131.776 26.2036C131.627 26.5571 131.421 26.8649 131.158 27.127C130.895 27.3891 130.585 27.5933 130.226 27.7396C129.868 27.8859 129.486 27.9591 129.08 27.9591C128.662 27.9591 128.277 27.8859 127.924 27.7396C127.572 27.5933 127.264 27.3891 127.001 27.127C126.739 26.8649 126.533 26.5571 126.383 26.2036C126.234 25.85 126.159 25.466 126.159 25.0515Z" fill="#12E8A8"/>
</svg>
