<svg width="64" height="55" viewBox="0 0 66 55" fill="none" xmlns="http://www.w3.org/2000/svg">
<path d="M54.4077 8.1674C57.1646 6.52641 60.659 8.51301 60.659 11.7213V41.4392C60.659 44.821 57.6431 47.406 54.3012 46.8888L2.7572 38.9118L54.4077 8.1674Z" fill="#E5ECFF"/>
<rect x="1" y="6.13574" width="58.659" height="40.737" rx="4.51446" stroke="#2823FB" stroke-width="2"/>
<path d="M24.0534 46.1157H36.6046C36.7426 46.1157 36.8697 46.1908 36.9363 46.3116L40.7345 53.2047C40.8735 53.457 40.691 53.766 40.4029 53.766H20.2552C19.9671 53.766 19.7846 53.457 19.9236 53.2047L23.7218 46.3116C23.7884 46.1908 23.9155 46.1157 24.0534 46.1157Z" fill="white" stroke="#2823FB" stroke-width="2"/>
<path d="M57.94 2.17898L38.56 21.61L30.2901 13.3178C28.7219 11.7461 26.1795 11.7461 24.6119 13.3178C23.0438 14.8907 23.0438 17.4395 24.6119 19.0118L35.7209 30.1507C36.5047 30.9366 37.5326 31.3295 38.56 31.3295C39.5874 31.3295 40.6153 30.9366 41.3991 30.1507L63.6177 7.87295C65.1863 6.30062 65.1863 3.7513 63.6182 2.17951C62.0506 0.607187 59.5081 0.606651 57.94 2.17898Z" fill="#12E8A8" stroke="#2823FB" stroke-width="2"/>
<path d="M1 39.2224H59.659V42.3583C59.659 44.8515 57.6378 46.8727 55.1446 46.8727H5.51446C3.02119 46.8727 1 44.8515 1 42.3583V39.2224Z" fill="white" stroke="#2823FB" stroke-width="2"/>
</svg>
