<svg width="23" height="8" viewBox="0 0 23 8" fill="none" xmlns="http://www.w3.org/2000/svg">
<path fill-rule="evenodd" clip-rule="evenodd" d="M22.237 3.12439C22.2609 3.13759 22.2841 3.15173 22.3067 3.16678C22.6046 3.36322 22.7535 3.68159 22.7535 3.99996C22.7535 4.02101 22.7529 4.04206 22.7516 4.06307C22.7332 4.35993 22.5849 4.64976 22.3066 4.83321C22.2841 4.84822 22.2609 4.86234 22.237 4.87552L17.7535 7.46406C17.0869 7.84896 16.2535 7.36784 16.2535 6.59804V4.99996H1.5C0.947715 4.99996 0.5 4.55224 0.5 3.99996C0.5 3.44767 0.947715 2.99996 1.5 2.99996H16.2535V1.40188C16.2535 0.632083 17.0869 0.150957 17.7535 0.535857L22.237 3.12439Z" fill="#2823FB"/>
</svg>
