<svg width="64" height="70" viewBox="0 0 67 70" fill="none" xmlns="http://www.w3.org/2000/svg">
<mask id="path-1-inside-1_234_78" fill="white">
<path fill-rule="evenodd" clip-rule="evenodd" d="M51.2447 19.8949C51.2447 20.0488 51.2415 20.202 51.2352 20.3543C59.7379 20.8011 66.4946 27.8303 66.4946 36.4362C66.4946 44.592 60.4261 51.3318 52.5541 52.3947V52.5395H50.5698C50.5048 52.5403 50.4398 52.5407 50.3746 52.5407C50.3095 52.5407 50.2445 52.5403 50.1795 52.5395H12.9078V52.5387C12.9073 52.5387 12.9068 52.5387 12.9062 52.5387C6.16901 52.5387 0.707397 47.0824 0.707397 40.3516C0.707397 33.6208 6.16901 28.1644 12.9062 28.1644C13.6947 28.1644 14.4657 28.2391 15.2125 28.3819C15.1297 27.8139 15.0868 27.2329 15.0868 26.642C15.0868 20.0314 20.4509 14.6724 27.0678 14.6724C28.2728 14.6724 29.4363 14.8502 30.5335 15.1808C32.2918 11.5319 36.028 9.01355 40.3529 9.01355C46.3683 9.01355 51.2447 13.8853 51.2447 19.8949Z"/>
</mask>
<path fill-rule="evenodd" clip-rule="evenodd" d="M51.2447 19.8949C51.2447 20.0488 51.2415 20.202 51.2352 20.3543C59.7379 20.8011 66.4946 27.8303 66.4946 36.4362C66.4946 44.592 60.4261 51.3318 52.5541 52.3947V52.5395H50.5698C50.5048 52.5403 50.4398 52.5407 50.3746 52.5407C50.3095 52.5407 50.2445 52.5403 50.1795 52.5395H12.9078V52.5387C12.9073 52.5387 12.9068 52.5387 12.9062 52.5387C6.16901 52.5387 0.707397 47.0824 0.707397 40.3516C0.707397 33.6208 6.16901 28.1644 12.9062 28.1644C13.6947 28.1644 14.4657 28.2391 15.2125 28.3819C15.1297 27.8139 15.0868 27.2329 15.0868 26.642C15.0868 20.0314 20.4509 14.6724 27.0678 14.6724C28.2728 14.6724 29.4363 14.8502 30.5335 15.1808C32.2918 11.5319 36.028 9.01355 40.3529 9.01355C46.3683 9.01355 51.2447 13.8853 51.2447 19.8949Z" fill="white"/>
<path d="M51.2352 20.3543L49.2369 20.2712L49.1547 22.2477L51.1302 22.3515L51.2352 20.3543ZM52.5541 52.3947L52.2865 50.4127L50.5541 50.6466V52.3947H52.5541ZM52.5541 52.5395V54.5395H54.5541V52.5395H52.5541ZM50.5698 52.5395V50.5395H50.5579L50.5461 50.5396L50.5698 52.5395ZM50.1795 52.5395L50.2032 50.5396L50.1914 50.5395H50.1795V52.5395ZM12.9078 52.5395H10.9078V54.5395H12.9078V52.5395ZM12.9078 52.5387H14.9078V50.5387H12.9078V52.5387ZM15.2125 28.3819L14.8369 30.3463L17.5968 30.8739L17.1915 28.0934L15.2125 28.3819ZM30.5335 15.1808L29.9563 17.0957L31.5931 17.5891L32.3352 16.049L30.5335 15.1808ZM53.2335 20.4373C53.2409 20.2574 53.2447 20.0765 53.2447 19.8949H49.2447C49.2447 20.0211 49.2421 20.1466 49.2369 20.2712L53.2335 20.4373ZM68.4946 36.4362C68.4946 26.7593 60.8979 18.8593 51.3401 18.357L51.1302 22.3515C58.5779 22.7429 64.4946 28.9014 64.4946 36.4362H68.4946ZM52.8217 54.3767C61.671 53.1818 68.4946 45.608 68.4946 36.4362H64.4946C64.4946 43.576 59.1812 49.4817 52.2865 50.4127L52.8217 54.3767ZM50.5541 52.3947V52.5395H54.5541V52.3947H50.5541ZM52.5541 50.5395H50.5698V54.5395H52.5541V50.5395ZM50.3746 54.5407C50.4477 54.5407 50.5206 54.5402 50.5935 54.5394L50.5461 50.5396C50.489 50.5403 50.4319 50.5407 50.3746 50.5407V54.5407ZM50.1558 54.5394C50.2287 54.5402 50.3016 54.5407 50.3746 54.5407V50.5407C50.3174 50.5407 50.2603 50.5403 50.2032 50.5396L50.1558 54.5394ZM50.1795 50.5395H12.9078V54.5395H50.1795V50.5395ZM14.9078 52.5395V52.5387H10.9078V52.5395H14.9078ZM12.9062 54.5387C12.9062 54.5387 12.9062 54.5387 12.9062 54.5387C12.9063 54.5387 12.9063 54.5387 12.9063 54.5387C12.9063 54.5387 12.9063 54.5387 12.9063 54.5387C12.9063 54.5387 12.9063 54.5387 12.9063 54.5387C12.9063 54.5387 12.9063 54.5387 12.9063 54.5387C12.9063 54.5387 12.9063 54.5387 12.9063 54.5387C12.9063 54.5387 12.9063 54.5387 12.9063 54.5387C12.9063 54.5387 12.9063 54.5387 12.9063 54.5387C12.9063 54.5387 12.9063 54.5387 12.9063 54.5387C12.9063 54.5387 12.9063 54.5387 12.9063 54.5387C12.9063 54.5387 12.9063 54.5387 12.9063 54.5387C12.9063 54.5387 12.9063 54.5387 12.9063 54.5387C12.9063 54.5387 12.9063 54.5387 12.9063 54.5387C12.9063 54.5387 12.9063 54.5387 12.9063 54.5387C12.9063 54.5387 12.9063 54.5387 12.9063 54.5387C12.9063 54.5387 12.9063 54.5387 12.9063 54.5387C12.9063 54.5387 12.9063 54.5387 12.9063 54.5387C12.9063 54.5387 12.9063 54.5387 12.9063 54.5387C12.9063 54.5387 12.9063 54.5387 12.9063 54.5387C12.9063 54.5387 12.9063 54.5387 12.9063 54.5387C12.9063 54.5387 12.9063 54.5387 12.9063 54.5387C12.9063 54.5387 12.9063 54.5387 12.9063 54.5387C12.9063 54.5387 12.9063 54.5387 12.9063 54.5387C12.9063 54.5387 12.9063 54.5387 12.9063 54.5387C12.9063 54.5387 12.9063 54.5387 12.9063 54.5387C12.9063 54.5387 12.9063 54.5387 12.9063 54.5387C12.9063 54.5387 12.9063 54.5387 12.9063 54.5387C12.9063 54.5387 12.9063 54.5387 12.9063 54.5387C12.9063 54.5387 12.9063 54.5387 12.9063 54.5387C12.9063 54.5387 12.9063 54.5387 12.9063 54.5387C12.9063 54.5387 12.9063 54.5387 12.9063 54.5387C12.9063 54.5387 12.9063 54.5387 12.9063 54.5387C12.9063 54.5387 12.9063 54.5387 12.9063 54.5387C12.9064 54.5387 12.9064 54.5387 12.9064 54.5387C12.9064 54.5387 12.9064 54.5387 12.9064 54.5387C12.9064 54.5387 12.9064 54.5387 12.9064 54.5387C12.9064 54.5387 12.9064 54.5387 12.9064 54.5387C12.9064 54.5387 12.9064 54.5387 12.9064 54.5387C12.9064 54.5387 12.9064 54.5387 12.9064 54.5387C12.9064 54.5387 12.9064 54.5387 12.9064 54.5387C12.9064 54.5387 12.9064 54.5387 12.9064 54.5387C12.9064 54.5387 12.9064 54.5387 12.9064 54.5387C12.9064 54.5387 12.9064 54.5387 12.9064 54.5387C12.9064 54.5387 12.9064 54.5387 12.9064 54.5387C12.9064 54.5387 12.9064 54.5387 12.9064 54.5387C12.9064 54.5387 12.9064 54.5387 12.9064 54.5387C12.9064 54.5387 12.9064 54.5387 12.9064 54.5387C12.9064 54.5387 12.9064 54.5387 12.9064 54.5387C12.9064 54.5387 12.9064 54.5387 12.9064 54.5387C12.9064 54.5387 12.9064 54.5387 12.9064 54.5387C12.9064 54.5387 12.9064 54.5387 12.9064 54.5387C12.9064 54.5387 12.9064 54.5387 12.9064 54.5387C12.9064 54.5387 12.9064 54.5387 12.9064 54.5387C12.9064 54.5387 12.9064 54.5387 12.9064 54.5387C12.9064 54.5387 12.9064 54.5387 12.9064 54.5387C12.9064 54.5387 12.9064 54.5387 12.9064 54.5387C12.9064 54.5387 12.9064 54.5387 12.9064 54.5387C12.9064 54.5387 12.9064 54.5387 12.9064 54.5387C12.9064 54.5387 12.9064 54.5387 12.9064 54.5387C12.9064 54.5387 12.9064 54.5387 12.9064 54.5387C12.9064 54.5387 12.9064 54.5387 12.9064 54.5387C12.9064 54.5387 12.9064 54.5387 12.9064 54.5387C12.9064 54.5387 12.9064 54.5387 12.9064 54.5387C12.9064 54.5387 12.9064 54.5387 12.9064 54.5387C12.9064 54.5387 12.9064 54.5387 12.9064 54.5387C12.9064 54.5387 12.9065 54.5387 12.9065 54.5387C12.9065 54.5387 12.9065 54.5387 12.9065 54.5387C12.9065 54.5387 12.9065 54.5387 12.9065 54.5387C12.9065 54.5387 12.9065 54.5387 12.9065 54.5387C12.9065 54.5387 12.9065 54.5387 12.9065 54.5387C12.9065 54.5387 12.9065 54.5387 12.9065 54.5387C12.9065 54.5387 12.9065 54.5387 12.9065 54.5387C12.9065 54.5387 12.9065 54.5387 12.9065 54.5387C12.9065 54.5387 12.9065 54.5387 12.9065 54.5387C12.9065 54.5387 12.9065 54.5387 12.9065 54.5387C12.9065 54.5387 12.9065 54.5387 12.9065 54.5387C12.9065 54.5387 12.9065 54.5387 12.9065 54.5387C12.9065 54.5387 12.9065 54.5387 12.9065 54.5387C12.9065 54.5387 12.9065 54.5387 12.9065 54.5387C12.9065 54.5387 12.9065 54.5387 12.9065 54.5387C12.9065 54.5387 12.9065 54.5387 12.9065 54.5387C12.9065 54.5387 12.9065 54.5387 12.9065 54.5387C12.9065 54.5387 12.9065 54.5387 12.9065 54.5387C12.9065 54.5387 12.9065 54.5387 12.9065 54.5387C12.9065 54.5387 12.9065 54.5387 12.9065 54.5387C12.9065 54.5387 12.9065 54.5387 12.9065 54.5387C12.9065 54.5387 12.9065 54.5387 12.9065 54.5387C12.9065 54.5387 12.9065 54.5387 12.9065 54.5387C12.9065 54.5387 12.9065 54.5387 12.9065 54.5387C12.9065 54.5387 12.9065 54.5387 12.9065 54.5387C12.9065 54.5387 12.9065 54.5387 12.9065 54.5387C12.9065 54.5387 12.9065 54.5387 12.9065 54.5387C12.9065 54.5387 12.9065 54.5387 12.9065 54.5387C12.9065 54.5387 12.9065 54.5387 12.9065 54.5387C12.9065 54.5387 12.9065 54.5387 12.9065 54.5387C12.9065 54.5387 12.9065 54.5387 12.9065 54.5387C12.9065 54.5387 12.9065 54.5387 12.9065 54.5387C12.9065 54.5387 12.9065 54.5387 12.9066 54.5387C12.9066 54.5387 12.9066 54.5387 12.9066 54.5387C12.9066 54.5387 12.9066 54.5387 12.9066 54.5387C12.9066 54.5387 12.9066 54.5387 12.9066 54.5387C12.9066 54.5387 12.9066 54.5387 12.9066 54.5387C12.9066 54.5387 12.9066 54.5387 12.9066 54.5387C12.9066 54.5387 12.9066 54.5387 12.9066 54.5387C12.9066 54.5387 12.9066 54.5387 12.9066 54.5387C12.9066 54.5387 12.9066 54.5387 12.9066 54.5387C12.9066 54.5387 12.9066 54.5387 12.9066 54.5387C12.9066 54.5387 12.9066 54.5387 12.9066 54.5387C12.9066 54.5387 12.9066 54.5387 12.9066 54.5387C12.9066 54.5387 12.9066 54.5387 12.9066 54.5387C12.9066 54.5387 12.9066 54.5387 12.9066 54.5387C12.9066 54.5387 12.9066 54.5387 12.9066 54.5387C12.9066 54.5387 12.9066 54.5387 12.9066 54.5387C12.9066 54.5387 12.9066 54.5387 12.9066 54.5387C12.9066 54.5387 12.9066 54.5387 12.9066 54.5387C12.9066 54.5387 12.9066 54.5387 12.9066 54.5387C12.9066 54.5387 12.9066 54.5387 12.9066 54.5387C12.9066 54.5387 12.9066 54.5387 12.9066 54.5387C12.9066 54.5387 12.9066 54.5387 12.9066 54.5387C12.9066 54.5387 12.9066 54.5387 12.9066 54.5387C12.9066 54.5387 12.9066 54.5387 12.9066 54.5387C12.9066 54.5387 12.9066 54.5387 12.9066 54.5387C12.9066 54.5387 12.9066 54.5387 12.9066 54.5387C12.9066 54.5387 12.9066 54.5387 12.9066 54.5387C12.9066 54.5387 12.9066 54.5387 12.9066 54.5387C12.9066 54.5387 12.9066 54.5387 12.9066 54.5387C12.9066 54.5387 12.9066 54.5387 12.9066 54.5387C12.9066 54.5387 12.9066 54.5387 12.9066 54.5387C12.9066 54.5387 12.9066 54.5387 12.9066 54.5387C12.9066 54.5387 12.9066 54.5387 12.9066 54.5387C12.9066 54.5387 12.9067 54.5387 12.9067 54.5387C12.9067 54.5387 12.9067 54.5387 12.9067 54.5387C12.9067 54.5387 12.9067 54.5387 12.9067 54.5387C12.9067 54.5387 12.9067 54.5387 12.9067 54.5387C12.9067 54.5387 12.9067 54.5387 12.9067 54.5387C12.9067 54.5387 12.9067 54.5387 12.9067 54.5387C12.9067 54.5387 12.9067 54.5387 12.9067 54.5387C12.9067 54.5387 12.9067 54.5387 12.9067 54.5387C12.9067 54.5387 12.9067 54.5387 12.9067 54.5387C12.9067 54.5387 12.9067 54.5387 12.9067 54.5387C12.9067 54.5387 12.9067 54.5387 12.9067 54.5387C12.9067 54.5387 12.9067 54.5387 12.9067 54.5387C12.9067 54.5387 12.9067 54.5387 12.9067 54.5387C12.9067 54.5387 12.9067 54.5387 12.9067 54.5387C12.9067 54.5387 12.9067 54.5387 12.9067 54.5387C12.9067 54.5387 12.9067 54.5387 12.9067 54.5387C12.9067 54.5387 12.9067 54.5387 12.9067 54.5387C12.9067 54.5387 12.9067 54.5387 12.9067 54.5387C12.9067 54.5387 12.9067 54.5387 12.9067 54.5387C12.9067 54.5387 12.9067 54.5387 12.9067 54.5387C12.9067 54.5387 12.9067 54.5387 12.9067 54.5387C12.9067 54.5387 12.9067 54.5387 12.9067 54.5387C12.9067 54.5387 12.9067 54.5387 12.9067 54.5387C12.9067 54.5387 12.9067 54.5387 12.9067 54.5387C12.9067 54.5387 12.9067 54.5387 12.9067 54.5387C12.9067 54.5387 12.9067 54.5387 12.9067 54.5387C12.9067 54.5387 12.9067 54.5387 12.9067 54.5387C12.9067 54.5387 12.9067 54.5387 12.9067 54.5387C12.9067 54.5387 12.9067 54.5387 12.9067 54.5387C12.9067 54.5387 12.9067 54.5387 12.9067 54.5387C12.9067 54.5387 12.9067 54.5387 12.9067 54.5387C12.9067 54.5387 12.9067 54.5387 12.9067 54.5387C12.9067 54.5387 12.9067 54.5387 12.9068 54.5387C12.9068 54.5387 12.9068 54.5387 12.9068 54.5387C12.9068 54.5387 12.9068 54.5387 12.9068 54.5387C12.9068 54.5387 12.9068 54.5387 12.9068 54.5387C12.9068 54.5387 12.9068 54.5387 12.9068 54.5387C12.9068 54.5387 12.9068 54.5387 12.9068 54.5387C12.9068 54.5387 12.9068 54.5387 12.9068 54.5387C12.9068 54.5387 12.9068 54.5387 12.9068 54.5387C12.9068 54.5387 12.9068 54.5387 12.9068 54.5387C12.9068 54.5387 12.9068 54.5387 12.9068 54.5387C12.9068 54.5387 12.9068 54.5387 12.9068 54.5387C12.9068 54.5387 12.9068 54.5387 12.9068 54.5387C12.9068 54.5387 12.9068 54.5387 12.9068 54.5387C12.9068 54.5387 12.9068 54.5387 12.9068 54.5387C12.9068 54.5387 12.9068 54.5387 12.9068 54.5387C12.9068 54.5387 12.9068 54.5387 12.9068 54.5387C12.9068 54.5387 12.9068 54.5387 12.9068 54.5387C12.9068 54.5387 12.9068 54.5387 12.9068 54.5387C12.9068 54.5387 12.9068 54.5387 12.9068 54.5387C12.9068 54.5387 12.9068 54.5387 12.9068 54.5387C12.9068 54.5387 12.9068 54.5387 12.9068 54.5387C12.9068 54.5387 12.9068 54.5387 12.9068 54.5387C12.9068 54.5387 12.9068 54.5387 12.9068 54.5387C12.9068 54.5387 12.9068 54.5387 12.9068 54.5387C12.9068 54.5387 12.9068 54.5387 12.9068 54.5387C12.9068 54.5387 12.9068 54.5387 12.9068 54.5387C12.9068 54.5387 12.9068 54.5387 12.9068 54.5387C12.9068 54.5387 12.9068 54.5387 12.9068 54.5387C12.9068 54.5387 12.9068 54.5387 12.9068 54.5387C12.9068 54.5387 12.9068 54.5387 12.9068 54.5387C12.9068 54.5387 12.9068 54.5387 12.9068 54.5387C12.9068 54.5387 12.9068 54.5387 12.9068 54.5387C12.9068 54.5387 12.9068 54.5387 12.9068 54.5387C12.9069 54.5387 12.9069 54.5387 12.9069 54.5387C12.9069 54.5387 12.9069 54.5387 12.9069 54.5387C12.9069 54.5387 12.9069 54.5387 12.9069 54.5387C12.9069 54.5387 12.9069 54.5387 12.9069 54.5387C12.9069 54.5387 12.9069 54.5387 12.9069 54.5387C12.9069 54.5387 12.9069 54.5387 12.9069 54.5387C12.9069 54.5387 12.9069 54.5387 12.9069 54.5387C12.9069 54.5387 12.9069 54.5387 12.9069 54.5387C12.9069 54.5387 12.9069 54.5387 12.9069 54.5387C12.9069 54.5387 12.9069 54.5387 12.9069 54.5387C12.9069 54.5387 12.9069 54.5387 12.9069 54.5387C12.9069 54.5387 12.9069 54.5387 12.9069 54.5387C12.9069 54.5387 12.9069 54.5387 12.9069 54.5387C12.9069 54.5387 12.9069 54.5387 12.9069 54.5387C12.9069 54.5387 12.9069 54.5387 12.9069 54.5387C12.9069 54.5387 12.9069 54.5387 12.9069 54.5387C12.9069 54.5387 12.9069 54.5387 12.9069 54.5387C12.9069 54.5387 12.9069 54.5387 12.9069 54.5387C12.9069 54.5387 12.9069 54.5387 12.9069 54.5387C12.9069 54.5387 12.9069 54.5387 12.9069 54.5387C12.9069 54.5387 12.9069 54.5387 12.9069 54.5387C12.9069 54.5387 12.9069 54.5387 12.9069 54.5387C12.9069 54.5387 12.9069 54.5387 12.9069 54.5387C12.9069 54.5387 12.9069 54.5387 12.9069 54.5387C12.9069 54.5387 12.9069 54.5387 12.9069 54.5387C12.9069 54.5387 12.9069 54.5387 12.9069 54.5387C12.9069 54.5387 12.9069 54.5387 12.9069 54.5387C12.9069 54.5387 12.9069 54.5387 12.9069 54.5387C12.9069 54.5387 12.9069 54.5387 12.9069 54.5387C12.9069 54.5387 12.9069 54.5387 12.9069 54.5387C12.9069 54.5387 12.9069 54.5387 12.9069 54.5387C12.9069 54.5387 12.9069 54.5387 12.9069 54.5387C12.9069 54.5387 12.907 54.5387 12.907 54.5387C12.907 54.5387 12.907 54.5387 12.907 54.5387C12.907 54.5387 12.907 54.5387 12.907 54.5387C12.907 54.5387 12.907 54.5387 12.907 54.5387C12.907 54.5387 12.907 54.5387 12.907 54.5387C12.907 54.5387 12.907 54.5387 12.907 54.5387C12.907 54.5387 12.907 54.5387 12.907 54.5387C12.907 54.5387 12.907 54.5387 12.907 54.5387C12.907 54.5387 12.907 54.5387 12.907 54.5387C12.907 54.5387 12.907 54.5387 12.907 54.5387C12.907 54.5387 12.907 54.5387 12.907 54.5387C12.907 54.5387 12.907 54.5387 12.907 54.5387C12.907 54.5387 12.907 54.5387 12.907 54.5387C12.907 54.5387 12.907 54.5387 12.907 54.5387C12.907 54.5387 12.907 54.5387 12.907 54.5387C12.907 54.5387 12.907 54.5387 12.907 54.5387C12.907 54.5387 12.907 54.5387 12.907 54.5387C12.907 54.5387 12.907 54.5387 12.907 54.5387C12.907 54.5387 12.907 54.5387 12.907 54.5387C12.907 54.5387 12.907 54.5387 12.907 54.5387C12.907 54.5387 12.907 54.5387 12.907 54.5387C12.907 54.5387 12.907 54.5387 12.907 54.5387C12.907 54.5387 12.907 54.5387 12.907 54.5387C12.907 54.5387 12.907 54.5387 12.907 54.5387C12.907 54.5387 12.907 54.5387 12.907 54.5387C12.907 54.5387 12.907 54.5387 12.907 54.5387C12.907 54.5387 12.907 54.5387 12.907 54.5387C12.907 54.5387 12.907 54.5387 12.907 54.5387C12.907 54.5387 12.907 54.5387 12.907 54.5387C12.907 54.5387 12.907 54.5387 12.907 54.5387C12.907 54.5387 12.907 54.5387 12.907 54.5387C12.907 54.5387 12.907 54.5387 12.907 54.5387C12.907 54.5387 12.907 54.5387 12.9071 54.5387C12.9071 54.5387 12.9071 54.5387 12.9071 54.5387C12.9071 54.5387 12.9071 54.5387 12.9071 54.5387C12.9071 54.5387 12.9071 54.5387 12.9071 54.5387C12.9071 54.5387 12.9071 54.5387 12.9071 54.5387C12.9071 54.5387 12.9071 54.5387 12.9071 54.5387C12.9071 54.5387 12.9071 54.5387 12.9071 54.5387C12.9071 54.5387 12.9071 54.5387 12.9071 54.5387C12.9071 54.5387 12.9071 54.5387 12.9071 54.5387C12.9071 54.5387 12.9071 54.5387 12.9071 54.5387C12.9071 54.5387 12.9071 54.5387 12.9071 54.5387C12.9071 54.5387 12.9071 54.5387 12.9071 54.5387C12.9071 54.5387 12.9071 54.5387 12.9071 54.5387C12.9071 54.5387 12.9071 54.5387 12.9071 54.5387C12.9071 54.5387 12.9071 54.5387 12.9071 54.5387C12.9071 54.5387 12.9071 54.5387 12.9071 54.5387C12.9071 54.5387 12.9071 54.5387 12.9071 54.5387C12.9071 54.5387 12.9071 54.5387 12.9071 54.5387C12.9071 54.5387 12.9071 54.5387 12.9071 54.5387C12.9071 54.5387 12.9071 54.5387 12.9071 54.5387C12.9071 54.5387 12.9071 54.5387 12.9071 54.5387C12.9071 54.5387 12.9071 54.5387 12.9071 54.5387C12.9071 54.5387 12.9071 54.5387 12.9071 54.5387C12.9071 54.5387 12.9071 54.5387 12.9071 54.5387C12.9071 54.5387 12.9071 54.5387 12.9071 54.5387C12.9071 54.5387 12.9071 54.5387 12.9071 54.5387C12.9071 54.5387 12.9071 54.5387 12.9071 54.5387C12.9071 54.5387 12.9071 54.5387 12.9071 54.5387C12.9071 54.5387 12.9071 54.5387 12.9071 54.5387C12.9071 54.5387 12.9071 54.5387 12.9071 54.5387C12.9071 54.5387 12.9071 54.5387 12.9071 54.5387C12.9071 54.5387 12.9071 54.5387 12.9071 54.5387C12.9071 54.5387 12.9071 54.5387 12.9071 54.5387C12.9072 54.5387 12.9072 54.5387 12.9072 54.5387C12.9072 54.5387 12.9072 54.5387 12.9072 54.5387C12.9072 54.5387 12.9072 54.5387 12.9072 54.5387C12.9072 54.5387 12.9072 54.5387 12.9072 54.5387C12.9072 54.5387 12.9072 54.5387 12.9072 54.5387C12.9072 54.5387 12.9072 54.5387 12.9072 54.5387C12.9072 54.5387 12.9072 54.5387 12.9072 54.5387C12.9072 54.5387 12.9072 54.5387 12.9072 54.5387C12.9072 54.5387 12.9072 54.5387 12.9072 54.5387C12.9072 54.5387 12.9072 54.5387 12.9072 54.5387C12.9072 54.5387 12.9072 54.5387 12.9072 54.5387C12.9072 54.5387 12.9072 54.5387 12.9072 54.5387C12.9072 54.5387 12.9072 54.5387 12.9072 54.5387C12.9072 54.5387 12.9072 54.5387 12.9072 54.5387C12.9072 54.5387 12.9072 54.5387 12.9072 54.5387C12.9072 54.5387 12.9072 54.5387 12.9072 54.5387C12.9072 54.5387 12.9072 54.5387 12.9072 54.5387C12.9072 54.5387 12.9072 54.5387 12.9072 54.5387C12.9072 54.5387 12.9072 54.5387 12.9072 54.5387C12.9072 54.5387 12.9072 54.5387 12.9072 54.5387C12.9072 54.5387 12.9072 54.5387 12.9072 54.5387C12.9072 54.5387 12.9072 54.5387 12.9072 54.5387C12.9072 54.5387 12.9072 54.5387 12.9072 54.5387C12.9072 54.5387 12.9072 54.5387 12.9072 54.5387C12.9072 54.5387 12.9072 54.5387 12.9072 54.5387C12.9072 54.5387 12.9072 54.5387 12.9072 54.5387C12.9072 54.5387 12.9072 54.5387 12.9072 54.5387C12.9072 54.5387 12.9072 54.5387 12.9072 54.5387C12.9072 54.5387 12.9072 54.5387 12.9072 54.5387C12.9072 54.5387 12.9072 54.5387 12.9072 54.5387C12.9072 54.5387 12.9072 54.5387 12.9072 54.5387C12.9072 54.5387 12.9072 54.5387 12.9072 54.5387C12.9072 54.5387 12.9073 54.5387 12.9073 54.5387C12.9073 54.5387 12.9073 54.5387 12.9073 54.5387C12.9073 54.5387 12.9073 54.5387 12.9073 54.5387C12.9073 54.5387 12.9073 54.5387 12.9073 54.5387C12.9073 54.5387 12.9073 54.5387 12.9073 54.5387C12.9073 54.5387 12.9073 54.5387 12.9073 54.5387C12.9073 54.5387 12.9073 54.5387 12.9073 54.5387C12.9073 54.5387 12.9073 54.5387 12.9073 54.5387C12.9073 54.5387 12.9073 54.5387 12.9073 54.5387C12.9073 54.5387 12.9073 54.5387 12.9073 54.5387C12.9073 54.5387 12.9073 54.5387 12.9073 54.5387C12.9073 54.5387 12.9073 54.5387 12.9073 54.5387C12.9073 54.5387 12.9073 54.5387 12.9073 54.5387C12.9073 54.5387 12.9073 54.5387 12.9073 54.5387C12.9073 54.5387 12.9073 54.5387 12.9073 54.5387C12.9073 54.5387 12.9073 54.5387 12.9073 54.5387C12.9073 54.5387 12.9073 54.5387 12.9073 54.5387C12.9073 54.5387 12.9073 54.5387 12.9073 54.5387C12.9073 54.5387 12.9073 54.5387 12.9073 54.5387C12.9073 54.5387 12.9073 54.5387 12.9073 54.5387C12.9073 54.5387 12.9073 54.5387 12.9073 54.5387C12.9073 54.5387 12.9073 54.5387 12.9073 54.5387C12.9073 54.5387 12.9073 54.5387 12.9073 54.5387C12.9073 54.5387 12.9073 54.5387 12.9073 54.5387C12.9073 54.5387 12.9073 54.5387 12.9073 54.5387C12.9073 54.5387 12.9073 54.5387 12.9073 54.5387C12.9073 54.5387 12.9073 54.5387 12.9073 54.5387C12.9073 54.5387 12.9073 54.5387 12.9073 54.5387C12.9073 54.5387 12.9073 54.5387 12.9073 54.5387C12.9073 54.5387 12.9073 54.5387 12.9073 54.5387C12.9073 54.5387 12.9073 54.5387 12.9073 54.5387C12.9073 54.5387 12.9073 54.5387 12.9073 54.5387C12.9073 54.5387 12.9073 54.5387 12.9074 54.5387C12.9074 54.5387 12.9074 54.5387 12.9074 54.5387C12.9074 54.5387 12.9074 54.5387 12.9074 54.5387C12.9074 54.5387 12.9074 54.5387 12.9074 54.5387C12.9074 54.5387 12.9074 54.5387 12.9074 54.5387C12.9074 54.5387 12.9074 54.5387 12.9074 54.5387C12.9074 54.5387 12.9074 54.5387 12.9074 54.5387C12.9074 54.5387 12.9074 54.5387 12.9074 54.5387C12.9074 54.5387 12.9074 54.5387 12.9074 54.5387C12.9074 54.5387 12.9074 54.5387 12.9074 54.5387C12.9074 54.5387 12.9074 54.5387 12.9074 54.5387C12.9074 54.5387 12.9074 54.5387 12.9074 54.5387C12.9074 54.5387 12.9074 54.5387 12.9074 54.5387C12.9074 54.5387 12.9074 54.5387 12.9074 54.5387C12.9074 54.5387 12.9074 54.5387 12.9074 54.5387C12.9074 54.5387 12.9074 54.5387 12.9074 54.5387C12.9074 54.5387 12.9074 54.5387 12.9074 54.5387C12.9074 54.5387 12.9074 54.5387 12.9074 54.5387C12.9074 54.5387 12.9074 54.5387 12.9074 54.5387C12.9074 54.5387 12.9074 54.5387 12.9074 54.5387C12.9074 54.5387 12.9074 54.5387 12.9074 54.5387C12.9074 54.5387 12.9074 54.5387 12.9074 54.5387C12.9074 54.5387 12.9074 54.5387 12.9074 54.5387C12.9074 54.5387 12.9074 54.5387 12.9074 54.5387C12.9074 54.5387 12.9074 54.5387 12.9074 54.5387C12.9074 54.5387 12.9074 54.5387 12.9074 54.5387C12.9074 54.5387 12.9074 54.5387 12.9074 54.5387C12.9074 54.5387 12.9074 54.5387 12.9074 54.5387C12.9074 54.5387 12.9074 54.5387 12.9074 54.5387C12.9074 54.5387 12.9074 54.5387 12.9074 54.5387C12.9074 54.5387 12.9074 54.5387 12.9074 54.5387C12.9074 54.5387 12.9074 54.5387 12.9074 54.5387C12.9074 54.5387 12.9074 54.5387 12.9074 54.5387C12.9075 54.5387 12.9075 54.5387 12.9075 54.5387C12.9075 54.5387 12.9075 54.5387 12.9075 54.5387C12.9075 54.5387 12.9075 54.5387 12.9075 54.5387C12.9075 54.5387 12.9075 54.5387 12.9075 54.5387C12.9075 54.5387 12.9075 54.5387 12.9075 54.5387C12.9075 54.5387 12.9075 54.5387 12.9075 54.5387C12.9075 54.5387 12.9075 54.5387 12.9075 54.5387C12.9075 54.5387 12.9075 54.5387 12.9075 54.5387C12.9075 54.5387 12.9075 54.5387 12.9075 54.5387C12.9075 54.5387 12.9075 54.5387 12.9075 54.5387C12.9075 54.5387 12.9075 54.5387 12.9075 54.5387C12.9075 54.5387 12.9075 54.5387 12.9075 54.5387C12.9075 54.5387 12.9075 54.5387 12.9075 54.5387C12.9075 54.5387 12.9075 54.5387 12.9075 54.5387C12.9075 54.5387 12.9075 54.5387 12.9075 54.5387C12.9075 54.5387 12.9075 54.5387 12.9075 54.5387C12.9075 54.5387 12.9075 54.5387 12.9075 54.5387C12.9075 54.5387 12.9075 54.5387 12.9075 54.5387C12.9075 54.5387 12.9075 54.5387 12.9075 54.5387C12.9075 54.5387 12.9075 54.5387 12.9075 54.5387C12.9075 54.5387 12.9075 54.5387 12.9075 54.5387C12.9075 54.5387 12.9075 54.5387 12.9075 54.5387C12.9075 54.5387 12.9075 54.5387 12.9075 54.5387C12.9075 54.5387 12.9075 54.5387 12.9075 54.5387C12.9075 54.5387 12.9075 54.5387 12.9075 54.5387C12.9075 54.5387 12.9075 54.5387 12.9075 54.5387C12.9075 54.5387 12.9075 54.5387 12.9075 54.5387C12.9075 54.5387 12.9075 54.5387 12.9075 54.5387C12.9075 54.5387 12.9075 54.5387 12.9075 54.5387C12.9075 54.5387 12.9075 54.5387 12.9075 54.5387C12.9075 54.5387 12.9075 54.5387 12.9075 54.5387C12.9075 54.5387 12.9075 54.5387 12.9075 54.5387C12.9075 54.5387 12.9075 54.5387 12.9076 54.5387C12.9076 54.5387 12.9076 54.5387 12.9076 54.5387C12.9076 54.5387 12.9076 54.5387 12.9076 54.5387C12.9076 54.5387 12.9076 54.5387 12.9076 54.5387C12.9076 54.5387 12.9076 54.5387 12.9076 54.5387C12.9076 54.5387 12.9076 54.5387 12.9076 54.5387C12.9076 54.5387 12.9076 54.5387 12.9076 54.5387C12.9076 54.5387 12.9076 54.5387 12.9076 54.5387C12.9076 54.5387 12.9076 54.5387 12.9076 54.5387C12.9076 54.5387 12.9076 54.5387 12.9076 54.5387C12.9076 54.5387 12.9076 54.5387 12.9076 54.5387C12.9076 54.5387 12.9076 54.5387 12.9076 54.5387C12.9076 54.5387 12.9076 54.5387 12.9076 54.5387C12.9076 54.5387 12.9076 54.5387 12.9076 54.5387C12.9076 54.5387 12.9076 54.5387 12.9076 54.5387C12.9076 54.5387 12.9076 54.5387 12.9076 54.5387C12.9076 54.5387 12.9076 54.5387 12.9076 54.5387C12.9076 54.5387 12.9076 54.5387 12.9076 54.5387C12.9076 54.5387 12.9076 54.5387 12.9076 54.5387C12.9076 54.5387 12.9076 54.5387 12.9076 54.5387C12.9076 54.5387 12.9076 54.5387 12.9076 54.5387C12.9076 54.5387 12.9076 54.5387 12.9076 54.5387C12.9076 54.5387 12.9076 54.5387 12.9076 54.5387C12.9076 54.5387 12.9076 54.5387 12.9076 54.5387C12.9076 54.5387 12.9076 54.5387 12.9076 54.5387C12.9076 54.5387 12.9076 54.5387 12.9076 54.5387C12.9076 54.5387 12.9076 54.5387 12.9076 54.5387C12.9076 54.5387 12.9076 54.5387 12.9076 54.5387C12.9076 54.5387 12.9076 54.5387 12.9076 54.5387C12.9076 54.5387 12.9076 54.5387 12.9076 54.5387C12.9076 54.5387 12.9076 54.5387 12.9076 54.5387C12.9076 54.5387 12.9076 54.5387 12.9076 54.5387C12.9076 54.5387 12.9076 54.5387 12.9076 54.5387C12.9077 54.5387 12.9077 54.5387 12.9077 54.5387C12.9077 54.5387 12.9077 54.5387 12.9077 54.5387C12.9077 54.5387 12.9077 54.5387 12.9077 54.5387C12.9077 54.5387 12.9077 54.5387 12.9077 54.5387C12.9077 54.5387 12.9077 54.5387 12.9077 54.5387C12.9077 54.5387 12.9077 54.5387 12.9077 54.5387C12.9077 54.5387 12.9077 54.5387 12.9077 54.5387C12.9077 54.5387 12.9077 54.5387 12.9077 54.5387C12.9077 54.5387 12.9077 54.5387 12.9077 54.5387C12.9077 54.5387 12.9077 54.5387 12.9077 54.5387C12.9077 54.5387 12.9077 54.5387 12.9077 54.5387C12.9077 54.5387 12.9077 54.5387 12.9077 54.5387C12.9077 54.5387 12.9077 54.5387 12.9077 54.5387C12.9077 54.5387 12.9077 54.5387 12.9077 54.5387C12.9077 54.5387 12.9077 54.5387 12.9077 54.5387C12.9077 54.5387 12.9077 54.5387 12.9077 54.5387C12.9077 54.5387 12.9077 54.5387 12.9077 54.5387C12.9077 54.5387 12.9077 54.5387 12.9077 54.5387C12.9077 54.5387 12.9077 54.5387 12.9077 54.5387C12.9077 54.5387 12.9077 54.5387 12.9077 54.5387C12.9077 54.5387 12.9077 54.5387 12.9077 54.5387C12.9077 54.5387 12.9077 54.5387 12.9077 54.5387C12.9077 54.5387 12.9077 54.5387 12.9077 54.5387C12.9077 54.5387 12.9077 54.5387 12.9077 54.5387C12.9077 54.5387 12.9077 54.5387 12.9077 54.5387C12.9077 54.5387 12.9077 54.5387 12.9077 54.5387C12.9077 54.5387 12.9077 54.5387 12.9077 54.5387C12.9077 54.5387 12.9077 54.5387 12.9077 54.5387C12.9077 54.5387 12.9077 54.5387 12.9077 54.5387C12.9077 54.5387 12.9077 54.5387 12.9077 54.5387C12.9077 54.5387 12.9077 54.5387 12.9077 54.5387C12.9077 54.5387 12.9077 54.5387 12.9077 54.5387C12.9078 54.5387 12.9078 54.5387 12.9078 54.5387C12.9078 54.5387 12.9078 54.5387 12.9078 54.5387C12.9078 54.5387 12.9078 54.5387 12.9078 54.5387C12.9078 54.5387 12.9078 54.5387 12.9078 54.5387C12.9078 54.5387 12.9078 54.5387 12.9078 54.5387C12.9078 54.5387 12.9078 54.5387 12.9078 54.5387C12.9078 54.5387 12.9078 54.5387 12.9078 54.5387C12.9078 54.5387 12.9078 54.5387 12.9078 54.5387C12.9078 54.5387 12.9078 54.5387 12.9078 54.5387C12.9078 54.5387 12.9078 54.5387 12.9078 54.5387C12.9078 54.5387 12.9078 54.5387 12.9078 54.5387C12.9078 54.5387 12.9078 54.5387 12.9078 54.5387C12.9078 54.5387 12.9078 54.5387 12.9078 54.5387C12.9078 54.5387 12.9078 54.5387 12.9078 54.5387C12.9078 54.5387 12.9078 54.5387 12.9078 54.5387C12.9078 54.5387 12.9078 54.5387 12.9078 54.5387C12.9078 54.5387 12.9078 54.5387 12.9078 54.5387C12.9078 54.5387 12.9078 54.5387 12.9078 54.5387C12.9078 54.5387 12.9078 54.5387 12.9078 54.5387C12.9078 54.5387 12.9078 54.5387 12.9078 54.5387C12.9078 54.5387 12.9078 54.5387 12.9078 54.5387C12.9078 54.5387 12.9078 54.5387 12.9078 54.5387C12.9078 54.5387 12.9078 54.5387 12.9078 54.5387C12.9078 54.5387 12.9078 54.5387 12.9078 54.5387C12.9078 54.5387 12.9078 54.5387 12.9078 54.5387C12.9078 54.5387 12.9078 54.5387 12.9078 54.5387V50.5387C12.9078 50.5387 12.9078 50.5387 12.9078 50.5387C12.9078 50.5387 12.9078 50.5387 12.9078 50.5387C12.9078 50.5387 12.9078 50.5387 12.9078 50.5387C12.9078 50.5387 12.9078 50.5387 12.9078 50.5387C12.9078 50.5387 12.9078 50.5387 12.9078 50.5387C12.9078 50.5387 12.9078 50.5387 12.9078 50.5387C12.9078 50.5387 12.9078 50.5387 12.9078 50.5387C12.9078 50.5387 12.9078 50.5387 12.9078 50.5387C12.9078 50.5387 12.9078 50.5387 12.9078 50.5387C12.9078 50.5387 12.9078 50.5387 12.9078 50.5387C12.9078 50.5387 12.9078 50.5387 12.9078 50.5387C12.9078 50.5387 12.9078 50.5387 12.9078 50.5387C12.9078 50.5387 12.9078 50.5387 12.9078 50.5387C12.9078 50.5387 12.9078 50.5387 12.9078 50.5387C12.9078 50.5387 12.9078 50.5387 12.9078 50.5387C12.9078 50.5387 12.9078 50.5387 12.9078 50.5387C12.9078 50.5387 12.9078 50.5387 12.9078 50.5387C12.9078 50.5387 12.9078 50.5387 12.9078 50.5387C12.9078 50.5387 12.9078 50.5387 12.9078 50.5387C12.9078 50.5387 12.9078 50.5387 12.9078 50.5387C12.9078 50.5387 12.9078 50.5387 12.9078 50.5387C12.9078 50.5387 12.9078 50.5387 12.9078 50.5387C12.9078 50.5387 12.9078 50.5387 12.9078 50.5387C12.9078 50.5387 12.9078 50.5387 12.9078 50.5387C12.9078 50.5387 12.9078 50.5387 12.9078 50.5387C12.9078 50.5387 12.9078 50.5387 12.9077 50.5387C12.9077 50.5387 12.9077 50.5387 12.9077 50.5387C12.9077 50.5387 12.9077 50.5387 12.9077 50.5387C12.9077 50.5387 12.9077 50.5387 12.9077 50.5387C12.9077 50.5387 12.9077 50.5387 12.9077 50.5387C12.9077 50.5387 12.9077 50.5387 12.9077 50.5387C12.9077 50.5387 12.9077 50.5387 12.9077 50.5387C12.9077 50.5387 12.9077 50.5387 12.9077 50.5387C12.9077 50.5387 12.9077 50.5387 12.9077 50.5387C12.9077 50.5387 12.9077 50.5387 12.9077 50.5387C12.9077 50.5387 12.9077 50.5387 12.9077 50.5387C12.9077 50.5387 12.9077 50.5387 12.9077 50.5387C12.9077 50.5387 12.9077 50.5387 12.9077 50.5387C12.9077 50.5387 12.9077 50.5387 12.9077 50.5387C12.9077 50.5387 12.9077 50.5387 12.9077 50.5387C12.9077 50.5387 12.9077 50.5387 12.9077 50.5387C12.9077 50.5387 12.9077 50.5387 12.9077 50.5387C12.9077 50.5387 12.9077 50.5387 12.9077 50.5387C12.9077 50.5387 12.9077 50.5387 12.9077 50.5387C12.9077 50.5387 12.9077 50.5387 12.9077 50.5387C12.9077 50.5387 12.9077 50.5387 12.9077 50.5387C12.9077 50.5387 12.9077 50.5387 12.9077 50.5387C12.9077 50.5387 12.9077 50.5387 12.9077 50.5387C12.9077 50.5387 12.9077 50.5387 12.9077 50.5387C12.9077 50.5387 12.9077 50.5387 12.9077 50.5387C12.9077 50.5387 12.9077 50.5387 12.9077 50.5387C12.9077 50.5387 12.9077 50.5387 12.9077 50.5387C12.9077 50.5387 12.9077 50.5387 12.9077 50.5387C12.9077 50.5387 12.9077 50.5387 12.9077 50.5387C12.9077 50.5387 12.9077 50.5387 12.9077 50.5387C12.9077 50.5387 12.9077 50.5387 12.9077 50.5387C12.9077 50.5387 12.9077 50.5387 12.9077 50.5387C12.9077 50.5387 12.9077 50.5387 12.9076 50.5387C12.9076 50.5387 12.9076 50.5387 12.9076 50.5387C12.9076 50.5387 12.9076 50.5387 12.9076 50.5387C12.9076 50.5387 12.9076 50.5387 12.9076 50.5387C12.9076 50.5387 12.9076 50.5387 12.9076 50.5387C12.9076 50.5387 12.9076 50.5387 12.9076 50.5387C12.9076 50.5387 12.9076 50.5387 12.9076 50.5387C12.9076 50.5387 12.9076 50.5387 12.9076 50.5387C12.9076 50.5387 12.9076 50.5387 12.9076 50.5387C12.9076 50.5387 12.9076 50.5387 12.9076 50.5387C12.9076 50.5387 12.9076 50.5387 12.9076 50.5387C12.9076 50.5387 12.9076 50.5387 12.9076 50.5387C12.9076 50.5387 12.9076 50.5387 12.9076 50.5387C12.9076 50.5387 12.9076 50.5387 12.9076 50.5387C12.9076 50.5387 12.9076 50.5387 12.9076 50.5387C12.9076 50.5387 12.9076 50.5387 12.9076 50.5387C12.9076 50.5387 12.9076 50.5387 12.9076 50.5387C12.9076 50.5387 12.9076 50.5387 12.9076 50.5387C12.9076 50.5387 12.9076 50.5387 12.9076 50.5387C12.9076 50.5387 12.9076 50.5387 12.9076 50.5387C12.9076 50.5387 12.9076 50.5387 12.9076 50.5387C12.9076 50.5387 12.9076 50.5387 12.9076 50.5387C12.9076 50.5387 12.9076 50.5387 12.9076 50.5387C12.9076 50.5387 12.9076 50.5387 12.9076 50.5387C12.9076 50.5387 12.9076 50.5387 12.9076 50.5387C12.9076 50.5387 12.9076 50.5387 12.9076 50.5387C12.9076 50.5387 12.9076 50.5387 12.9076 50.5387C12.9076 50.5387 12.9076 50.5387 12.9076 50.5387C12.9076 50.5387 12.9076 50.5387 12.9076 50.5387C12.9076 50.5387 12.9076 50.5387 12.9076 50.5387C12.9076 50.5387 12.9076 50.5387 12.9076 50.5387C12.9076 50.5387 12.9076 50.5387 12.9076 50.5387C12.9076 50.5387 12.9076 50.5387 12.9076 50.5387C12.9075 50.5387 12.9075 50.5387 12.9075 50.5387C12.9075 50.5387 12.9075 50.5387 12.9075 50.5387C12.9075 50.5387 12.9075 50.5387 12.9075 50.5387C12.9075 50.5387 12.9075 50.5387 12.9075 50.5387C12.9075 50.5387 12.9075 50.5387 12.9075 50.5387C12.9075 50.5387 12.9075 50.5387 12.9075 50.5387C12.9075 50.5387 12.9075 50.5387 12.9075 50.5387C12.9075 50.5387 12.9075 50.5387 12.9075 50.5387C12.9075 50.5387 12.9075 50.5387 12.9075 50.5387C12.9075 50.5387 12.9075 50.5387 12.9075 50.5387C12.9075 50.5387 12.9075 50.5387 12.9075 50.5387C12.9075 50.5387 12.9075 50.5387 12.9075 50.5387C12.9075 50.5387 12.9075 50.5387 12.9075 50.5387C12.9075 50.5387 12.9075 50.5387 12.9075 50.5387C12.9075 50.5387 12.9075 50.5387 12.9075 50.5387C12.9075 50.5387 12.9075 50.5387 12.9075 50.5387C12.9075 50.5387 12.9075 50.5387 12.9075 50.5387C12.9075 50.5387 12.9075 50.5387 12.9075 50.5387C12.9075 50.5387 12.9075 50.5387 12.9075 50.5387C12.9075 50.5387 12.9075 50.5387 12.9075 50.5387C12.9075 50.5387 12.9075 50.5387 12.9075 50.5387C12.9075 50.5387 12.9075 50.5387 12.9075 50.5387C12.9075 50.5387 12.9075 50.5387 12.9075 50.5387C12.9075 50.5387 12.9075 50.5387 12.9075 50.5387C12.9075 50.5387 12.9075 50.5387 12.9075 50.5387C12.9075 50.5387 12.9075 50.5387 12.9075 50.5387C12.9075 50.5387 12.9075 50.5387 12.9075 50.5387C12.9075 50.5387 12.9075 50.5387 12.9075 50.5387C12.9075 50.5387 12.9075 50.5387 12.9075 50.5387C12.9075 50.5387 12.9075 50.5387 12.9075 50.5387C12.9075 50.5387 12.9075 50.5387 12.9075 50.5387C12.9075 50.5387 12.9075 50.5387 12.9075 50.5387C12.9075 50.5387 12.9075 50.5387 12.9074 50.5387C12.9074 50.5387 12.9074 50.5387 12.9074 50.5387C12.9074 50.5387 12.9074 50.5387 12.9074 50.5387C12.9074 50.5387 12.9074 50.5387 12.9074 50.5387C12.9074 50.5387 12.9074 50.5387 12.9074 50.5387C12.9074 50.5387 12.9074 50.5387 12.9074 50.5387C12.9074 50.5387 12.9074 50.5387 12.9074 50.5387C12.9074 50.5387 12.9074 50.5387 12.9074 50.5387C12.9074 50.5387 12.9074 50.5387 12.9074 50.5387C12.9074 50.5387 12.9074 50.5387 12.9074 50.5387C12.9074 50.5387 12.9074 50.5387 12.9074 50.5387C12.9074 50.5387 12.9074 50.5387 12.9074 50.5387C12.9074 50.5387 12.9074 50.5387 12.9074 50.5387C12.9074 50.5387 12.9074 50.5387 12.9074 50.5387C12.9074 50.5387 12.9074 50.5387 12.9074 50.5387C12.9074 50.5387 12.9074 50.5387 12.9074 50.5387C12.9074 50.5387 12.9074 50.5387 12.9074 50.5387C12.9074 50.5387 12.9074 50.5387 12.9074 50.5387C12.9074 50.5387 12.9074 50.5387 12.9074 50.5387C12.9074 50.5387 12.9074 50.5387 12.9074 50.5387C12.9074 50.5387 12.9074 50.5387 12.9074 50.5387C12.9074 50.5387 12.9074 50.5387 12.9074 50.5387C12.9074 50.5387 12.9074 50.5387 12.9074 50.5387C12.9074 50.5387 12.9074 50.5387 12.9074 50.5387C12.9074 50.5387 12.9074 50.5387 12.9074 50.5387C12.9074 50.5387 12.9074 50.5387 12.9074 50.5387C12.9074 50.5387 12.9074 50.5387 12.9074 50.5387C12.9074 50.5387 12.9074 50.5387 12.9074 50.5387C12.9074 50.5387 12.9074 50.5387 12.9074 50.5387C12.9074 50.5387 12.9074 50.5387 12.9074 50.5387C12.9074 50.5387 12.9074 50.5387 12.9074 50.5387C12.9074 50.5387 12.9074 50.5387 12.9074 50.5387C12.9074 50.5387 12.9074 50.5387 12.9074 50.5387C12.9073 50.5387 12.9073 50.5387 12.9073 50.5387C12.9073 50.5387 12.9073 50.5387 12.9073 50.5387C12.9073 50.5387 12.9073 50.5387 12.9073 50.5387C12.9073 50.5387 12.9073 50.5387 12.9073 50.5387C12.9073 50.5387 12.9073 50.5387 12.9073 50.5387C12.9073 50.5387 12.9073 50.5387 12.9073 50.5387C12.9073 50.5387 12.9073 50.5387 12.9073 50.5387C12.9073 50.5387 12.9073 50.5387 12.9073 50.5387C12.9073 50.5387 12.9073 50.5387 12.9073 50.5387C12.9073 50.5387 12.9073 50.5387 12.9073 50.5387C12.9073 50.5387 12.9073 50.5387 12.9073 50.5387C12.9073 50.5387 12.9073 50.5387 12.9073 50.5387C12.9073 50.5387 12.9073 50.5387 12.9073 50.5387C12.9073 50.5387 12.9073 50.5387 12.9073 50.5387C12.9073 50.5387 12.9073 50.5387 12.9073 50.5387C12.9073 50.5387 12.9073 50.5387 12.9073 50.5387C12.9073 50.5387 12.9073 50.5387 12.9073 50.5387C12.9073 50.5387 12.9073 50.5387 12.9073 50.5387C12.9073 50.5387 12.9073 50.5387 12.9073 50.5387C12.9073 50.5387 12.9073 50.5387 12.9073 50.5387C12.9073 50.5387 12.9073 50.5387 12.9073 50.5387C12.9073 50.5387 12.9073 50.5387 12.9073 50.5387C12.9073 50.5387 12.9073 50.5387 12.9073 50.5387C12.9073 50.5387 12.9073 50.5387 12.9073 50.5387C12.9073 50.5387 12.9073 50.5387 12.9073 50.5387C12.9073 50.5387 12.9073 50.5387 12.9073 50.5387C12.9073 50.5387 12.9073 50.5387 12.9073 50.5387C12.9073 50.5387 12.9073 50.5387 12.9073 50.5387C12.9073 50.5387 12.9073 50.5387 12.9073 50.5387C12.9073 50.5387 12.9073 50.5387 12.9073 50.5387C12.9073 50.5387 12.9073 50.5387 12.9073 50.5387C12.9073 50.5387 12.9073 50.5387 12.9073 50.5387C12.9073 50.5387 12.9072 50.5387 12.9072 50.5387C12.9072 50.5387 12.9072 50.5387 12.9072 50.5387C12.9072 50.5387 12.9072 50.5387 12.9072 50.5387C12.9072 50.5387 12.9072 50.5387 12.9072 50.5387C12.9072 50.5387 12.9072 50.5387 12.9072 50.5387C12.9072 50.5387 12.9072 50.5387 12.9072 50.5387C12.9072 50.5387 12.9072 50.5387 12.9072 50.5387C12.9072 50.5387 12.9072 50.5387 12.9072 50.5387C12.9072 50.5387 12.9072 50.5387 12.9072 50.5387C12.9072 50.5387 12.9072 50.5387 12.9072 50.5387C12.9072 50.5387 12.9072 50.5387 12.9072 50.5387C12.9072 50.5387 12.9072 50.5387 12.9072 50.5387C12.9072 50.5387 12.9072 50.5387 12.9072 50.5387C12.9072 50.5387 12.9072 50.5387 12.9072 50.5387C12.9072 50.5387 12.9072 50.5387 12.9072 50.5387C12.9072 50.5387 12.9072 50.5387 12.9072 50.5387C12.9072 50.5387 12.9072 50.5387 12.9072 50.5387C12.9072 50.5387 12.9072 50.5387 12.9072 50.5387C12.9072 50.5387 12.9072 50.5387 12.9072 50.5387C12.9072 50.5387 12.9072 50.5387 12.9072 50.5387C12.9072 50.5387 12.9072 50.5387 12.9072 50.5387C12.9072 50.5387 12.9072 50.5387 12.9072 50.5387C12.9072 50.5387 12.9072 50.5387 12.9072 50.5387C12.9072 50.5387 12.9072 50.5387 12.9072 50.5387C12.9072 50.5387 12.9072 50.5387 12.9072 50.5387C12.9072 50.5387 12.9072 50.5387 12.9072 50.5387C12.9072 50.5387 12.9072 50.5387 12.9072 50.5387C12.9072 50.5387 12.9072 50.5387 12.9072 50.5387C12.9072 50.5387 12.9072 50.5387 12.9072 50.5387C12.9072 50.5387 12.9072 50.5387 12.9072 50.5387C12.9072 50.5387 12.9072 50.5387 12.9072 50.5387C12.9072 50.5387 12.9072 50.5387 12.9072 50.5387C12.9072 50.5387 12.9072 50.5387 12.9071 50.5387C12.9071 50.5387 12.9071 50.5387 12.9071 50.5387C12.9071 50.5387 12.9071 50.5387 12.9071 50.5387C12.9071 50.5387 12.9071 50.5387 12.9071 50.5387C12.9071 50.5387 12.9071 50.5387 12.9071 50.5387C12.9071 50.5387 12.9071 50.5387 12.9071 50.5387C12.9071 50.5387 12.9071 50.5387 12.9071 50.5387C12.9071 50.5387 12.9071 50.5387 12.9071 50.5387C12.9071 50.5387 12.9071 50.5387 12.9071 50.5387C12.9071 50.5387 12.9071 50.5387 12.9071 50.5387C12.9071 50.5387 12.9071 50.5387 12.9071 50.5387C12.9071 50.5387 12.9071 50.5387 12.9071 50.5387C12.9071 50.5387 12.9071 50.5387 12.9071 50.5387C12.9071 50.5387 12.9071 50.5387 12.9071 50.5387C12.9071 50.5387 12.9071 50.5387 12.9071 50.5387C12.9071 50.5387 12.9071 50.5387 12.9071 50.5387C12.9071 50.5387 12.9071 50.5387 12.9071 50.5387C12.9071 50.5387 12.9071 50.5387 12.9071 50.5387C12.9071 50.5387 12.9071 50.5387 12.9071 50.5387C12.9071 50.5387 12.9071 50.5387 12.9071 50.5387C12.9071 50.5387 12.9071 50.5387 12.9071 50.5387C12.9071 50.5387 12.9071 50.5387 12.9071 50.5387C12.9071 50.5387 12.9071 50.5387 12.9071 50.5387C12.9071 50.5387 12.9071 50.5387 12.9071 50.5387C12.9071 50.5387 12.9071 50.5387 12.9071 50.5387C12.9071 50.5387 12.9071 50.5387 12.9071 50.5387C12.9071 50.5387 12.9071 50.5387 12.9071 50.5387C12.9071 50.5387 12.9071 50.5387 12.9071 50.5387C12.9071 50.5387 12.9071 50.5387 12.9071 50.5387C12.9071 50.5387 12.9071 50.5387 12.9071 50.5387C12.9071 50.5387 12.9071 50.5387 12.9071 50.5387C12.9071 50.5387 12.9071 50.5387 12.9071 50.5387C12.9071 50.5387 12.9071 50.5387 12.9071 50.5387C12.907 50.5387 12.907 50.5387 12.907 50.5387C12.907 50.5387 12.907 50.5387 12.907 50.5387C12.907 50.5387 12.907 50.5387 12.907 50.5387C12.907 50.5387 12.907 50.5387 12.907 50.5387C12.907 50.5387 12.907 50.5387 12.907 50.5387C12.907 50.5387 12.907 50.5387 12.907 50.5387C12.907 50.5387 12.907 50.5387 12.907 50.5387C12.907 50.5387 12.907 50.5387 12.907 50.5387C12.907 50.5387 12.907 50.5387 12.907 50.5387C12.907 50.5387 12.907 50.5387 12.907 50.5387C12.907 50.5387 12.907 50.5387 12.907 50.5387C12.907 50.5387 12.907 50.5387 12.907 50.5387C12.907 50.5387 12.907 50.5387 12.907 50.5387C12.907 50.5387 12.907 50.5387 12.907 50.5387C12.907 50.5387 12.907 50.5387 12.907 50.5387C12.907 50.5387 12.907 50.5387 12.907 50.5387C12.907 50.5387 12.907 50.5387 12.907 50.5387C12.907 50.5387 12.907 50.5387 12.907 50.5387C12.907 50.5387 12.907 50.5387 12.907 50.5387C12.907 50.5387 12.907 50.5387 12.907 50.5387C12.907 50.5387 12.907 50.5387 12.907 50.5387C12.907 50.5387 12.907 50.5387 12.907 50.5387C12.907 50.5387 12.907 50.5387 12.907 50.5387C12.907 50.5387 12.907 50.5387 12.907 50.5387C12.907 50.5387 12.907 50.5387 12.907 50.5387C12.907 50.5387 12.907 50.5387 12.907 50.5387C12.907 50.5387 12.907 50.5387 12.907 50.5387C12.907 50.5387 12.907 50.5387 12.907 50.5387C12.907 50.5387 12.907 50.5387 12.907 50.5387C12.907 50.5387 12.907 50.5387 12.907 50.5387C12.907 50.5387 12.907 50.5387 12.907 50.5387C12.907 50.5387 12.907 50.5387 12.907 50.5387C12.907 50.5387 12.9069 50.5387 12.9069 50.5387C12.9069 50.5387 12.9069 50.5387 12.9069 50.5387C12.9069 50.5387 12.9069 50.5387 12.9069 50.5387C12.9069 50.5387 12.9069 50.5387 12.9069 50.5387C12.9069 50.5387 12.9069 50.5387 12.9069 50.5387C12.9069 50.5387 12.9069 50.5387 12.9069 50.5387C12.9069 50.5387 12.9069 50.5387 12.9069 50.5387C12.9069 50.5387 12.9069 50.5387 12.9069 50.5387C12.9069 50.5387 12.9069 50.5387 12.9069 50.5387C12.9069 50.5387 12.9069 50.5387 12.9069 50.5387C12.9069 50.5387 12.9069 50.5387 12.9069 50.5387C12.9069 50.5387 12.9069 50.5387 12.9069 50.5387C12.9069 50.5387 12.9069 50.5387 12.9069 50.5387C12.9069 50.5387 12.9069 50.5387 12.9069 50.5387C12.9069 50.5387 12.9069 50.5387 12.9069 50.5387C12.9069 50.5387 12.9069 50.5387 12.9069 50.5387C12.9069 50.5387 12.9069 50.5387 12.9069 50.5387C12.9069 50.5387 12.9069 50.5387 12.9069 50.5387C12.9069 50.5387 12.9069 50.5387 12.9069 50.5387C12.9069 50.5387 12.9069 50.5387 12.9069 50.5387C12.9069 50.5387 12.9069 50.5387 12.9069 50.5387C12.9069 50.5387 12.9069 50.5387 12.9069 50.5387C12.9069 50.5387 12.9069 50.5387 12.9069 50.5387C12.9069 50.5387 12.9069 50.5387 12.9069 50.5387C12.9069 50.5387 12.9069 50.5387 12.9069 50.5387C12.9069 50.5387 12.9069 50.5387 12.9069 50.5387C12.9069 50.5387 12.9069 50.5387 12.9069 50.5387C12.9069 50.5387 12.9069 50.5387 12.9069 50.5387C12.9069 50.5387 12.9069 50.5387 12.9069 50.5387C12.9069 50.5387 12.9069 50.5387 12.9069 50.5387C12.9069 50.5387 12.9069 50.5387 12.9069 50.5387C12.9069 50.5387 12.9069 50.5387 12.9069 50.5387C12.9069 50.5387 12.9069 50.5387 12.9068 50.5387C12.9068 50.5387 12.9068 50.5387 12.9068 50.5387C12.9068 50.5387 12.9068 50.5387 12.9068 50.5387C12.9068 50.5387 12.9068 50.5387 12.9068 50.5387C12.9068 50.5387 12.9068 50.5387 12.9068 50.5387C12.9068 50.5387 12.9068 50.5387 12.9068 50.5387C12.9068 50.5387 12.9068 50.5387 12.9068 50.5387C12.9068 50.5387 12.9068 50.5387 12.9068 50.5387C12.9068 50.5387 12.9068 50.5387 12.9068 50.5387C12.9068 50.5387 12.9068 50.5387 12.9068 50.5387C12.9068 50.5387 12.9068 50.5387 12.9068 50.5387C12.9068 50.5387 12.9068 50.5387 12.9068 50.5387C12.9068 50.5387 12.9068 50.5387 12.9068 50.5387C12.9068 50.5387 12.9068 50.5387 12.9068 50.5387C12.9068 50.5387 12.9068 50.5387 12.9068 50.5387C12.9068 50.5387 12.9068 50.5387 12.9068 50.5387C12.9068 50.5387 12.9068 50.5387 12.9068 50.5387C12.9068 50.5387 12.9068 50.5387 12.9068 50.5387C12.9068 50.5387 12.9068 50.5387 12.9068 50.5387C12.9068 50.5387 12.9068 50.5387 12.9068 50.5387C12.9068 50.5387 12.9068 50.5387 12.9068 50.5387C12.9068 50.5387 12.9068 50.5387 12.9068 50.5387C12.9068 50.5387 12.9068 50.5387 12.9068 50.5387C12.9068 50.5387 12.9068 50.5387 12.9068 50.5387C12.9068 50.5387 12.9068 50.5387 12.9068 50.5387C12.9068 50.5387 12.9068 50.5387 12.9068 50.5387C12.9068 50.5387 12.9068 50.5387 12.9068 50.5387C12.9068 50.5387 12.9068 50.5387 12.9068 50.5387C12.9068 50.5387 12.9068 50.5387 12.9068 50.5387C12.9068 50.5387 12.9068 50.5387 12.9068 50.5387C12.9068 50.5387 12.9068 50.5387 12.9068 50.5387C12.9068 50.5387 12.9068 50.5387 12.9068 50.5387C12.9068 50.5387 12.9068 50.5387 12.9068 50.5387C12.9067 50.5387 12.9067 50.5387 12.9067 50.5387C12.9067 50.5387 12.9067 50.5387 12.9067 50.5387C12.9067 50.5387 12.9067 50.5387 12.9067 50.5387C12.9067 50.5387 12.9067 50.5387 12.9067 50.5387C12.9067 50.5387 12.9067 50.5387 12.9067 50.5387C12.9067 50.5387 12.9067 50.5387 12.9067 50.5387C12.9067 50.5387 12.9067 50.5387 12.9067 50.5387C12.9067 50.5387 12.9067 50.5387 12.9067 50.5387C12.9067 50.5387 12.9067 50.5387 12.9067 50.5387C12.9067 50.5387 12.9067 50.5387 12.9067 50.5387C12.9067 50.5387 12.9067 50.5387 12.9067 50.5387C12.9067 50.5387 12.9067 50.5387 12.9067 50.5387C12.9067 50.5387 12.9067 50.5387 12.9067 50.5387C12.9067 50.5387 12.9067 50.5387 12.9067 50.5387C12.9067 50.5387 12.9067 50.5387 12.9067 50.5387C12.9067 50.5387 12.9067 50.5387 12.9067 50.5387C12.9067 50.5387 12.9067 50.5387 12.9067 50.5387C12.9067 50.5387 12.9067 50.5387 12.9067 50.5387C12.9067 50.5387 12.9067 50.5387 12.9067 50.5387C12.9067 50.5387 12.9067 50.5387 12.9067 50.5387C12.9067 50.5387 12.9067 50.5387 12.9067 50.5387C12.9067 50.5387 12.9067 50.5387 12.9067 50.5387C12.9067 50.5387 12.9067 50.5387 12.9067 50.5387C12.9067 50.5387 12.9067 50.5387 12.9067 50.5387C12.9067 50.5387 12.9067 50.5387 12.9067 50.5387C12.9067 50.5387 12.9067 50.5387 12.9067 50.5387C12.9067 50.5387 12.9067 50.5387 12.9067 50.5387C12.9067 50.5387 12.9067 50.5387 12.9067 50.5387C12.9067 50.5387 12.9067 50.5387 12.9067 50.5387C12.9067 50.5387 12.9067 50.5387 12.9067 50.5387C12.9067 50.5387 12.9067 50.5387 12.9067 50.5387C12.9067 50.5387 12.9067 50.5387 12.9067 50.5387C12.9067 50.5387 12.9066 50.5387 12.9066 50.5387C12.9066 50.5387 12.9066 50.5387 12.9066 50.5387C12.9066 50.5387 12.9066 50.5387 12.9066 50.5387C12.9066 50.5387 12.9066 50.5387 12.9066 50.5387C12.9066 50.5387 12.9066 50.5387 12.9066 50.5387C12.9066 50.5387 12.9066 50.5387 12.9066 50.5387C12.9066 50.5387 12.9066 50.5387 12.9066 50.5387C12.9066 50.5387 12.9066 50.5387 12.9066 50.5387C12.9066 50.5387 12.9066 50.5387 12.9066 50.5387C12.9066 50.5387 12.9066 50.5387 12.9066 50.5387C12.9066 50.5387 12.9066 50.5387 12.9066 50.5387C12.9066 50.5387 12.9066 50.5387 12.9066 50.5387C12.9066 50.5387 12.9066 50.5387 12.9066 50.5387C12.9066 50.5387 12.9066 50.5387 12.9066 50.5387C12.9066 50.5387 12.9066 50.5387 12.9066 50.5387C12.9066 50.5387 12.9066 50.5387 12.9066 50.5387C12.9066 50.5387 12.9066 50.5387 12.9066 50.5387C12.9066 50.5387 12.9066 50.5387 12.9066 50.5387C12.9066 50.5387 12.9066 50.5387 12.9066 50.5387C12.9066 50.5387 12.9066 50.5387 12.9066 50.5387C12.9066 50.5387 12.9066 50.5387 12.9066 50.5387C12.9066 50.5387 12.9066 50.5387 12.9066 50.5387C12.9066 50.5387 12.9066 50.5387 12.9066 50.5387C12.9066 50.5387 12.9066 50.5387 12.9066 50.5387C12.9066 50.5387 12.9066 50.5387 12.9066 50.5387C12.9066 50.5387 12.9066 50.5387 12.9066 50.5387C12.9066 50.5387 12.9066 50.5387 12.9066 50.5387C12.9066 50.5387 12.9066 50.5387 12.9066 50.5387C12.9066 50.5387 12.9066 50.5387 12.9066 50.5387C12.9066 50.5387 12.9066 50.5387 12.9066 50.5387C12.9066 50.5387 12.9066 50.5387 12.9066 50.5387C12.9066 50.5387 12.9066 50.5387 12.9066 50.5387C12.9066 50.5387 12.9066 50.5387 12.9066 50.5387C12.9065 50.5387 12.9065 50.5387 12.9065 50.5387C12.9065 50.5387 12.9065 50.5387 12.9065 50.5387C12.9065 50.5387 12.9065 50.5387 12.9065 50.5387C12.9065 50.5387 12.9065 50.5387 12.9065 50.5387C12.9065 50.5387 12.9065 50.5387 12.9065 50.5387C12.9065 50.5387 12.9065 50.5387 12.9065 50.5387C12.9065 50.5387 12.9065 50.5387 12.9065 50.5387C12.9065 50.5387 12.9065 50.5387 12.9065 50.5387C12.9065 50.5387 12.9065 50.5387 12.9065 50.5387C12.9065 50.5387 12.9065 50.5387 12.9065 50.5387C12.9065 50.5387 12.9065 50.5387 12.9065 50.5387C12.9065 50.5387 12.9065 50.5387 12.9065 50.5387C12.9065 50.5387 12.9065 50.5387 12.9065 50.5387C12.9065 50.5387 12.9065 50.5387 12.9065 50.5387C12.9065 50.5387 12.9065 50.5387 12.9065 50.5387C12.9065 50.5387 12.9065 50.5387 12.9065 50.5387C12.9065 50.5387 12.9065 50.5387 12.9065 50.5387C12.9065 50.5387 12.9065 50.5387 12.9065 50.5387C12.9065 50.5387 12.9065 50.5387 12.9065 50.5387C12.9065 50.5387 12.9065 50.5387 12.9065 50.5387C12.9065 50.5387 12.9065 50.5387 12.9065 50.5387C12.9065 50.5387 12.9065 50.5387 12.9065 50.5387C12.9065 50.5387 12.9065 50.5387 12.9065 50.5387C12.9065 50.5387 12.9065 50.5387 12.9065 50.5387C12.9065 50.5387 12.9065 50.5387 12.9065 50.5387C12.9065 50.5387 12.9065 50.5387 12.9065 50.5387C12.9065 50.5387 12.9065 50.5387 12.9065 50.5387C12.9065 50.5387 12.9065 50.5387 12.9065 50.5387C12.9065 50.5387 12.9065 50.5387 12.9065 50.5387C12.9065 50.5387 12.9065 50.5387 12.9065 50.5387C12.9065 50.5387 12.9065 50.5387 12.9065 50.5387C12.9065 50.5387 12.9065 50.5387 12.9065 50.5387C12.9065 50.5387 12.9064 50.5387 12.9064 50.5387C12.9064 50.5387 12.9064 50.5387 12.9064 50.5387C12.9064 50.5387 12.9064 50.5387 12.9064 50.5387C12.9064 50.5387 12.9064 50.5387 12.9064 50.5387C12.9064 50.5387 12.9064 50.5387 12.9064 50.5387C12.9064 50.5387 12.9064 50.5387 12.9064 50.5387C12.9064 50.5387 12.9064 50.5387 12.9064 50.5387C12.9064 50.5387 12.9064 50.5387 12.9064 50.5387C12.9064 50.5387 12.9064 50.5387 12.9064 50.5387C12.9064 50.5387 12.9064 50.5387 12.9064 50.5387C12.9064 50.5387 12.9064 50.5387 12.9064 50.5387C12.9064 50.5387 12.9064 50.5387 12.9064 50.5387C12.9064 50.5387 12.9064 50.5387 12.9064 50.5387C12.9064 50.5387 12.9064 50.5387 12.9064 50.5387C12.9064 50.5387 12.9064 50.5387 12.9064 50.5387C12.9064 50.5387 12.9064 50.5387 12.9064 50.5387C12.9064 50.5387 12.9064 50.5387 12.9064 50.5387C12.9064 50.5387 12.9064 50.5387 12.9064 50.5387C12.9064 50.5387 12.9064 50.5387 12.9064 50.5387C12.9064 50.5387 12.9064 50.5387 12.9064 50.5387C12.9064 50.5387 12.9064 50.5387 12.9064 50.5387C12.9064 50.5387 12.9064 50.5387 12.9064 50.5387C12.9064 50.5387 12.9064 50.5387 12.9064 50.5387C12.9064 50.5387 12.9064 50.5387 12.9064 50.5387C12.9064 50.5387 12.9064 50.5387 12.9064 50.5387C12.9064 50.5387 12.9064 50.5387 12.9064 50.5387C12.9064 50.5387 12.9064 50.5387 12.9064 50.5387C12.9064 50.5387 12.9064 50.5387 12.9064 50.5387C12.9064 50.5387 12.9064 50.5387 12.9064 50.5387C12.9064 50.5387 12.9064 50.5387 12.9064 50.5387C12.9064 50.5387 12.9064 50.5387 12.9064 50.5387C12.9064 50.5387 12.9064 50.5387 12.9064 50.5387C12.9064 50.5387 12.9064 50.5387 12.9063 50.5387C12.9063 50.5387 12.9063 50.5387 12.9063 50.5387C12.9063 50.5387 12.9063 50.5387 12.9063 50.5387C12.9063 50.5387 12.9063 50.5387 12.9063 50.5387C12.9063 50.5387 12.9063 50.5387 12.9063 50.5387C12.9063 50.5387 12.9063 50.5387 12.9063 50.5387C12.9063 50.5387 12.9063 50.5387 12.9063 50.5387C12.9063 50.5387 12.9063 50.5387 12.9063 50.5387C12.9063 50.5387 12.9063 50.5387 12.9063 50.5387C12.9063 50.5387 12.9063 50.5387 12.9063 50.5387C12.9063 50.5387 12.9063 50.5387 12.9063 50.5387C12.9063 50.5387 12.9063 50.5387 12.9063 50.5387C12.9063 50.5387 12.9063 50.5387 12.9063 50.5387C12.9063 50.5387 12.9063 50.5387 12.9063 50.5387C12.9063 50.5387 12.9063 50.5387 12.9063 50.5387C12.9063 50.5387 12.9063 50.5387 12.9063 50.5387C12.9063 50.5387 12.9063 50.5387 12.9063 50.5387C12.9063 50.5387 12.9063 50.5387 12.9063 50.5387C12.9063 50.5387 12.9063 50.5387 12.9063 50.5387C12.9063 50.5387 12.9063 50.5387 12.9063 50.5387C12.9063 50.5387 12.9063 50.5387 12.9063 50.5387C12.9063 50.5387 12.9063 50.5387 12.9063 50.5387C12.9063 50.5387 12.9063 50.5387 12.9063 50.5387C12.9063 50.5387 12.9063 50.5387 12.9063 50.5387C12.9063 50.5387 12.9063 50.5387 12.9063 50.5387C12.9063 50.5387 12.9063 50.5387 12.9063 50.5387C12.9063 50.5387 12.9063 50.5387 12.9063 50.5387C12.9063 50.5387 12.9063 50.5387 12.9063 50.5387C12.9063 50.5387 12.9063 50.5387 12.9063 50.5387C12.9063 50.5387 12.9063 50.5387 12.9063 50.5387C12.9063 50.5387 12.9063 50.5387 12.9063 50.5387C12.9063 50.5387 12.9063 50.5387 12.9063 50.5387C12.9063 50.5387 12.9063 50.5387 12.9062 50.5387C12.9062 50.5387 12.9062 50.5387 12.9062 50.5387V54.5387ZM-1.2926 40.3516C-1.2926 48.1887 5.06625 54.5387 12.9062 54.5387V50.5387C7.27177 50.5387 2.7074 45.976 2.7074 40.3516H-1.2926ZM12.9062 26.1644C5.06625 26.1644 -1.2926 32.5144 -1.2926 40.3516H2.7074C2.7074 34.7272 7.27177 30.1644 12.9062 30.1644V26.1644ZM15.588 26.4175C14.718 26.2512 13.8213 26.1644 12.9062 26.1644V30.1644C13.568 30.1644 14.2133 30.2271 14.8369 30.3463L15.588 26.4175ZM13.0868 26.642C13.0868 27.3298 13.1367 28.0071 13.2334 28.6704L17.1915 28.0934C17.1226 27.6206 17.0868 27.1361 17.0868 26.642H13.0868ZM27.0678 12.6724C19.3481 12.6724 13.0868 18.925 13.0868 26.642H17.0868C17.0868 21.1377 21.5536 16.6724 27.0678 16.6724V12.6724ZM31.1106 13.2659C29.8283 12.8794 28.4705 12.6724 27.0678 12.6724V16.6724C28.0752 16.6724 29.0444 16.8209 29.9563 17.0957L31.1106 13.2659ZM40.3529 7.01355C35.2319 7.01355 30.8112 9.99735 28.7317 14.3126L32.3352 16.049C33.7724 13.0664 36.8241 11.0135 40.3529 11.0135V7.01355ZM53.2447 19.8949C53.2447 12.7789 47.471 7.01355 40.3529 7.01355V11.0135C45.2655 11.0135 49.2447 14.9917 49.2447 19.8949H53.2447Z" fill="#2823FB" mask="url(#path-1-inside-1_234_78)"/>
<path fill-rule="evenodd" clip-rule="evenodd" d="M59.0373 22.9369C63.5749 25.7862 66.5908 30.8321 66.5908 36.5817C66.5908 44.7375 60.5224 51.4773 52.6504 52.5402V52.685H50.6661C50.6011 52.6858 50.5361 52.6861 50.4709 52.6861C50.4058 52.6861 50.3407 52.6858 50.2758 52.685H13.0041V52.6842H13.0025C6.97622 52.6842 1.97054 48.3187 0.981202 42.5804L59.0373 22.9369Z" fill="#E5ECFF"/>
<mask id="path-4-inside-2_234_78" fill="white">
<path fill-rule="evenodd" clip-rule="evenodd" d="M51.2447 19.8949C51.2447 20.0488 51.2415 20.202 51.2352 20.3543C59.7379 20.8011 66.4946 27.8303 66.4946 36.4362C66.4946 44.8158 60.0885 51.7006 51.9022 52.4693V52.6843H12.1251V52.5142C5.75187 52.1118 0.707397 46.8202 0.707397 40.3516C0.707397 33.6208 6.16901 28.1644 12.9062 28.1644C13.6947 28.1644 14.4657 28.2391 15.2125 28.3819C15.1297 27.8139 15.0868 27.2329 15.0868 26.642C15.0868 20.0314 20.4509 14.6724 27.0678 14.6724C28.2728 14.6724 29.4363 14.8502 30.5335 15.1808C32.2918 11.5319 36.028 9.01355 40.3529 9.01355C46.3683 9.01355 51.2447 13.8853 51.2447 19.8949Z"/>
</mask>
<path d="M51.2352 20.3543L49.2369 20.2712L49.1547 22.2477L51.1302 22.3515L51.2352 20.3543ZM51.9022 52.4693L51.7152 50.4781L49.9022 50.6483V52.4693H51.9022ZM51.9022 52.6843V54.6843H53.9022V52.6843H51.9022ZM12.1251 52.6843H10.1251V54.6843H12.1251V52.6843ZM12.1251 52.5142H14.1251V50.6365L12.2511 50.5181L12.1251 52.5142ZM15.2125 28.3819L14.8369 30.3463L17.5968 30.8739L17.1915 28.0934L15.2125 28.3819ZM30.5335 15.1808L29.9563 17.0957L31.5931 17.5891L32.3352 16.049L30.5335 15.1808ZM53.2335 20.4373C53.2409 20.2574 53.2447 20.0765 53.2447 19.8949H49.2447C49.2447 20.0211 49.2421 20.1466 49.2369 20.2712L53.2335 20.4373ZM68.4946 36.4362C68.4946 26.7593 60.8979 18.8593 51.3401 18.357L51.1302 22.3515C58.5779 22.7429 64.4946 28.9014 64.4946 36.4362H68.4946ZM52.0891 54.4605C61.2918 53.5964 68.4946 45.8592 68.4946 36.4362H64.4946C64.4946 43.7723 58.8852 49.8048 51.7152 50.4781L52.0891 54.4605ZM49.9022 52.4693V52.6843H53.9022V52.4693H49.9022ZM51.9022 50.6843H12.1251V54.6843H51.9022V50.6843ZM14.1251 52.6843V52.5142H10.1251V52.6843H14.1251ZM-1.2926 40.3516C-1.2926 47.8842 4.58066 54.0418 11.9991 54.5102L12.2511 50.5181C6.92307 50.1818 2.7074 45.7562 2.7074 40.3516H-1.2926ZM12.9062 26.1644C5.06625 26.1644 -1.2926 32.5144 -1.2926 40.3516H2.7074C2.7074 34.7272 7.27177 30.1644 12.9062 30.1644V26.1644ZM15.588 26.4175C14.718 26.2512 13.8213 26.1644 12.9062 26.1644V30.1644C13.568 30.1644 14.2133 30.2271 14.8369 30.3463L15.588 26.4175ZM13.0868 26.642C13.0868 27.3298 13.1367 28.0071 13.2334 28.6704L17.1915 28.0934C17.1226 27.6206 17.0868 27.1361 17.0868 26.642H13.0868ZM27.0678 12.6724C19.3481 12.6724 13.0868 18.925 13.0868 26.642H17.0868C17.0868 21.1377 21.5536 16.6724 27.0678 16.6724V12.6724ZM31.1106 13.2659C29.8283 12.8794 28.4705 12.6724 27.0678 12.6724V16.6724C28.0752 16.6724 29.0444 16.8209 29.9563 17.0957L31.1106 13.2659ZM40.3529 7.01355C35.2319 7.01355 30.8112 9.99735 28.7317 14.3126L32.3352 16.049C33.7724 13.0664 36.8241 11.0135 40.3529 11.0135V7.01355ZM53.2447 19.8949C53.2447 12.7789 47.471 7.01355 40.3529 7.01355V11.0135C45.2655 11.0135 49.2447 14.9917 49.2447 19.8949H53.2447Z" fill="#2823FB" mask="url(#path-4-inside-2_234_78)"/>
<path d="M27.3295 61.5146C27.3295 64.2129 25.1398 66.4019 22.4366 66.4019C19.7334 66.4019 17.5437 64.2129 17.5437 61.5146C17.5437 58.8164 19.7334 56.6274 22.4366 56.6274C25.1398 56.6274 27.3295 58.8164 27.3295 61.5146Z" fill="white" stroke="#2823FB" stroke-width="2"/>
<path fill-rule="evenodd" clip-rule="evenodd" d="M17.1064 64.0269C18.0498 66.0223 20.0824 67.4029 22.4379 67.4029C25.6924 67.4029 28.3308 64.7671 28.3308 61.5157C28.3308 60.2681 27.9423 59.1112 27.2797 58.159L17.1064 64.0269Z" fill="#E5ECFF"/>
<path d="M27.3295 61.5146C27.3295 64.2129 25.1398 66.4019 22.4366 66.4019C19.7334 66.4019 17.5437 64.2129 17.5437 61.5146C17.5437 58.8164 19.7334 56.6274 22.4366 56.6274C25.1398 56.6274 27.3295 58.8164 27.3295 61.5146Z" stroke="#2823FB" stroke-width="2"/>
<path d="M65.0229 5.88725C65.0229 8.5855 62.8331 10.7745 60.13 10.7745C57.4268 10.7745 55.2371 8.5855 55.2371 5.88725C55.2371 3.189 57.4268 1 60.13 1C62.8331 1 65.0229 3.189 65.0229 5.88725Z" fill="white" stroke="#2823FB" stroke-width="2"/>
<path fill-rule="evenodd" clip-rule="evenodd" d="M54.7985 8.39945C55.7419 10.3947 57.7744 11.7751 60.1297 11.7751C63.3843 11.7751 66.0226 9.13928 66.0226 5.88784C66.0226 4.64042 65.6343 3.48361 64.9718 2.53149L54.7985 8.39945Z" fill="#E5ECFF"/>
<path d="M65.0229 5.88725C65.0229 8.5855 62.8331 10.7745 60.13 10.7745C57.4268 10.7745 55.2371 8.5855 55.2371 5.88725C55.2371 3.189 57.4268 1 60.13 1C62.8331 1 65.0229 3.189 65.0229 5.88725Z" stroke="#2823FB" stroke-width="2"/>
<path d="M11.0978 66.3663C11.0978 67.8194 9.91844 68.9989 8.46166 68.9989C7.00488 68.9989 5.82556 67.8194 5.82556 66.3663C5.82556 64.9133 7.00488 63.7337 8.46166 63.7337C9.91844 63.7337 11.0978 64.9133 11.0978 66.3663Z" fill="white" stroke="#2823FB" stroke-width="2"/>
<path fill-rule="evenodd" clip-rule="evenodd" d="M5.16992 67.9163C5.75192 69.1477 7.00624 69.9998 8.45975 69.9998C10.4679 69.9998 12.0958 68.3734 12.0958 66.3671C12.0958 65.5972 11.8561 64.8832 11.4471 64.2957L5.16992 67.9163Z" fill="#E5ECFF"/>
<path d="M11.0978 66.3663C11.0978 67.8194 9.91844 68.9989 8.46166 68.9989C7.00488 68.9989 5.82556 67.8194 5.82556 66.3663C5.82556 64.9133 7.00488 63.7337 8.46166 63.7337C9.91844 63.7337 11.0978 64.9133 11.0978 66.3663Z" stroke="#2823FB" stroke-width="2"/>
</svg>
