<svg width="64" height="64" viewBox="0 0 54 64" fill="none" xmlns="http://www.w3.org/2000/svg">
<rect x="0.995883" y="0.995883" width="42.0082" height="58.0082" rx="3.92078" fill="white" stroke="#2823FB" stroke-width="1.99177"/>
<path d="M42 5V55.5396C42 56.8984 40.8984 58 39.5396 58H5L42 5Z" fill="#D6E1FF"/>
<rect x="8" y="14" width="20" height="2" rx="1" fill="#2823FB"/>
<rect x="8" y="31" width="20" height="2" rx="1" fill="#2823FB"/>
<rect x="9" y="19" width="26" height="6" rx="1" fill="#D6E1FF" stroke="#2823FB" stroke-width="2"/>
<rect x="9" y="36" width="26" height="6" rx="1" fill="#D6E1FF" stroke="#2823FB" stroke-width="2"/>
<path d="M42.5699 62.0999C42.2591 63.1906 41.6377 63.3464 41.1716 62.2557L34.18 45.2712C33.7139 44.1805 34.18 43.713 35.2676 44.1805L52.2028 51.1924C53.2903 51.6599 53.2903 52.2832 52.0474 52.5948L46.6095 53.9972C45.5219 54.3088 44.2789 55.5554 43.9682 56.6462L42.5699 62.0999Z" fill="white"/>
<path fill-rule="evenodd" clip-rule="evenodd" d="M35.0035 45.0053L41.793 61.4985L43.088 56.4479C43.09 56.4401 43.0921 56.4323 43.0943 56.4245C43.3067 55.679 43.805 54.9598 44.3646 54.3986C44.924 53.8376 45.6416 53.3372 46.3863 53.1238C46.3941 53.1216 46.402 53.1195 46.4098 53.1174L51.4543 51.8165L35.0035 45.0053ZM35.5468 43.2538C35.2124 43.1106 34.8605 43.0095 34.515 43.0006C34.1628 42.9916 33.7385 43.0806 33.4089 43.4112C33.0797 43.7413 32.9916 44.1652 33.0006 44.5165C33.0094 44.8617 33.1099 45.2136 33.2525 45.5487L40.3059 62.683L40.3106 62.6943C40.4542 63.0304 40.6422 63.3517 40.8975 63.5933C41.1628 63.8443 41.565 64.0602 42.0538 63.9848C42.5136 63.9138 42.8262 63.6172 43.0143 63.3573C43.2077 63.09 43.3434 62.7653 43.4394 62.4284C43.4416 62.4206 43.4437 62.4128 43.4457 62.405L44.8534 56.9147C44.9571 56.5609 45.2413 56.1055 45.6577 55.688C46.0742 55.2703 46.5277 54.9858 46.8792 54.8822L52.3476 53.472C52.3486 53.4717 52.3497 53.4714 52.3507 53.4712C52.7197 53.3784 53.0706 53.2458 53.3542 53.0489C53.6352 52.8538 53.9574 52.5141 53.9962 52.0075C54.0349 51.5036 53.7709 51.1217 53.5317 50.8905C53.2881 50.6551 52.9729 50.4742 52.6428 50.3323L35.5468 43.2538Z" fill="#2823FB"/>
</svg>
