<svg width="64" height="55" viewBox="0 0 67 55" fill="none" xmlns="http://www.w3.org/2000/svg">
<path d="M40.7255 30.6719L35.4074 27.8972L32.2551 39.9208L40.7255 30.6719Z" fill="#919CFF"/>
<path d="M30.0361 23.5668L31.3643 40.1521L34.4859 26.9723L57.6861 6.97687L30.0361 23.5668Z" fill="#E5ECFF"/>
<path d="M65.4718 2.00006L54.8354 36.6838L41.6556 30.4004M65.4718 2.00006L34.9501 27.2036M65.4718 2.00006L28.9382 23.0415M65.4718 2.00006L13.4462 19.5731L28.9382 23.0415M34.9501 27.2036L31.4817 41.5395M34.9501 27.2036L41.6556 30.4004M31.4817 41.5395L41.6556 30.4004M31.4817 41.5395L28.9382 23.0415" stroke="#2823FB" stroke-width="2.14614" stroke-linecap="round" stroke-linejoin="round"/>
<rect x="9.02649" y="21.463" width="2.212" height="9.62124" rx="1.106" transform="rotate(69.7557 9.02649 21.463)" fill="#12E8A8"/>
<rect x="17.5321" y="35.423" width="2.212" height="15.9284" rx="1.106" transform="rotate(54.2939 17.5321 35.423)" fill="#12E8A8"/>
<rect x="22.4891" y="31.8622" width="2.212" height="3.33353" rx="1.106" transform="rotate(54.2939 22.4891 31.8622)" fill="#12E8A8"/>
<rect x="40.151" y="40.8187" width="2.212" height="9.33576" rx="1.106" transform="rotate(35.9458 40.151 40.8187)" fill="#12E8A8"/>
<rect x="51.1539" y="45.134" width="2.212" height="9.62124" rx="1.106" transform="rotate(15 51.1539 45.134)" fill="#12E8A8"/>
<rect x="32.7662" y="51.0788" width="2.212" height="3.05867" rx="1.106" transform="rotate(35.9458 32.7662 51.0788)" fill="#12E8A8"/>
</svg>
