<svg width="137" height="30" viewBox="0 0 137 30" fill="none" xmlns="http://www.w3.org/2000/svg">
<path fill-rule="evenodd" clip-rule="evenodd" d="M22.188 0.847309V5.50751H14.0002V28.7892H8.18773V5.50751H0V0.847309H22.188ZM33.2475 28.7892C32.7454 28.7892 32.3624 28.7186 32.0985 28.5774C31.8346 28.4362 31.6189 28.1409 31.4516 27.6916L31.0267 26.4399C30.5247 26.8764 30.0387 27.2583 29.5688 27.5857C29.0989 27.913 28.6097 28.1891 28.1012 28.4137C27.5927 28.6384 27.052 28.8085 26.4791 28.924C25.9062 29.0396 25.2722 29.0973 24.577 29.0973C23.7016 29.0973 22.9034 28.9818 22.1825 28.7507C21.4615 28.5196 20.8404 28.1762 20.319 27.7205C19.7976 27.2647 19.3953 26.6966 19.1121 26.0162C18.8288 25.3358 18.6872 24.5527 18.6872 23.6669C18.6872 22.9351 18.8739 22.2066 19.2472 21.4812C19.6206 20.7558 20.261 20.0947 21.1686 19.4977C22.0762 18.9008 23.2864 18.4033 24.799 18.0053C26.3117 17.6073 28.2074 17.3827 30.486 17.3313V16.3107C30.486 15.0654 30.2221 14.1507 29.6943 13.5666C29.1665 12.9824 28.4069 12.6904 27.4156 12.6904C26.6818 12.6904 26.0703 12.777 25.5811 12.9503C25.0919 13.1237 24.6639 13.3098 24.297 13.5088C23.9301 13.7078 23.5857 13.8939 23.2639 14.0672C22.942 14.2406 22.5687 14.3272 22.1438 14.3272C21.7705 14.3272 21.4583 14.2341 21.2073 14.048C20.9562 13.8618 20.747 13.6404 20.5797 13.3836L19.6334 11.689C20.805 10.6363 22.0988 9.84997 23.5149 9.33002C24.931 8.81008 26.463 8.55011 28.1108 8.55011C29.2952 8.55011 30.3541 8.74268 31.2874 9.12782C32.2208 9.51297 33.0125 10.0489 33.6627 10.7358C34.3128 11.4226 34.8116 12.241 35.1592 13.1911C35.5068 14.1411 35.6806 15.1809 35.6806 16.3107V28.7892H33.2475ZM60.5562 9.01228L60.6335 0.0782368H65.5963V9.0508H79.7317V28.7892H74.4213V12.7481H65.5963V23.1084C65.5963 23.6605 65.7283 24.0969 65.9922 24.4179C66.2561 24.7388 66.6326 24.8993 67.1218 24.8993C67.3793 24.8993 67.5982 24.8704 67.7784 24.8127C67.9586 24.7549 68.1131 24.6907 68.2419 24.6201C68.3706 24.5495 68.4897 24.4853 68.5991 24.4275C68.7085 24.3698 68.8212 24.3409 68.9371 24.3409C69.0915 24.3409 69.2203 24.3762 69.3233 24.4468C69.4263 24.5174 69.5293 24.6361 69.6322 24.803L71.235 27.345C70.5012 27.9227 69.6709 28.3592 68.7439 28.6544C67.817 28.9497 66.8579 29.0973 65.8667 29.0973C64.9655 29.0973 64.1673 28.9658 63.4721 28.7026C62.7769 28.4394 62.1912 28.0639 61.7149 27.576C61.2385 27.0882 60.8781 26.4977 60.6335 25.8044C60.3889 25.1111 60.2666 24.328 60.2666 23.455V12.7481H54.8629L52.1278 16.1759C51.6772 16.7793 51.1558 17.2543 50.5636 17.6009C50.8597 17.8063 51.1172 18.0438 51.3361 18.3134C51.5549 18.583 51.7673 18.8847 51.9733 19.2185L58.1334 28.7892H53.3444C52.9324 28.7892 52.5784 28.7218 52.2823 28.587C51.9862 28.4522 51.7416 28.2115 51.5485 27.8649L47.0684 20.5665C46.8882 20.2584 46.7015 20.0594 46.5084 19.9695C46.3153 19.8797 46.0256 19.8347 45.6394 19.8347H44.5194V28.7892H39.1896V0.0770281H44.5194V16.3685H45.4077C45.7424 16.3685 46.0063 16.3203 46.1994 16.224C46.3925 16.1277 46.5856 15.9512 46.7787 15.6945L51.1816 9.91736C51.4004 9.62209 51.6482 9.39742 51.925 9.24337C52.2018 9.08931 52.5526 9.01228 52.9775 9.01228H60.5562ZM25.6342 25.5155C26.5097 25.5155 27.2756 25.3583 27.9322 25.0437C28.5888 24.7292 29.2389 24.2446 29.8826 23.5898V20.5087C28.5823 20.5601 27.5009 20.6692 26.6384 20.8361C25.7758 21.003 25.0903 21.2116 24.5818 21.4619C24.0733 21.7123 23.7128 22.0011 23.5004 22.3285C23.288 22.6559 23.1818 23.0121 23.1818 23.3973C23.1818 24.1676 23.3974 24.7132 23.8287 25.0341C24.26 25.3551 24.8618 25.5155 25.6342 25.5155ZM80.5621 3.25444C80.5621 3.69093 80.472 4.10495 80.2917 4.49651C80.1115 4.88807 79.8701 5.22828 79.5676 5.51713C79.265 5.80599 78.911 6.03707 78.5055 6.21039C78.1 6.3837 77.6655 6.47036 77.202 6.47036C76.7643 6.47036 76.3491 6.3837 75.9565 6.21039C75.5638 6.03707 75.2195 5.80599 74.9234 5.51713C74.6273 5.22828 74.3923 4.88807 74.2185 4.49651C74.0447 4.10495 73.9578 3.69093 73.9578 3.25444C73.9578 2.8051 74.0447 2.38466 74.2185 1.9931C74.3923 1.60154 74.6273 1.25813 74.9234 0.962851C75.2195 0.667575 75.5638 0.433284 75.9565 0.25997C76.3491 0.0866557 76.7643 0 77.202 0C77.6655 0 78.1 0.0866557 78.5055 0.25997C78.911 0.433284 79.265 0.667575 79.5676 0.962851C79.8701 1.25813 80.1115 1.60154 80.2917 1.9931C80.472 2.38466 80.5621 2.8051 80.5621 3.25444ZM88.9567 0.0782368V16.3685H89.845C90.1797 16.3685 90.4436 16.3203 90.6367 16.224C90.8298 16.1277 91.0229 15.9512 91.2161 15.6945L95.6189 9.84033C95.8378 9.54506 96.0856 9.3204 96.3624 9.16634C96.6391 9.01228 96.99 8.93526 97.4148 8.93526H102.281L96.5651 16.1759C96.1145 16.7793 95.5931 17.2543 95.001 17.6009C95.2971 17.8063 95.5545 18.0438 95.7734 18.3134C95.9922 18.583 96.2047 18.8847 96.4106 19.2185L102.571 28.7892H97.7817C97.3697 28.7892 97.0157 28.7218 96.7196 28.587C96.4235 28.4522 96.1789 28.2115 95.9858 27.8649L91.5057 20.5665C91.3255 20.2584 91.1388 20.0594 90.9457 19.9695C90.7526 19.8797 90.4629 19.8347 90.0767 19.8347H88.9567V28.7892H83.627V0.0782368H88.9567ZM117.203 28.7892C116.701 28.7892 116.318 28.7186 116.054 28.5774C115.79 28.4362 115.574 28.1409 115.407 27.6916L114.982 26.4399C114.48 26.8764 113.994 27.2583 113.524 27.5857C113.054 27.913 112.565 28.1891 112.056 28.4137C111.548 28.6384 111.007 28.8085 110.434 28.924C109.861 29.0396 109.227 29.0973 108.532 29.0973C107.657 29.0973 106.859 28.9818 106.138 28.7507C105.417 28.5196 104.796 28.1762 104.274 27.7205C103.753 27.2647 103.351 26.6966 103.067 26.0162C102.784 25.3358 102.642 24.5527 102.642 23.6669C102.642 22.9351 102.829 22.2066 103.202 21.4812C103.576 20.7558 104.216 20.0947 105.124 19.4977C106.032 18.9008 107.242 18.4033 108.754 18.0053C110.267 17.6073 112.163 17.3827 114.441 17.3313V16.3107C114.441 15.0654 114.177 14.1507 113.65 13.5666C113.122 12.9824 112.362 12.6904 111.371 12.6904C110.637 12.6904 110.026 12.777 109.536 12.9503C109.047 13.1237 108.619 13.3098 108.252 13.5088C107.885 13.7078 107.541 13.8939 107.219 14.0672C106.897 14.2406 106.524 14.3272 106.099 14.3272C105.726 14.3272 105.414 14.2341 105.163 14.048C104.911 13.8618 104.702 13.6404 104.535 13.3836L103.589 11.689C104.76 10.6363 106.054 9.84997 107.47 9.33002C108.886 8.81008 110.418 8.55011 112.066 8.55011C113.25 8.55011 114.309 8.74268 115.243 9.12782C116.176 9.51297 116.968 10.0489 117.618 10.7358C118.268 11.4226 118.767 12.241 119.114 13.1911C119.462 14.1411 119.636 15.1809 119.636 16.3107V28.7892H117.203ZM110.193 25.5155C111.068 25.5155 111.834 25.3583 112.491 25.0437C113.147 24.7292 113.798 24.2446 114.441 23.5898V20.5087C113.141 20.5601 112.06 20.6692 111.197 20.8361C110.335 21.003 109.649 21.2116 109.141 21.4619C108.632 21.7123 108.272 22.0011 108.059 22.3285C107.847 22.6559 107.74 23.0121 107.74 23.3973C107.74 24.1676 107.956 24.7132 108.387 25.0341C108.819 25.3551 109.421 25.5155 110.193 25.5155ZM128.513 0.0770281V28.7892H123.184V0.0770281H128.513Z" fill="#474747"/>
<path opacity="0.4" fill-rule="evenodd" clip-rule="evenodd" d="M130.938 26.0756C130.938 25.6576 131.015 25.2617 131.17 24.8879C131.325 24.5142 131.539 24.1912 131.812 23.9188C132.084 23.6464 132.404 23.4311 132.769 23.2727C133.135 23.1143 133.535 23.0352 133.969 23.0352C134.39 23.0352 134.787 23.1143 135.159 23.2727C135.531 23.4311 135.853 23.6464 136.126 23.9188C136.398 24.1912 136.612 24.5142 136.767 24.8879C136.922 25.2617 137 25.6576 137 26.0756C137 26.5064 136.922 26.9054 136.767 27.2728C136.612 27.6402 136.398 27.9601 136.126 28.2325C135.853 28.5048 135.531 28.717 135.159 28.8691C134.787 29.0211 134.39 29.0971 133.969 29.0971C133.535 29.0971 133.135 29.0211 132.769 28.8691C132.404 28.717 132.084 28.5048 131.812 28.2325C131.539 27.9601 131.325 27.6402 131.17 27.2728C131.015 26.9054 130.938 26.5064 130.938 26.0756Z" fill="#474747"/>
</svg>
