<svg width="132" height="28" viewBox="0 0 132 28" fill="none" xmlns="http://www.w3.org/2000/svg">
<path fill-rule="evenodd" clip-rule="evenodd" d="M21.3512 0.815354V5.2998H13.4723V27.7035H7.87895V5.2998H0V0.815354H21.3512ZM31.9936 27.7035C31.5105 27.7035 31.1419 27.6356 30.888 27.4997C30.634 27.3638 30.4265 27.0796 30.2655 26.6473L29.8566 25.4428C29.3735 25.8628 28.9058 26.2303 28.4537 26.5453C28.0015 26.8604 27.5307 27.126 27.0414 27.3422C26.5521 27.5584 26.0318 27.722 25.4805 27.8332C24.9292 27.9444 24.3191 28 23.6501 28C22.8077 28 22.0396 27.8888 21.3459 27.6665C20.6521 27.4441 20.0544 27.1136 19.5527 26.6751C19.051 26.2365 18.6638 25.6898 18.3913 25.0351C18.1187 24.3803 17.9825 23.6267 17.9825 22.7743C17.9825 22.0702 18.1621 21.3691 18.5214 20.6711C18.8806 19.9731 19.4969 19.3369 20.3703 18.7624C21.2437 18.188 22.4082 17.7092 23.8638 17.3263C25.3194 16.9433 27.1436 16.7271 29.3363 16.6777V15.6956C29.3363 14.4972 29.0824 13.617 28.5745 13.0549C28.0665 12.4928 27.3356 12.2118 26.3817 12.2118C25.6756 12.2118 25.0872 12.2952 24.6164 12.4619C24.1456 12.6287 23.7337 12.8079 23.3807 12.9993C23.0276 13.1908 22.6962 13.37 22.3865 13.5367C22.0768 13.7035 21.7175 13.7869 21.3087 13.7869C20.9495 13.7869 20.6491 13.6973 20.4075 13.5182C20.1659 13.3391 19.9646 13.126 19.8036 12.8789L18.893 11.2482C20.0204 10.2352 21.2654 9.4785 22.6281 8.97816C23.9908 8.47783 25.465 8.22766 27.0507 8.22766C28.1904 8.22766 29.2094 8.41297 30.1075 8.78359C31.0057 9.15421 31.7675 9.66997 32.3931 10.3309C33.0188 10.9918 33.4988 11.7794 33.8333 12.6936C34.1678 13.6078 34.335 14.6084 34.335 15.6956V27.7035H31.9936ZM58.2725 8.6724L58.3468 0.0752862H63.1225V8.70947H76.7248V27.7035H71.6147V12.2674H63.1225V22.2369C63.1225 22.7682 63.2495 23.1882 63.5034 23.497C63.7574 23.8059 64.1198 23.9603 64.5905 23.9603C64.8383 23.9603 65.0489 23.9325 65.2223 23.8769C65.3958 23.8213 65.5444 23.7595 65.6683 23.6916C65.7922 23.6237 65.9068 23.5619 66.0121 23.5063C66.1174 23.4507 66.2258 23.4229 66.3373 23.4229C66.4859 23.4229 66.6098 23.4569 66.7089 23.5248C66.808 23.5928 66.9071 23.707 67.0062 23.8676L68.5486 26.3137C67.8424 26.8696 67.0434 27.2897 66.1514 27.5738C65.2595 27.8579 64.3366 28 63.3827 28C62.5155 28 61.7474 27.8734 61.0784 27.6201C60.4095 27.3669 59.8458 27.0055 59.3874 26.5361C58.9291 26.0666 58.5822 25.4984 58.3468 24.8312C58.1114 24.1641 57.9938 23.4106 57.9938 22.5705V12.2674H52.7938L50.1619 15.5659C49.7283 16.1465 49.2266 16.6036 48.6567 16.9371C48.9417 17.1348 49.1894 17.3633 49.4 17.6228C49.6106 17.8822 49.8151 18.1725 50.0133 18.4937L55.9411 27.7035H51.3326C50.9362 27.7035 50.5955 27.6387 50.3106 27.5089C50.0257 27.3792 49.7903 27.1476 49.6045 26.814L45.2933 19.7909C45.1199 19.4944 44.9403 19.3029 44.7544 19.2164C44.5686 19.1299 44.2899 19.0867 43.9182 19.0867H42.8405V27.7035H37.7117V0.0741231H42.8405V15.7512H43.6952C44.0173 15.7512 44.2713 15.7048 44.4571 15.6122C44.6429 15.5195 44.8288 15.3497 45.0146 15.1026L49.2514 9.54335C49.462 9.25921 49.7005 9.04302 49.9668 8.89477C50.2332 8.74653 50.5707 8.6724 50.9796 8.6724H58.2725ZM24.6675 24.5533C25.5099 24.5533 26.247 24.4019 26.8788 24.0993C27.5106 23.7966 28.1362 23.3303 28.7556 22.7002V19.7353C27.5044 19.7847 26.4638 19.8897 25.6338 20.0503C24.8038 20.2109 24.1441 20.4116 23.6548 20.6526C23.1654 20.8935 22.8186 21.1714 22.6141 21.4864C22.4097 21.8015 22.3075 22.1443 22.3075 22.5149C22.3075 23.2561 22.515 23.7812 22.93 24.09C23.3451 24.3989 23.9242 24.5533 24.6675 24.5533ZM77.5239 3.1317C77.5239 3.55173 77.4372 3.95014 77.2637 4.32694C77.0903 4.70373 76.858 5.0311 76.5669 5.30907C76.2758 5.58703 75.9351 5.8094 75.5449 5.97618C75.1546 6.14295 74.7365 6.22634 74.2905 6.22634C73.8693 6.22634 73.4698 6.14295 73.092 5.97618C72.7141 5.8094 72.3827 5.58703 72.0978 5.30907C71.8129 5.0311 71.5868 4.70373 71.4196 4.32694C71.2523 3.95014 71.1687 3.55173 71.1687 3.1317C71.1687 2.69931 71.2523 2.29473 71.4196 1.91794C71.5868 1.54114 71.8129 1.21068 72.0978 0.926539C72.3827 0.642399 72.7141 0.416943 73.092 0.250165C73.4698 0.0833877 73.8693 0 74.2905 0C74.7365 0 75.1546 0.0833877 75.5449 0.250165C75.9351 0.416943 76.2758 0.642399 76.5669 0.926539C76.858 1.21068 77.0903 1.54114 77.2637 1.91794C77.4372 2.29473 77.5239 2.69931 77.5239 3.1317ZM85.6019 0.0752862V15.7512H86.4567C86.7788 15.7512 87.0328 15.7048 87.2186 15.6122C87.4044 15.5195 87.5902 15.3497 87.7761 15.1026L92.0129 9.46923C92.2235 9.18509 92.4619 8.9689 92.7283 8.82065C92.9946 8.6724 93.3322 8.59828 93.741 8.59828H98.4238L92.9234 15.5659C92.4898 16.1465 91.9881 16.6036 91.4182 16.9371C91.7032 17.1348 91.9509 17.3633 92.1615 17.6228C92.3721 17.8822 92.5765 18.1725 92.7747 18.4937L98.7025 27.7035H94.0941C93.6977 27.7035 93.357 27.6387 93.0721 27.5089C92.7871 27.3792 92.5518 27.1476 92.3659 26.814L88.0548 19.7909C87.8814 19.4944 87.7017 19.3029 87.5159 19.2164C87.3301 19.1299 87.0514 19.0867 86.6797 19.0867H85.6019V27.7035H80.4732V0.0752862H85.6019ZM112.783 27.7035C112.3 27.7035 111.931 27.6356 111.677 27.4997C111.423 27.3638 111.216 27.0796 111.055 26.6473L110.646 25.4428C110.163 25.8628 109.695 26.2303 109.243 26.5453C108.791 26.8604 108.32 27.126 107.83 27.3422C107.341 27.5584 106.821 27.722 106.27 27.8332C105.718 27.9444 105.108 28 104.439 28C103.597 28 102.829 27.8888 102.135 27.6665C101.441 27.4441 100.843 27.1136 100.342 26.6751C99.84 26.2365 99.4529 25.6898 99.1804 25.0351C98.9078 24.3803 98.7716 23.6267 98.7716 22.7743C98.7716 22.0702 98.9512 21.3691 99.3104 20.6711C99.6697 19.9731 100.286 19.3369 101.159 18.7624C102.033 18.188 103.197 17.7092 104.653 17.3263C106.109 16.9433 107.933 16.7271 110.125 16.6777V15.6956C110.125 14.4972 109.871 13.617 109.364 13.0549C108.856 12.4928 108.125 12.2118 107.171 12.2118C106.465 12.2118 105.876 12.2952 105.405 12.4619C104.935 12.6287 104.523 12.8079 104.17 12.9993C103.817 13.1908 103.485 13.37 103.176 13.5367C102.866 13.7035 102.507 13.7869 102.098 13.7869C101.739 13.7869 101.438 13.6973 101.197 13.5182C100.955 13.3391 100.754 13.126 100.593 12.8789L99.6821 11.2482C100.809 10.2352 102.054 9.4785 103.417 8.97816C104.78 8.47783 106.254 8.22766 107.84 8.22766C108.98 8.22766 109.998 8.41297 110.897 8.78359C111.795 9.15421 112.557 9.66997 113.182 10.3309C113.808 10.9918 114.288 11.7794 114.622 12.6936C114.957 13.6078 115.124 14.6084 115.124 15.6956V27.7035H112.783ZM106.037 24.5533C106.88 24.5533 107.617 24.4019 108.249 24.0993C108.88 23.7966 109.506 23.3303 110.125 22.7002V19.7353C108.874 19.7847 107.834 19.8897 107.004 20.0503C106.174 20.2109 105.514 20.4116 105.025 20.6526C104.535 20.8935 104.188 21.1714 103.984 21.4864C103.78 21.8015 103.677 22.1443 103.677 22.5149C103.677 23.2561 103.885 23.7812 104.3 24.09C104.715 24.3989 105.294 24.5533 106.037 24.5533ZM123.667 0.0741231V27.7035H118.538V0.0741231H123.667Z" fill="#1B223A"/>
<path fill-rule="evenodd" clip-rule="evenodd" d="M126 25.0518C126 24.6495 126.074 24.2685 126.223 23.9089C126.372 23.5493 126.578 23.2384 126.841 22.9763C127.103 22.7142 127.41 22.5069 127.762 22.3546C128.114 22.2022 128.499 22.126 128.916 22.126C129.322 22.126 129.704 22.2022 130.061 22.3546C130.419 22.5069 130.729 22.7142 130.992 22.9763C131.254 23.2384 131.46 23.5493 131.609 23.9089C131.758 24.2685 131.833 24.6495 131.833 25.0518C131.833 25.4663 131.758 25.8503 131.609 26.2038C131.46 26.5574 131.254 26.8652 130.992 27.1273C130.729 27.3894 130.419 27.5936 130.061 27.7399C129.704 27.8862 129.322 27.9593 128.916 27.9593C128.499 27.9593 128.114 27.8862 127.762 27.7399C127.41 27.5936 127.103 27.3894 126.841 27.1273C126.578 26.8652 126.372 26.5574 126.223 26.2038C126.074 25.8503 126 25.4663 126 25.0518Z" fill="#12E8A8"/>
</svg>
