<svg width="64" height="64" viewBox="0 0 64 64" fill="none" xmlns="http://www.w3.org/2000/svg">
<g clip-path="url(#clip0_603_4)">
<path d="M32 63C49.1208 63 63 49.1208 63 32C63 14.8792 49.1208 1 32 1C14.8792 1 1 14.8792 1 32C1 49.1208 14.8792 63 32 63Z" fill="#EEF3FF" stroke="#2823FB" stroke-width="2"/>
<path d="M40.4013 50.712L39.7687 53.5108C37.8712 54.3214 36.3557 54.9385 35.2271 55.3627C34.0972 55.7884 32.7844 56 31.2887 56C28.9917 56 27.205 55.3909 25.9307 54.1809C24.6565 52.9663 24.0191 51.4271 24.0191 49.5599C24.0191 48.8368 24.0654 48.0932 24.1615 47.3359C24.2585 46.5773 24.4127 45.7232 24.6236 44.7686L26.9948 35.6832C27.2058 34.8132 27.3851 33.989 27.5288 33.2094C27.6743 32.4347 27.7446 31.722 27.7446 31.0804C27.7446 29.9201 27.5227 29.1086 27.0808 28.6523C26.6391 28.1973 25.796 27.9663 24.5445 27.9663C23.9315 27.9663 23.3015 28.0726 22.6593 28.2781C22.0142 28.4845 21.4629 28.6839 21 28.8693L21.6341 26.0683C23.1875 25.3836 24.6723 24.7974 26.0926 24.3108C27.5129 23.8228 28.8549 23.5787 30.1243 23.5787C32.4055 23.5787 34.1658 24.1755 35.4019 25.3691C36.6381 26.5636 37.2559 28.1121 37.2559 30.0203C37.2559 30.415 37.2153 31.1107 37.1281 32.105C37.0428 33.1014 36.8844 34.0144 36.6531 34.8448L34.2919 43.8936C34.0984 44.6207 33.9244 45.4515 33.7731 46.3865C33.6169 47.3151 33.5423 48.0249 33.5423 48.5009C33.5423 49.7026 33.7897 50.5227 34.2858 50.9588C34.7857 51.3949 35.6466 51.612 36.8694 51.612C37.4434 51.612 38.0966 51.5018 38.8222 51.2853C39.5459 51.0688 40.0738 50.8786 40.4013 50.712ZM41 12.7222C41 14.2988 40.4513 15.6453 39.3481 16.7524C38.2478 17.8635 36.9222 18.4194 35.3711 18.4194C33.8153 18.4194 32.4863 17.8635 31.3734 16.7524C30.2627 15.6448 29.7061 14.2988 29.7061 12.7222C29.7061 11.1487 30.2627 9.80007 31.3734 8.6789C32.4842 7.55949 33.8157 7 35.3711 7C36.9216 7 38.2478 7.56081 39.3481 8.6789C40.4519 9.80007 41 11.1492 41 12.7222Z" fill="white" stroke="#2823FB" stroke-width="2" stroke-linejoin="round"/>
</g>
<defs>
<clipPath id="clip0_603_4">
<rect width="64" height="64" fill="white"/>
</clipPath>
</defs>
</svg>
