<svg width="64" height="64" viewBox="0 0 64 64" fill="none" xmlns="http://www.w3.org/2000/svg">
<rect x="1" y="1" width="53" height="52" rx="3.59246" fill="white" stroke="#2823FB" stroke-width="2"/>
<rect x="8" y="14" width="39" height="7" rx="1.29623" fill="#D6E1FF" stroke="#2823FB" stroke-width="2"/>
<rect x="8" y="26" width="39" height="7" rx="1.29623" fill="#D6E1FF" stroke="#2823FB" stroke-width="2"/>
<rect x="8" y="38" width="39" height="7" rx="1.29623" fill="#D6E1FF" stroke="#2823FB" stroke-width="2"/>
<rect x="2" y="2" width="51" height="5" fill="#2823FB"/>
<circle cx="6.5" cy="3.5" r="1.5" fill="white"/>
<circle cx="11.5" cy="3.5" r="1.5" fill="white"/>
<circle cx="16.5" cy="3.5" r="1.5" fill="white"/>
<path d="M51.472 62.0051C51.1285 63.2107 50.4416 63.3829 49.9265 62.1773L42.1989 43.4051C41.6838 42.1995 42.1989 41.6828 43.401 42.1995L62.1188 49.9495C63.3209 50.4662 63.3209 51.1551 61.9471 51.4995L55.9368 53.0495C54.7347 53.394 53.3609 54.7718 53.0175 55.9773L51.472 62.0051Z" fill="white"/>
<path fill-rule="evenodd" clip-rule="evenodd" d="M43.1944 43.1963L50.6305 61.2606L52.0488 55.7289C52.051 55.7204 52.0533 55.7118 52.0557 55.7033C52.2884 54.8868 52.8341 54.0991 53.447 53.4844C54.0597 52.8699 54.8457 52.3219 55.6613 52.0882C55.6699 52.0857 55.6784 52.0834 55.6871 52.0812L61.212 50.6564L43.1944 43.1963ZM43.7893 41.278C43.4231 41.1212 43.0377 41.0104 42.6593 41.0007C42.2735 40.9908 41.8089 41.0882 41.4478 41.4503C41.0873 41.8119 40.9908 42.2762 41.0007 42.661C41.0103 43.039 41.1204 43.4245 41.2766 43.7915L49.0017 62.558L49.0069 62.5703C49.1642 62.9384 49.3701 63.2904 49.6497 63.5549C49.9402 63.8298 50.3808 64.0663 50.9161 63.9837C51.4197 63.906 51.7621 63.5811 51.9681 63.2964C52.1799 63.0037 52.3286 62.6481 52.4337 62.2791C52.4361 62.2706 52.4384 62.262 52.4406 62.2535L53.9824 56.2401C54.096 55.8527 54.4073 55.3539 54.8633 54.8966C55.3194 54.4391 55.8162 54.1276 56.2011 54.0141L62.1903 52.4695C62.1915 52.4692 62.1926 52.4689 62.1938 52.4686C62.5978 52.367 62.9822 52.2218 63.2929 52.0061C63.6006 51.7924 63.9534 51.4204 63.996 50.8656C64.0383 50.3137 63.7492 49.8953 63.4872 49.6421C63.2204 49.3843 62.8752 49.1862 62.5137 49.0308L43.7893 41.278Z" fill="#2823FB"/>
</svg>
