<svg
  width="1289"
  height="763"
  viewBox="0 0 1289 763"
  fill="none"
  xmlns="http://www.w3.org/2000/svg"
  id="plane"
>
  <g id="Group 72">
    <g id="paper">
      <g>
        <path
          id='paper'
          d="M639.798 176.687L579.717 216.104L567.722 189.803L538.192 193.892L557.792 162.448L538.726 137.509L639.798 176.687Z"
          fill="white"
        />
        <path
          d="M639.798 176.687L579.717 216.104L567.722 189.803M639.798 176.687L557.792 162.448M639.798 176.687L538.726 137.509L557.792 162.448M561.62 176.422L614.479 176.421M561.62 176.422L538.192 193.892M561.62 176.422L567.722 189.803M538.192 193.892L567.722 189.803M538.192 193.892L557.792 162.448"
          stroke="#4550E5"
          stroke-width="3.17918"
          stroke-linecap="round"
          stroke-linejoin="round"
        />
      </g>
      <path
        id="paper"
        d="M566.373 188.686L561.571 177.76L542.309 191.89L566.373 188.686Z"
        fill="#C1CBFF"
      />
      <path
        id="Vector_2"
        d="M558.467 163.323L542.977 188.49L561.376 175.366L623.784 175.364L558.467 163.323Z"
        fill="#7A59FF"
        fill-opacity="0.66"
      />
      <path
        id="Vector 2"
        d="M529.275 134.017C523.403 131.769 517.145 129.031 512.583 127.319"
        stroke="#12E8A8"
        stroke-width="3.17918"
        stroke-linecap="round"
        stroke-linejoin="round"
      />
      <path
        id="Vector 2.2"
        d="M515.449 169.213C506.343 167.512 494.759 165.336 487.03 164.136"
        stroke="#12E8A8"
        stroke-width="3.17918"
        stroke-linecap="round"
        stroke-linejoin="round"
      />
      <path
        id="Vector 2.3"
        d="M541.401 174.795C539.272 174.195 530.877 172.824 526.945 172.213"
        stroke="#12E8A8"
        stroke-width="3.17918"
        stroke-linecap="round"
        stroke-linejoin="round"
      />
      <path
        id="Vector 2.1"
        d="M573.08 219.801C564.612 224.711 553.5 231.608 544.858 236.972"
        stroke="#12E8A8"
        stroke-width="3.17918"
        stroke-linecap="round"
        stroke-linejoin="round"
      />
      <path
        id="Vector 2.4"
        d="M551.754 201.814C541.736 204.544 528.467 208.591 518.146 211.739"
        stroke="#12E8A8"
        stroke-width="3.17918"
        stroke-linecap="round"
        stroke-linejoin="round"
      />
      <path
        id="spark-1"
        d="M508.019 215.722C504.009 216.815 498.697 218.435 494.565 219.696"
        stroke="#12E8A8"
        stroke-width="3.17918"
        stroke-linecap="round"
        stroke-linejoin="round"
      />
    </g>
    <g id="Group 70.1">
      <g id="BG">
        <path
          id="Fill 1"
          fill-rule="evenodd"
          clip-rule="evenodd"
          d="M162.045 525.635L255.746 343.579C263.329 371.671 297.442 386.17 291.252 406.739C285.059 427.307 270.923 407.013 262.339 424.85C253.754 442.687 281.645 483.014 261.054 503.465C246.104 518.313 229.462 497.583 208.437 503.575C187.412 509.568 199.063 540.544 176.78 533.87C171.146 532.181 166.244 529.297 162.045 525.635Z"
          fill="#B3D1FF"
        />
        <path
          id="Fill 3"
          fill-rule="evenodd"
          clip-rule="evenodd"
          d="M214.217 207.693L197.512 524.631C170.522 525.07 149.974 516.31 148.798 505.209C145.919 478.084 170.204 478.207 170.328 464.151C170.531 441.856 132.587 444.418 129.509 419.04C126.436 393.663 152.924 394.27 153.729 370.494C154.535 346.72 105.269 318.968 117.801 285.801C126.901 261.72 154.715 274.719 174.58 256.761C194.444 238.802 167.156 212.113 194.393 206.996C201.279 205.702 207.943 206.09 214.217 207.693Z"
          fill="#DBECFF"
        />
        <path
          id="Fill 5"
          fill-rule="evenodd"
          clip-rule="evenodd"
          d="M86.3451 346.837C57.2898 326.341 17.5313 356.55 0 377.226L189.555 544.622C199.471 525.37 197.228 500.705 190.349 490.953C181.166 477.937 159.537 493.762 151.458 476.346C143.385 458.929 178.942 437.322 165.554 416.091C156.664 401.985 96.3887 402.591 91.2363 398.921C71.5671 384.918 110.484 363.864 86.3451 346.837Z"
          fill="#CAE1FF"
        />
        <path
          id="Fill 7"
          fill-rule="evenodd"
          clip-rule="evenodd"
          d="M210.29 587.39H153.28C152.852 587.39 152.425 587.383 152.001 587.367C126.006 586.392 111.543 553.392 126.266 529.585L139.326 508.466H224.244L237.304 529.585C252.027 553.392 237.564 586.392 211.569 587.367C211.144 587.383 210.718 587.39 210.29 587.39Z"
          fill="#EBF5FF"
        />
        <path
          id="Stroke 9"
          d="M120.374 557.043H243.196"
          stroke="#B3D1FF"
          stroke-width="6.45239"
        />
        <path
          id="Stroke 11"
          d="M123.227 536.63H240.742"
          stroke="#B3D1FF"
          stroke-width="6.45239"
        />
        <path
          id="Fill 13"
          fill-rule="evenodd"
          clip-rule="evenodd"
          d="M1169.07 505.121L1254.75 256.851C1261.93 290.642 1293.58 301.894 1287.96 329.043C1282.35 356.191 1269.15 333.554 1261.31 357.757C1253.47 381.959 1279.5 426.983 1260.56 456.935C1246.81 478.682 1231.3 456.008 1211.88 467.857C1192.45 479.706 1203.41 516.294 1182.75 512.462C1177.53 511.493 1172.98 508.868 1169.07 505.121Z"
          fill="#B3D1FF"
        />
        <path
          id="Fill 15"
          fill-rule="evenodd"
          clip-rule="evenodd"
          d="M1161.61 494.868L1072.78 257.34C1053.74 264.307 1041.46 276.559 1043.34 285.356C1047.92 306.851 1064.92 300.185 1068.43 310.885C1073.99 327.857 1046.75 336.169 1050.77 356.382C1054.79 376.596 1073.22 368.964 1079.57 386.904C1085.92 404.843 1058.11 439.369 1074.97 461.308C1087.21 477.236 1103.56 459.781 1121.86 468.121C1140.17 476.461 1127.52 504.227 1147.87 500.765C1153.01 499.89 1157.59 497.79 1161.61 494.868Z"
          fill="#CAE1FF"
        />
        <path
          id="Fill 17"
          fill-rule="evenodd"
          clip-rule="evenodd"
          d="M1121.48 451.61C1125.07 496.187 1173.44 505.11 1200.25 502.469L1201.94 181.54C1181.14 189.79 1164.2 213.866 1161.39 228.8C1157.65 248.732 1183.51 254.13 1175.77 277C1168.02 299.865 1128.8 287.05 1121.66 318.126C1116.92 338.769 1156.54 392.694 1157.15 400.63C1159.48 430.922 1118.49 414.576 1121.48 451.61Z"
          fill="#DBECFF"
        />
        <path
          id="Fill 19"
          fill-rule="evenodd"
          clip-rule="evenodd"
          d="M1227.76 587.393H1119.13C1105.67 587.393 1094.76 576.443 1094.76 562.934L1109.63 471.984H1237.26L1252.13 562.934C1252.13 576.443 1241.22 587.393 1227.76 587.393Z"
          fill="#EBF5FF"
        />
        <path
          id="Fill 21"
          fill-rule="evenodd"
          clip-rule="evenodd"
          d="M1116.78 549.329H1153.24V512.734H1116.78V549.329Z"
          fill="#DBECFF"
        />
        <path
          id="Fill 23"
          fill-rule="evenodd"
          clip-rule="evenodd"
          d="M1195.9 556.911L1170.11 531.035L1195.9 505.159L1221.68 531.035L1195.9 556.911Z"
          fill="#DBECFF"
        />
        <path
          id="Fill 29"
          fill-rule="evenodd"
          clip-rule="evenodd"
          d="M331.744 272.347H471.324V153.544H331.744V272.347Z"
          fill="#DBECFF"
        />
        <path
          id="Stroke 30"
          fill-rule="evenodd"
          clip-rule="evenodd"
          d="M331.744 272.347H471.324V153.544H331.744V272.347Z"
          stroke="#DBECFF"
          stroke-width="3.58466"
        />
        <path
          id="Fill 31"
          fill-rule="evenodd"
          clip-rule="evenodd"
          d="M323.538 272.505H463.117V153.702H323.538V272.505Z"
          fill="white"
        />
        <path
          id="Stroke 32"
          fill-rule="evenodd"
          clip-rule="evenodd"
          d="M323.538 272.505H463.117V153.702H323.538V272.505Z"
          stroke="#DBECFF"
          stroke-width="3.58466"
        />
        <path
          id="Fill 33"
          fill-rule="evenodd"
          clip-rule="evenodd"
          d="M347.311 247.956H437.355V177.922H347.311V247.956Z"
          fill="#DBECFF"
        />
        <path
          id="Fill 39"
          fill-rule="evenodd"
          clip-rule="evenodd"
          d="M841.423 141.569H931.043V0H841.423V141.569Z"
          fill="#DBECFF"
        />
        <path
          id="Stroke 40"
          d="M927.79 1.79233V139.776H841.754V1.79233H927.79Z"
          stroke="#DBECFF"
          stroke-width="3.58466"
        />
        <path
          id="Fill 41"
          fill-rule="evenodd"
          clip-rule="evenodd"
          d="M755.051 141.569H923.009V0H755.051V141.569Z"
          fill="white"
        />
        <path
          id="Stroke 42"
          d="M921.217 1.79233V139.776H756.844V1.79233H921.217Z"
          stroke="#DBECFF"
          stroke-width="3.58466"
        />
        <path
          id="Fill 43"
          fill-rule="evenodd"
          clip-rule="evenodd"
          d="M770.513 126.17H907.551V15.4033H770.513V126.17Z"
          fill="white"
        />
        <path
          id="Stroke 44"
          fill-rule="evenodd"
          clip-rule="evenodd"
          d="M770.513 126.17H907.551V15.4033H770.513V126.17Z"
          stroke="#DBECFF"
          stroke-width="3.58466"
        />
        <path
          id="Fill 45"
          fill-rule="evenodd"
          clip-rule="evenodd"
          d="M799.104 102.935H878.958V38.6221H799.104V102.935Z"
          fill="#B3D1FF"
        />
        <path
          id="Fill 87"
          fill-rule="evenodd"
          clip-rule="evenodd"
          d="M311.216 543.033H936.556V439.128H311.216V543.033Z"
          fill="#CAE1FF"
        />
        <path
          id="Fill 88"
          fill-rule="evenodd"
          clip-rule="evenodd"
          d="M327.373 531.92H428.327V450.243H327.373V531.92Z"
          fill="#DBECFF"
        />
        <path
          id="Fill 89"
          fill-rule="evenodd"
          clip-rule="evenodd"
          d="M449.589 484.951H550.543V450.243H449.589V484.951Z"
          fill="#DBECFF"
        />
        <path
          id="Fill 90"
          fill-rule="evenodd"
          clip-rule="evenodd"
          d="M449.589 531.923H550.543V497.215H449.589V531.923Z"
          fill="#DBECFF"
        />
        <path
          id="Fill 91"
          fill-rule="evenodd"
          clip-rule="evenodd"
          d="M816.226 484.951H917.181V450.243H816.226V484.951Z"
          fill="#DBECFF"
        />
        <path
          id="Fill 92"
          fill-rule="evenodd"
          clip-rule="evenodd"
          d="M816.226 531.923H917.181V497.215H816.226V531.923Z"
          fill="#DBECFF"
        />
        <path
          id="Fill 93"
          fill-rule="evenodd"
          clip-rule="evenodd"
          d="M571.799 531.92H672.754V450.243H571.799V531.92Z"
          fill="#DBECFF"
        />
        <path
          id="Fill 94"
          fill-rule="evenodd"
          clip-rule="evenodd"
          d="M694.014 531.92H794.968V450.243H694.014V531.92Z"
          fill="#DBECFF"
        />
        <path
          id="Fill 95"
          fill-rule="evenodd"
          clip-rule="evenodd"
          d="M936.554 543.033H1020.95V439.128H936.554V543.033Z"
          fill="#B3D1FF"
        />
        <path
          id="Fill 96"
          fill-rule="evenodd"
          clip-rule="evenodd"
          d="M297.688 439.127H946.865V425.733H297.688V439.127Z"
          fill="#DBECFF"
        />
        <path
          id="Fill 97"
          fill-rule="evenodd"
          clip-rule="evenodd"
          d="M946.866 439.127H1034.48V425.733H946.866V439.127Z"
          fill="#B3D1FF"
        />
        <path
          id="Stroke 98"
          d="M940.418 543.031V590.012"
          stroke="#CAE1FF"
          stroke-width="7.16932"
        />
        <path
          id="Stroke 99"
          d="M1017.14 543.031V590.012"
          stroke="#CAE1FF"
          stroke-width="7.16932"
        />
        <path
          id="Stroke 100"
          d="M314.182 543.031V590.012"
          stroke="#CAE1FF"
          stroke-width="7.16932"
        />
        <path
          id="Stroke 101"
          d="M387.44 543.031V590.012"
          stroke="#CAE1FF"
          stroke-width="7.16932"
        />
        <path
          id="Fill 103"
          fill-rule="evenodd"
          clip-rule="evenodd"
          d="M404.07 457.425H351.637C347.685 457.425 344.481 454.209 344.481 450.243H411.225C411.225 454.209 408.021 457.425 404.07 457.425Z"
          fill="#B3D1FF"
        />
        <path
          id="Fill 104"
          fill-rule="evenodd"
          clip-rule="evenodd"
          d="M526.281 457.425H473.848C469.896 457.425 466.692 454.209 466.692 450.243H533.436C533.436 454.209 530.232 457.425 526.281 457.425Z"
          fill="#B3D1FF"
        />
        <path
          id="Fill 105"
          fill-rule="evenodd"
          clip-rule="evenodd"
          d="M650.103 457.425H597.67C593.717 457.425 590.514 454.209 590.514 450.243H657.258C657.258 454.209 654.054 457.425 650.103 457.425Z"
          fill="#B3D1FF"
        />
        <path
          id="Fill 106"
          fill-rule="evenodd"
          clip-rule="evenodd"
          d="M770.706 457.425H718.274C714.321 457.425 711.118 454.209 711.118 450.243H777.862C777.862 454.209 774.658 457.425 770.706 457.425Z"
          fill="#B3D1FF"
        />
        <path
          id="Fill 107"
          fill-rule="evenodd"
          clip-rule="evenodd"
          d="M526.281 504.396H473.848C469.896 504.396 466.692 501.181 466.692 497.215H533.436C533.436 501.181 530.232 504.396 526.281 504.396Z"
          fill="#B3D1FF"
        />
        <path
          id="Fill 108"
          fill-rule="evenodd"
          clip-rule="evenodd"
          d="M892.921 457.425H840.488C836.535 457.425 833.333 454.209 833.333 450.243H900.076C900.076 454.209 896.872 457.425 892.921 457.425Z"
          fill="#B3D1FF"
        />
        <path
          id="Fill 109"
          fill-rule="evenodd"
          clip-rule="evenodd"
          d="M892.921 504.396H840.488C836.535 504.396 833.333 501.181 833.333 497.215H900.076C900.076 501.181 896.872 504.396 892.921 504.396Z"
          fill="#B3D1FF"
        />
      </g>
    </g>
    <g id="Girl">
      <path
        id="Fill 54"
        fill-rule="evenodd"
        clip-rule="evenodd"
        d="M219.255 352.942L215.447 351.009C215.447 351.009 212.728 349.825 209.642 348.894C206.556 347.963 202.208 348.473 197.96 344.065C193.715 339.659 195.064 346.346 197.033 348.557C198.675 350.4 203.207 351.786 204.282 353.639C203.321 354.387 202.34 354.735 202.34 354.735L183.233 359.524C182.598 359.669 182.168 360.264 182.223 360.915L182.289 361.651C182.36 362.426 183.075 362.975 183.833 362.83C187.932 362.055 200.107 359.428 200.124 359.649L200.352 360.097L181.057 367.097C180.427 367.303 180.051 367.948 180.181 368.6L180.382 369.615C180.527 370.354 181.258 370.817 181.982 370.63C186.43 369.505 201.197 364.443 201.221 364.672L201.426 365.223L185.53 372.642C184.868 372.862 184.497 373.568 184.683 374.238L184.908 375.039C185.102 375.74 185.83 376.149 186.526 375.949L202.19 369.227L202.565 369.782L191.319 376.647C190.716 376.925 190.42 377.609 190.621 378.244L190.749 378.627C190.97 379.302 191.689 379.681 192.372 379.475C194.715 378.775 199.539 375.526 204.615 373.534C208.555 371.988 211.744 371.781 216.495 369.292C218.507 368.244 220.873 366.296 222.195 365.234"
        fill="#C3D3FF"
      />
      <path
        id="Fill 56"
        fill-rule="evenodd"
        clip-rule="evenodd"
        d="M371.764 629.352L371.931 645.606C371.931 645.606 356.015 647.985 350.499 663.136H393.182L390.088 644.882L388.261 629.043L371.764 629.352Z"
        fill="#0B096F"
      />
      <path
        id="Fill 58"
        fill-rule="evenodd"
        clip-rule="evenodd"
        d="M387.934 625.065L390.089 644.874L371.932 645.599L371.842 629.939L387.934 625.065Z"
        fill="#9BA5FF"
      />
      <path
        id="Fill 60"
        fill-rule="evenodd"
        clip-rule="evenodd"
        d="M462.801 252.259C467.251 255.622 465.523 258.822 468.299 260.053C470.334 260.959 475.271 260.487 478.691 259.767C478.756 259.758 478.816 259.743 478.875 259.728H478.887C478.916 259.724 478.945 259.718 478.975 259.709C479.177 259.664 479.372 259.62 479.561 259.576C479.597 259.571 479.638 259.556 479.674 259.546C480.472 259.349 481.147 259.147 481.603 258.95C485.988 257.08 492.445 248.429 491.581 246.603C491.575 246.588 491.563 246.573 491.557 246.558C490.551 244.766 480.472 244.161 478.649 242.418C476.815 240.66 481.485 236.933 482.124 234.343C482.762 231.749 480.626 225.757 479.058 231.05C477.49 236.342 473.383 237.671 471.11 239.666C468.831 241.659 467.008 243.713 467.008 243.713L462.801 252.259Z"
        fill="#C3D3FF"
      />
      <path
        id="Fill 62"
        fill-rule="evenodd"
        clip-rule="evenodd"
        d="M295.677 632.526L297.373 645.295C297.373 645.295 265.796 652.43 253.925 663.043L316.035 663.13L310.587 626.559L295.677 632.526Z"
        fill="#0B096F"
      />
      <path
        id="Fill 64"
        fill-rule="evenodd"
        clip-rule="evenodd"
        d="M310.929 629.337L313.361 644.789L297.373 645.295L295.939 634.696L310.929 629.337Z"
        fill="#9BA5FF"
      />
      <path
        id="Fill 66"
        fill-rule="evenodd"
        clip-rule="evenodd"
        d="M474.079 257.406L468.019 246.937L414.923 268.373L380.04 254.207L371.445 279.848C371.445 279.848 404.323 289.509 414.352 288.328C431.902 286.26 474.079 257.406 474.079 257.406Z"
        fill="#C3D3FF"
      />
      <path
        id="Fill 68"
        fill-rule="evenodd"
        clip-rule="evenodd"
        d="M363.768 190.48C363.806 215.816 343.382 236.386 318.15 236.424C292.918 236.462 272.433 215.953 272.395 190.617C272.358 165.281 292.782 144.711 318.014 144.673C343.245 144.635 363.731 165.144 363.768 190.48Z"
        fill="#040272"
      />
      <path
        id="Fill 74"
        fill-rule="evenodd"
        clip-rule="evenodd"
        d="M285.149 285.681C285.149 285.681 276.526 321.184 268.284 331.216C255.854 342.803 220.801 366.187 220.801 366.187L217.856 352.563L253.535 318.865L267.692 278.923L285.149 285.681Z"
        fill="#C3D3FF"
      />
      <path
        id="Fill 76"
        fill-rule="evenodd"
        clip-rule="evenodd"
        d="M290.148 633.145L318.384 633.06L311.492 500.66L322.195 382.908L365.326 635.263H393.776C393.776 635.263 381.96 502.037 376.63 421.033C372.88 364.062 365.416 345.545 365.416 345.545H282.742C282.742 345.545 277.69 370.982 276.115 403.565C273.113 465.692 272.347 476.975 274.187 501.359C276.684 534.454 290.148 633.145 290.148 633.145Z"
        fill="#272636"
      />
      <path
        id="Fill 80"
        fill-rule="evenodd"
        clip-rule="evenodd"
        d="M272.401 193.831L272.49 254.21L363.863 254.073L363.773 193.694L272.401 193.831Z"
        fill="#040272"
      />
      <path
        id="Fill 82"
        fill-rule="evenodd"
        clip-rule="evenodd"
        d="M273.987 320.833L256.911 309.333L258.624 304.502L276.262 315.101L273.987 320.833Z"
        fill="#9BA5FF"
      />
      <path
        id="Fill 84"
        fill-rule="evenodd"
        clip-rule="evenodd"
        d="M382.048 282.759L389.391 258.006L391.789 258.98L388.802 284.452L382.048 282.759Z"
        fill="#9BA5FF"
      />
      <path
        id="Fill-86"
        fill-rule="evenodd"
        clip-rule="evenodd"
        d="M253.166 301.221L282.985 319.141L285.027 306.035C285.027 306.035 278.125 292.616 281.584 299.443C288.27 312.639 289.054 314.524 285.149 331.834C284.499 334.712 282.742 345.548 282.742 345.548H365.415C365.415 345.548 361.135 333.175 349.063 311.538C341.386 297.778 355.748 277.634 355.748 277.634L378.225 295.646L390.542 254.13C390.542 254.13 374.885 247.093 361.894 241.383C348.608 235.539 342.027 236.395 322.56 236.425C304.235 236.456 292.259 237.446 284.077 244.309C267.013 258.622 253.166 301.221 253.166 301.221Z"
        fill="#12E8A8"
      />
      <path
        id="Fill 88_2"
        fill-rule="evenodd"
        clip-rule="evenodd"
        d="M304.738 264.496C317.189 264.496 325.353 259.204 329.001 248.766C331.147 242.628 332.892 236.481 332.91 236.42L333.344 234.883L331.754 234.906C331.75 234.907 330.341 234.926 328.378 234.926C325.959 234.926 322.542 234.895 320.003 234.748C319.743 234.733 319.481 234.725 319.217 234.725C313.515 234.725 307.22 238.105 306.955 238.249C306.75 238.362 302.029 241.007 298 247.235C294.929 251.982 294.227 256.668 296.074 260.091C297.604 262.926 300.658 264.491 304.674 264.496H304.738Z"
        fill="#C3D3FF"
      />
      <path
        id="Fill 90_2"
        fill-rule="evenodd"
        clip-rule="evenodd"
        d="M319.216 233.541H319.218C319.505 233.541 319.792 233.55 320.069 233.566C322.582 233.712 325.976 233.742 328.381 233.742C330.313 233.742 331.723 233.723 331.737 233.722L334.917 233.677L334.048 236.749C334.03 236.811 332.276 242.993 330.118 249.164C326.339 259.975 317.563 265.69 304.738 265.69H304.672C300.202 265.682 296.779 263.897 295.034 260.662C292.973 256.843 293.692 251.715 297.007 246.592C301.197 240.116 306.17 237.33 306.38 237.215C306.669 237.058 313.219 233.541 319.216 233.541ZM319.218 235.913C313.75 235.913 307.518 239.294 307.518 239.294C307.518 239.294 302.906 241.834 298.993 247.881C293.639 256.156 296.439 263.295 304.676 263.307H304.739C313.545 263.307 323.629 260.549 327.885 248.371C330.044 242.197 331.772 236.094 331.772 236.094C331.772 236.094 330.355 236.114 328.382 236.114C325.879 236.114 322.481 236.082 319.935 235.934C319.698 235.92 319.458 235.913 319.218 235.913Z"
        fill="#0E9E7B"
      />
      <path
        id="Fill 92_2"
        fill-rule="evenodd"
        clip-rule="evenodd"
        d="M307.368 213.365C309.857 217.356 308.838 222.616 307.419 225.689C306.94 226.746 303.825 235.6 303.37 236C301.604 237.556 323.222 247.017 323.222 247.017L324.659 229.145C330.926 229.509 338.28 229.176 342.32 226.479C354.353 218.442 355.066 190.576 354.868 189.183L344.776 177.846C344.776 177.846 329.558 170.789 327.242 173.788C323.005 179.28 313.091 203.853 305.914 201.049C305.914 201.049 306.818 193.409 300.468 193.419C295.736 193.426 294.455 197.237 294.458 199.438C294.469 206.87 304.026 207.987 307.368 213.365Z"
        fill="#C3D3FF"
      />
      <path
        id="Fill 100"
        fill-rule="evenodd"
        clip-rule="evenodd"
        d="M341.332 177.717C341.337 180.767 341.848 183.699 342.781 186.417C342.905 186.755 343.029 187.106 343.172 187.444C344.073 189.72 345.272 191.83 346.719 193.712C350.619 198.778 356.332 202.206 362.8 202.893C363.132 202.927 363.457 202.954 363.789 202.967L363.775 193.686L363.768 193.687C363.774 193.397 363.774 193.114 363.773 192.824C363.757 181.369 360.003 170.844 353.731 162.552C352.565 161.008 351.308 159.547 349.974 158.168C346.949 160.83 344.556 164.27 343.06 168.206C341.94 171.14 341.327 174.35 341.332 177.717Z"
        fill="#040272"
      />
      <path
        id="Fill 102"
        fill-rule="evenodd"
        clip-rule="evenodd"
        d="M305.88 177.183C305.89 183.812 311.872 189.391 320.038 191.092C320.684 191.231 321.341 191.342 322.016 191.425C323.099 191.57 324.215 191.638 325.349 191.637C336.091 191.62 344.788 185.125 344.776 177.125C344.775 176.355 344.694 175.601 344.534 174.867C343.067 167.938 335.016 162.65 325.306 162.664C314.667 162.68 306.038 169.057 305.885 176.952C305.88 177.029 305.88 177.106 305.88 177.183Z"
        fill="#040272"
      />
      <path
        id="Fill 106_2"
        fill-rule="evenodd"
        clip-rule="evenodd"
        d="M324.66 229.144C324.66 229.144 316.735 229.38 313.358 227.527L324.238 234.386L324.66 229.144Z"
        fill="#9BA5FF"
      />
      <path
        id="Fill 108_2"
        fill-rule="evenodd"
        clip-rule="evenodd"
        d="M334.571 236.31C334.571 236.31 332.499 236.217 329.311 236.419C324.85 236.702 324.052 236.71 324.052 236.71L324.576 230.184L336.625 231.779L334.571 236.31Z"
        fill="#25003F"
      />
      <path
        id="Fill 110"
        fill-rule="evenodd"
        clip-rule="evenodd"
        d="M319.5 640.606L288.179 640.564L288.191 632.549L319.512 632.593L319.5 640.606Z"
        fill="#272636"
      />
      <path
        id="Fill 112"
        fill-rule="evenodd"
        clip-rule="evenodd"
        d="M396.27 640.609L363.842 640.564L363.296 632.549L395.724 632.596L396.27 640.609Z"
        fill="#272636"
      />
      <path
        id="Fill 114"
        fill-rule="evenodd"
        clip-rule="evenodd"
        d="M290.244 272.708L308.934 272.68L308.853 218.196L272.438 218.251L272.493 254.936C272.508 264.766 280.455 272.723 290.244 272.708Z"
        fill="#040272"
      />
      <path
        id="Fill 116"
        fill-rule="evenodd"
        clip-rule="evenodd"
        d="M481.774 253.695C482.142 254.921 484.534 255.247 487.09 254.419L504.991 248.459C507.545 247.63 506.624 246.177 506.022 245.796C505.106 245.218 502.767 244.855 500.038 245.623L485.751 249.957C483.195 250.786 481.406 252.467 481.774 253.695Z"
        fill="#C3D3FF"
      />
      <path
        id="Fill 118"
        fill-rule="evenodd"
        clip-rule="evenodd"
        d="M480.929 255.482C481.629 256.649 484.094 256.434 486.406 255.003L502.562 244.824C504.875 243.393 503.563 242.123 502.861 241.872C501.793 241.492 499.371 241.658 496.871 243.066L483.86 250.76C481.548 252.19 480.229 254.316 480.929 255.482Z"
        fill="#C3D3FF"
      />
      <path
        id="Fill 120"
        fill-rule="evenodd"
        clip-rule="evenodd"
        d="M477.947 258.01C478.969 259.025 481.167 258.448 482.832 256.726L494.404 244.518C496.069 242.796 494.452 241.773 493.724 241.639C492.62 241.434 490.444 241.958 488.599 243.687L479.117 253.034C477.452 254.756 476.925 256.995 477.947 258.01Z"
        fill="#C3D3FF"
      />
      <path
        id="Fill 122"
        fill-rule="evenodd"
        clip-rule="evenodd"
        d="M478.267 259.036C479.304 259.608 480.828 258.799 481.655 257.237L487.341 246.203C488.167 244.642 486.675 244.167 486.088 244.194C485.195 244.235 483.674 245.001 482.712 246.599L477.885 255.155C477.059 256.717 477.23 258.463 478.267 259.036Z"
        fill="#C3D3FF"
      />
      <path
        id="Stroke 124"
        d="M285.834 306.178C285.834 306.178 279.939 295.847 281.173 286.135"
        stroke="#0E9E7B"
        stroke-width="2.55188"
      />
    </g>
    <g id="Group 4">
      <path
        id="Fill 111"
        fill-rule="evenodd"
        clip-rule="evenodd"
        d="M949.306 763H965.054V547.837H949.306V763Z"
        fill="#7373AA"
      />
      <path
        id="Fill 113"
        fill-rule="evenodd"
        clip-rule="evenodd"
        d="M965.053 763H980.8V547.837H965.053V763Z"
        fill="#3F3E87"
      />
      <path
        id="Fill 114_2"
        fill-rule="evenodd"
        clip-rule="evenodd"
        d="M1060.13 763H1075.88V547.837H1060.13V763Z"
        fill="#3F3E87"
      />
      <path
        id="Fill 115"
        fill-rule="evenodd"
        clip-rule="evenodd"
        d="M1075.88 763H1091.63V547.837H1075.88V763Z"
        fill="#7373AA"
      />
      <path
        id="Fill 116_2"
        fill-rule="evenodd"
        clip-rule="evenodd"
        d="M863.354 534.288H912.301V451.725H863.354V534.288Z"
        fill="#211F6B"
      />
      <path
        id="Fill 117"
        fill-rule="evenodd"
        clip-rule="evenodd"
        d="M1027.36 532.48H893.201L837.767 464.121C836.902 463.055 836.606 461.526 836.994 460.132L838.832 453.524L961.506 451.274L1027.36 532.48Z"
        fill="#504D96"
      />
      <path
        id="Fill 118_2"
        fill-rule="evenodd"
        clip-rule="evenodd"
        d="M1028.13 532.48H901.943C901.144 532.48 900.381 532.097 899.834 531.421L839.454 456.966C837.709 454.813 839.02 451.274 841.564 451.274H965.92C967.884 451.274 969.761 452.216 971.109 453.878L1030.23 526.788C1031.98 528.941 1030.67 532.48 1028.13 532.48Z"
        fill="#989EC3"
      />
      <path
        id="Fill 119"
        fill-rule="evenodd"
        clip-rule="evenodd"
        d="M1020.13 527.649H904.016C903.888 527.649 903.767 527.588 903.68 527.481L847.695 458.444C846.85 457.403 847.485 455.691 848.716 455.691H963.631C965.135 455.691 966.572 456.412 967.604 457.685L1021.45 524.09C1022.55 525.436 1021.73 527.649 1020.13 527.649Z"
        fill="white"
      />
      <path
        id="Fill 120_2"
        fill-rule="evenodd"
        clip-rule="evenodd"
        d="M816.975 547.703H1137.98V531.83H816.975V547.703Z"
        fill="#7373AA"
      />
      <path
        id="Fill 121"
        fill-rule="evenodd"
        clip-rule="evenodd"
        d="M717.352 763H733.099V547.837H717.352V763Z"
        fill="#3F3E87"
      />
      <path
        id="Fill 122_2"
        fill-rule="evenodd"
        clip-rule="evenodd"
        d="M733.099 763H748.846V547.837H733.099V763Z"
        fill="#7373AA"
      />
      <path
        id="Fill 123"
        fill-rule="evenodd"
        clip-rule="evenodd"
        d="M828.818 763H844.566V547.837H828.818V763Z"
        fill="#3F3E87"
      />
      <path
        id="Fill 124"
        fill-rule="evenodd"
        clip-rule="evenodd"
        d="M720.412 640.007H844.567V547.837H720.412V640.007Z"
        fill="#3F3E87"
      />
      <path
        id="Fill 125"
        fill-rule="evenodd"
        clip-rule="evenodd"
        d="M844.565 763H860.312V547.837H844.565V763Z"
        fill="#7373AA"
      />
      <path
        id="Fill 127"
        fill-rule="evenodd"
        clip-rule="evenodd"
        d="M701.539 547.703H816.975V531.83H701.539V547.703Z"
        fill="#3F3E87"
      />
      <path
        id="Fill 134"
        fill-rule="evenodd"
        clip-rule="evenodd"
        d="M898.344 460.354C901.354 462.346 902.759 465.541 901.48 467.489C900.203 469.437 896.727 469.402 893.717 467.411C890.707 465.418 889.303 462.224 890.581 460.275C891.858 458.327 895.335 458.363 898.344 460.354Z"
        fill="#272636"
      />
      <path
        id="Fill 146"
        fill-rule="evenodd"
        clip-rule="evenodd"
        d="M1029.88 751.886C1029.88 758.024 1024.93 763 1018.82 763C1012.71 763 1007.76 758.024 1007.76 751.886C1007.76 745.75 1012.71 740.774 1018.82 740.774C1024.93 740.774 1029.88 745.75 1029.88 751.886Z"
        fill="#272636"
      />
      <path
        id="Fill 147"
        fill-rule="evenodd"
        clip-rule="evenodd"
        d="M951.889 469.96C954.431 466.082 957.391 465.129 955.599 463.944L940.377 452.883C938.585 451.697 935.587 456.949 934.811 458.816C933.633 461.649 931.718 469.578 933.388 471.165L944.007 474.856C945.799 476.041 949.346 473.838 951.889 469.96Z"
        fill="#C3D3FF"
      />
      <path
        id="Fill 148"
        fill-rule="evenodd"
        clip-rule="evenodd"
        d="M1005.32 357.365C1005.32 357.365 982.216 376.23 1004.7 388.071L1005.32 357.365Z"
        fill="#040272"
      />
      <path
        id="Fill 150"
        fill-rule="evenodd"
        clip-rule="evenodd"
        d="M1058.88 401.877C1061.86 397.111 1054.73 425.457 1054.73 425.457L1051.8 450.149L1018.84 450.517L1024.76 424.322C1024.76 424.322 999.069 420.266 994.456 416.261C994.456 416.261 996.317 390.582 1004.28 373.961L1029.45 360.119L1062.29 370.575L1058.88 401.877Z"
        fill="#C3D3FF"
      />
      <path
        id="Stroke 151"
        d="M1029.78 412.591C1029.78 412.591 1043.77 413.409 1051.15 405.554"
        stroke="#9BA5FF"
        stroke-width="2.55188"
      />
      <path
        id="Fill 152"
        fill-rule="evenodd"
        clip-rule="evenodd"
        d="M1054.46 417.604C1062.2 420.044 1081.58 394.313 1074.25 374.847C1064.37 348.57 1043.54 353.547 1043.54 353.547C1043.54 353.547 1043.54 332.387 1030.37 329.303C1011.61 324.909 1001.82 353.305 1001.82 353.305C1001.82 353.305 1000.89 336.369 994.981 337.348C989.074 338.326 975.947 384.629 1022.42 376.606C1022.42 376.606 1017.37 390.682 1027.39 393.34C1031.71 394.486 1035.04 388.865 1035.04 388.865C1035.04 388.865 1042.12 400.58 1047.77 406.733C1047.77 406.733 1050.88 416.475 1054.46 417.604Z"
        fill="#040272"
      />
      <path
        id="Fill 154"
        fill-rule="evenodd"
        clip-rule="evenodd"
        d="M1024.76 424.323L1036.78 425.589L1023.03 431.976L1024.76 424.323Z"
        fill="#9BA5FF"
      />
      <path
        id="Fill 157"
        fill-rule="evenodd"
        clip-rule="evenodd"
        d="M1079.64 702.146L1098.19 729.054L1087.83 750.648L1064.03 762.996H1100.78L1125.76 733.224L1094.22 685.974L1079.64 702.146Z"
        fill="#0B096F"
      />
      <path
        id="Fill 158"
        fill-rule="evenodd"
        clip-rule="evenodd"
        d="M1096.42 682.609L1114.86 716.885L1098.19 728.814L1079.64 702.056L1096.42 682.609Z"
        fill="#9BA5FF"
      />
      <path
        id="Fill 159"
        fill-rule="evenodd"
        clip-rule="evenodd"
        d="M969.101 720.391L971.491 742.002C971.491 742.002 937.045 748.185 920.534 762.996L1005.36 762.817L989.854 715.87L969.101 720.391Z"
        fill="#0B096F"
      />
      <path
        id="Fill 160"
        fill-rule="evenodd"
        clip-rule="evenodd"
        d="M1112.63 751.886C1112.63 758.024 1107.68 763 1101.57 763C1095.46 763 1090.51 758.024 1090.51 751.886C1090.51 745.75 1095.46 740.774 1101.57 740.774C1107.68 740.774 1112.63 745.75 1112.63 751.886Z"
        fill="#272636"
      />
      <path
        id="Fill 161"
        fill-rule="evenodd"
        clip-rule="evenodd"
        d="M991.606 715.92L998.262 741.271L971.492 742.006L969.472 723.416L991.606 715.92Z"
        fill="#9BA5FF"
      />
      <path
        id="Fill 162"
        fill-rule="evenodd"
        clip-rule="evenodd"
        d="M1058.26 589.129L1117.76 707.989L1086.72 724.919L1011.27 603.839L1058.26 589.129Z"
        fill="#08060C"
      />
      <path
        id="Fill 163"
        fill-rule="evenodd"
        clip-rule="evenodd"
        d="M971.648 591.376L1004.07 732.178H964.718L914.987 579.959C909.815 564.127 921.556 547.841 938.143 547.841H1082.66V591.376H971.648Z"
        fill="#242237"
      />
      <path
        id="Fill 165"
        fill-rule="evenodd"
        clip-rule="evenodd"
        d="M951.336 476.178L1012.5 502.797L1025.14 485.943L953.952 463.51L951.336 476.178Z"
        fill="#C3D3FF"
      />
      <path
        id="Fill 166"
        fill-rule="evenodd"
        clip-rule="evenodd"
        d="M1005.22 615.882H1115.55V612.058H1005.22V615.882Z"
        fill="#2823FB"
      />
      <path
        id="Fill 167"
        fill-rule="evenodd"
        clip-rule="evenodd"
        d="M1088.08 612.062H1007.03C1002.94 612.062 999.629 608.733 999.629 604.626V598.809C999.629 594.702 1002.94 591.373 1007.03 591.373H1088.08C1092.16 591.373 1095.48 594.702 1095.48 598.809V604.626C1095.48 608.733 1092.16 612.062 1088.08 612.062Z"
        fill="#504D96"
      />
      <path
        id="Fill 170"
        fill-rule="evenodd"
        clip-rule="evenodd"
        d="M1078.21 612.06H1045.85C1062.85 612.06 1075.97 597.051 1073.8 580.155L1078.21 612.06Z"
        fill="#2823FB"
      />
      <path
        id="Fill 173"
        fill-rule="evenodd"
        clip-rule="evenodd"
        d="M1130.83 754.116H1021.51C1017.32 754.116 1013.89 750.675 1013.89 746.468C1013.89 742.262 1017.32 738.82 1021.51 738.82H1130.83C1135.01 738.82 1138.44 742.262 1138.44 746.468C1138.44 750.675 1135.01 754.116 1130.83 754.116Z"
        fill="#7075A6"
      />
      <path
        id="Fill 174"
        fill-rule="evenodd"
        clip-rule="evenodd"
        d="M1072.7 750.475H1079.63V615.883H1072.7V750.475Z"
        fill="#7075A6"
      />
      <path
        id="Fill 175"
        fill-rule="evenodd"
        clip-rule="evenodd"
        d="M1114.61 615.883L1076.17 633.469L1037.73 615.883H1114.61Z"
        fill="#7075A6"
      />
      <path
        id="Fill 176"
        fill-rule="evenodd"
        clip-rule="evenodd"
        d="M1071.5 754.116H1057.31C1053.12 754.116 1049.7 750.675 1049.7 746.468C1049.7 742.262 1053.12 738.82 1057.31 738.82H1071.5C1075.68 738.82 1079.11 742.262 1079.11 746.468C1079.11 750.675 1075.68 754.116 1071.5 754.116Z"
        fill="#504D96"
      />
      <path
        id="Fill 177"
        fill-rule="evenodd"
        clip-rule="evenodd"
        d="M1056.57 440.051C1057.32 442.499 1054.86 445.933 1045.48 446.126C1033.95 446.363 1021.17 444.094 1019.02 439.717C1033.56 437.371 1043.32 436.689 1056.57 440.051Z"
        fill="#12E8A8"
      />
      <path
        id="Fill 179"
        fill-rule="evenodd"
        clip-rule="evenodd"
        d="M1062.19 751.886C1062.19 758.024 1057.24 763 1051.13 763C1045.02 763 1040.07 758.024 1040.07 751.886C1040.07 745.75 1045.02 740.774 1051.13 740.774C1057.24 740.774 1062.19 745.75 1062.19 751.886Z"
        fill="#272636"
      />
      <path
        id="Fill 180"
        fill-rule="evenodd"
        clip-rule="evenodd"
        d="M1145.3 751.886C1145.3 758.024 1140.35 763 1134.24 763C1128.13 763 1123.18 758.024 1123.18 751.886C1123.18 745.75 1128.13 740.774 1134.24 740.774C1140.35 740.774 1145.3 745.75 1145.3 751.886Z"
        fill="#272636"
      />
      <path
        id="Fill 181"
        fill-rule="evenodd"
        clip-rule="evenodd"
        d="M1001.61 505.485L1004.71 500.775L1006.59 527.006L1001.61 505.485Z"
        fill="#285FD7"
      />
      <path
        id="Fill 182"
        fill-rule="evenodd"
        clip-rule="evenodd"
        d="M941.593 454.234C940.547 453.045 938.737 452.918 937.573 453.952L929.518 461.351C928.354 462.385 929.917 463.754 930.567 464.083C931.556 464.582 933.354 464.75 934.673 463.762L941.378 458.276C942.542 457.243 942.639 455.424 941.593 454.234Z"
        fill="#C3D3FF"
      />
      <path
        id="Fill 183"
        fill-rule="evenodd"
        clip-rule="evenodd"
        d="M932.64 480.216L927.464 484.496L928.956 477.93L956.091 433.801L959.775 436.087L932.64 480.216Z"
        fill="#0B096F"
      />
      <path
        id="Fill 184"
        fill-rule="evenodd"
        clip-rule="evenodd"
        d="M961.205 475.321L951.107 478.249C951.107 478.249 948.593 478.471 945.098 477.588C941.603 476.705 940.243 476.012 934.01 476.551C929.668 476.925 931.811 472.718 934.391 471.404C936.971 470.09 947.063 472.495 946.885 469.181C946.707 465.867 960.075 467.986 961.205 475.321Z"
        fill="#C3D3FF"
      />
      <path
        id="Fill 185"
        fill-rule="evenodd"
        clip-rule="evenodd"
        d="M931.622 460.298C929.982 460.412 928.727 461.774 928.834 463.325L929.775 474.204C929.882 475.755 931.997 475.339 932.681 475.02C933.718 474.535 934.999 473.206 935.028 471.56L934.797 462.911C934.691 461.36 933.261 460.183 931.622 460.298Z"
        fill="#C3D3FF"
      />
      <path
        id="Fill 186"
        fill-rule="evenodd"
        clip-rule="evenodd"
        d="M1051.46 404.321C1044.96 413.242 1027.1 411.71 1027.1 411.71L1028.81 406.8L1035.04 388.869C1038.1 384.214 1053.88 383.485 1053.78 396.812C1053.77 399.903 1052.88 402.361 1051.46 404.321Z"
        fill="#C3D3FF"
      />
      <path
        id="Stroke 187"
        d="M1034.15 404.293C1034.15 404.293 1038.17 404.851 1038.39 401.322C1038.6 397.908 1035.45 397.004 1035.45 397.004C1035.45 397.004 1038.43 388.808 1045.75 391.981"
        stroke="#9BA5FF"
        stroke-width="2.55188"
      />
      <path
        id="Fill 126"
        fill-rule="evenodd"
        clip-rule="evenodd"
        d="M878.355 458.632L914.673 503.333C919.616 512.435 924.987 514.987 933.784 516.065L999.784 507.971L992.531 454.73L939.493 491.134L894.396 447.562"
        fill="#C3D3FF"
      />
      <path
        id="Fill 18.1"
        fill-rule="evenodd"
        clip-rule="evenodd"
        d="M895.736 448.412L895.472 441.676C895.472 441.676 895.5 438.493 894.478 433.51C893.455 428.527 891.179 426.358 890.523 418.024C889.779 408.564 884.66 415.356 884.177 419.916C883.8 423.475 886.182 426.744 884.591 429.626C882.95 428.853 879.87 428.137 872.015 418.101C870.606 416.302 867.632 409.613 867.632 409.613C866.474 407.751 864.279 403.751 861.563 404.41C860.889 404.573 860.501 405.552 860.501 405.552C860.501 405.552 859.19 403.016 856.49 403.811C855.429 404.123 856.881 410.334 856.881 410.334C856.881 410.334 854.91 407.838 852.935 408.495C852.376 408.682 856.033 426.97 856.033 426.97L854.219 423.366L852.785 419.449C852.785 419.449 851.523 417.602 849.631 418.164C848.88 418.387 849.598 422.207 850.75 426.538C852.542 433.277 855.329 437.573 858.612 441.573C862.579 446.408 863.393 448.307 870.01 453.3C872.741 455.36 877.575 458.097 879.875 459.136"
        fill="#C3D3FF"
      />
      <path
        id="Fill 168"
        fill-rule="evenodd"
        clip-rule="evenodd"
        d="M1093.4 503.062L1088.91 547.943L1011.4 547.72L999.785 508.42L979.386 518.431L957.173 478.842C957.173 478.842 969.045 471.722 977.327 463.169C995.751 444.145 1012.16 438.995 1029.96 439.025C1047.74 439.056 1043.07 436.603 1059.57 440.782C1071.09 443.701 1081.31 451.741 1087.17 471.744C1093.25 492.505 1093.4 503.062 1093.4 503.062Z"
        fill="#12E8A8"
      />
      <path
        id="Fill 169"
        fill-rule="evenodd"
        clip-rule="evenodd"
        d="M1130.1 615.884H1078.72L1069.2 554.063V506.361C1069.2 483.13 1087.95 464.297 1111.08 464.297C1134.2 464.297 1152.95 483.13 1152.95 506.361V554.063L1158.01 583.68C1160.37 600.7 1147.21 615.884 1130.1 615.884Z"
        fill="#2823FB"
      />
      <path
        id="Fill 171"
        fill-rule="evenodd"
        clip-rule="evenodd"
        d="M1128.4 505.684C1128.4 514.174 1121.55 521.057 1113.1 521.057C1112.68 521.057 1112.26 521.038 1111.85 521.006C1111.53 520.98 1111.21 520.942 1110.9 520.891C1103.49 519.827 1097.8 513.422 1097.8 505.684C1097.8 497.953 1103.49 491.548 1110.9 490.484C1111.21 490.433 1111.53 490.395 1111.85 490.369C1112.26 490.337 1112.68 490.318 1113.1 490.318C1121.55 490.318 1128.4 497.201 1128.4 505.684Z"
        fill="#02006C"
      />
      <path
        id="Fill 172"
        fill-rule="evenodd"
        clip-rule="evenodd"
        d="M1123.98 505.68C1123.98 513.411 1118.29 519.81 1110.9 520.887C1103.49 519.822 1097.8 513.417 1097.8 505.68C1097.8 497.949 1103.49 491.544 1110.9 490.48C1118.29 491.557 1123.98 497.956 1123.98 505.68Z"
        fill="#CAE1FF"
      />
    </g>
  </g>
</svg>
