<svg
  width="1026"
  height="673"
  viewBox="0 0 1026 673"
  fill="none"
  xmlns="http://www.w3.org/2000/svg"
>
  <path
    fill-rule="evenodd"
    clip-rule="evenodd"
    d="M297.497 220.141C297.497 239.692 285.721 257.317 267.662 264.798C249.603 272.278 228.816 268.141 214.996 254.315C201.176 240.489 197.044 219.698 204.527 201.637C212.011 183.576 229.636 171.802 249.182 171.807C262.007 171.777 274.315 176.86 283.383 185.931C292.45 195.003 297.53 207.314 297.497 220.141Z"
    fill="#625EFF"
  />
  <path
    fill-rule="evenodd"
    clip-rule="evenodd"
    d="M249.183 231.182C259.426 231.182 267.73 222.877 267.73 212.632C267.73 202.387 259.426 194.081 249.183 194.081C238.94 194.081 230.636 202.387 230.636 212.632C230.636 222.877 238.94 231.182 249.183 231.182Z"
    fill="#B7B5FF"
  />
  <path
    fill-rule="evenodd"
    clip-rule="evenodd"
    d="M283.256 254.38C264.398 273.192 233.876 273.192 215.018 254.38C220.547 240.37 234.077 231.163 249.137 231.163C264.197 231.163 277.726 240.37 283.256 254.38Z"
    fill="#B7B5FF"
  />
  <path
    fill-rule="evenodd"
    clip-rule="evenodd"
    d="M178.926 220.141C178.926 239.692 167.151 257.317 149.091 264.798C131.032 272.278 110.245 268.141 96.4251 254.315C82.605 240.489 78.4732 219.698 85.9566 201.637C93.44 183.576 111.065 171.802 130.612 171.807C143.436 171.777 155.744 176.86 164.812 185.931C173.879 195.003 178.959 207.314 178.926 220.141Z"
    fill="#625EFF"
  />
  <path
    fill-rule="evenodd"
    clip-rule="evenodd"
    d="M130.612 231.182C140.855 231.182 149.159 222.877 149.159 212.632C149.159 202.387 140.855 194.081 130.612 194.081C120.369 194.081 112.065 202.387 112.065 212.632C112.065 222.877 120.369 231.182 130.612 231.182Z"
    fill="#B7B5FF"
  />
  <path
    fill-rule="evenodd"
    clip-rule="evenodd"
    d="M164.685 254.38C145.827 273.192 115.305 273.192 96.4473 254.38C101.977 240.37 115.506 231.163 130.566 231.163C145.626 231.163 159.156 240.37 164.685 254.38Z"
    fill="#B7B5FF"
  />
  <path
    d="M0 423.467C0 412.776 8.66709 404.109 19.3585 404.109H360.552C368.57 404.109 375.071 410.609 375.071 418.627V534.778C375.071 545.47 366.404 554.137 355.712 554.137H19.3585C8.66712 554.137 0 545.47 0 534.778V423.467Z"
    fill="#B7B5FF"
  />
  <rect
    x="38.7168"
    y="442.825"
    width="120.991"
    height="9.67924"
    rx="4.83962"
    fill="white"
  />
  <rect
    x="38.7168"
    y="471.863"
    width="297.637"
    height="7.25943"
    rx="3.62972"
    fill="white"
  />
  <rect
    x="38.7168"
    y="491.222"
    width="297.637"
    height="7.25943"
    rx="3.62972"
    fill="white"
  />
  <rect
    x="38.7168"
    y="510.58"
    width="200.844"
    height="7.25943"
    rx="3.62972"
    fill="white"
  />
  <path
    d="M609.792 19.3585C609.792 8.66709 618.46 0 629.151 0H1011.48C1019.5 0 1026 6.50032 1026 14.5189V130.67C1026 141.361 1017.33 150.028 1006.64 150.028H629.151C618.46 150.028 609.792 141.361 609.792 130.67V19.3585Z"
    fill="#918EFF"
  />
  <rect
    x="653.349"
    y="38.717"
    width="120.991"
    height="9.67924"
    rx="4.83962"
    fill="white"
  />
  <rect
    x="653.349"
    y="67.7548"
    width="329.094"
    height="7.25943"
    rx="3.62972"
    fill="white"
  />
  <rect
    x="653.349"
    y="87.1132"
    width="329.094"
    height="7.25943"
    rx="3.62972"
    fill="white"
  />
  <rect
    x="653.349"
    y="106.472"
    width="222.623"
    height="7.25943"
    rx="3.62972"
    fill="white"
  />
  <rect
    x="660.608"
    y="445.245"
    width="169.387"
    height="104.052"
    rx="16.9387"
    fill="#625EFF"
  />
  <rect
    x="677.547"
    y="471.863"
    width="79.4284"
    height="4.83962"
    rx="2.41981"
    transform="rotate(30 677.547 471.863)"
    fill="white"
  />
  <rect
    x="811.67"
    y="476.055"
    width="79.4284"
    height="4.83962"
    rx="2.41981"
    transform="rotate(150 811.67 476.055)"
    fill="white"
  />
  <rect
    x="814.896"
    y="533.072"
    width="60.7983"
    height="4.83962"
    rx="2.41981"
    transform="rotate(-150 814.896 533.072)"
    fill="white"
  />
  <rect
    x="670.288"
    y="528.88"
    width="60.7983"
    height="4.83962"
    rx="2.41981"
    transform="rotate(-30 670.288 528.88)"
    fill="white"
  />
  <rect
    x="592.854"
    y="413.788"
    width="169.387"
    height="104.052"
    rx="16.9387"
    fill="#B7B5FF"
  />
  <rect
    x="609.792"
    y="440.406"
    width="79.4284"
    height="4.83962"
    rx="2.41981"
    transform="rotate(30 609.792 440.406)"
    fill="white"
  />
  <rect
    x="743.915"
    y="444.598"
    width="79.4284"
    height="4.83962"
    rx="2.41981"
    transform="rotate(150 743.915 444.598)"
    fill="white"
  />
  <rect
    x="747.14"
    y="501.615"
    width="60.7983"
    height="4.83962"
    rx="2.41981"
    transform="rotate(-150 747.14 501.615)"
    fill="white"
  />
  <rect
    x="602.533"
    y="497.422"
    width="60.7983"
    height="4.83962"
    rx="2.41981"
    transform="rotate(-30 602.533 497.422)"
    fill="white"
  />
  <path
    fill-rule="evenodd"
    clip-rule="evenodd"
    d="M702.506 348.031H425.222C420.264 348.031 416.208 345.192 416.208 341.722C416.208 316.332 416.208 137.99 416.208 88.6967C416.208 82.0145 421.625 76.7108 428.307 76.7108H702.506C707.463 76.7108 711.52 79.5499 711.52 83.0199V341.722C711.52 345.192 707.463 348.031 702.506 348.031Z"
    fill="#F3F6FF"
  />
  <path
    fill-rule="evenodd"
    clip-rule="evenodd"
    d="M497.208 147.933C497.208 149.806 498.726 151.324 500.599 151.324H677.753C679.627 151.324 681.145 149.806 681.145 147.933C681.145 146.06 679.627 144.541 677.753 144.541H500.599C498.726 144.541 497.208 146.06 497.208 147.933Z"
    fill="#2823FB"
  />
  <path
    fill-rule="evenodd"
    clip-rule="evenodd"
    d="M497.208 168.281C497.208 170.154 498.726 171.673 500.599 171.673H615.316C617.189 171.673 618.707 170.154 618.707 168.281C618.707 166.408 617.189 164.89 615.316 164.89H500.599C498.726 164.89 497.208 166.408 497.208 168.281Z"
    fill="#2823FB"
  />
  <path
    fill-rule="evenodd"
    clip-rule="evenodd"
    d="M497.208 215.761C497.208 217.634 498.726 219.152 500.599 219.152H677.753C679.627 219.152 681.145 217.634 681.145 215.761C681.145 213.888 679.627 212.369 677.753 212.369H500.599C498.726 212.369 497.208 213.888 497.208 215.761Z"
    fill="#2823FB"
  />
  <path
    fill-rule="evenodd"
    clip-rule="evenodd"
    d="M497.208 236.109C497.208 237.982 498.726 239.501 500.599 239.501H615.316C617.189 239.501 618.707 237.982 618.707 236.109C618.707 234.236 617.189 232.718 615.316 232.718H500.599C498.726 232.718 497.208 234.236 497.208 236.109Z"
    fill="#2823FB"
  />
  <path
    fill-rule="evenodd"
    clip-rule="evenodd"
    d="M497.208 283.593C497.208 285.466 498.726 286.985 500.599 286.985H677.753C679.627 286.985 681.145 285.466 681.145 283.593C681.145 281.72 679.627 280.202 677.753 280.202H500.599C498.726 280.202 497.208 281.72 497.208 283.593Z"
    fill="#2823FB"
  />
  <path
    fill-rule="evenodd"
    clip-rule="evenodd"
    d="M497.208 303.94C497.208 305.813 498.726 307.331 500.599 307.331H615.316C617.189 307.331 618.707 305.813 618.707 303.94C618.707 302.067 617.189 300.548 615.316 300.548H500.599C498.726 300.548 497.208 302.067 497.208 303.94Z"
    fill="#2823FB"
  />
  <path
    d="M416.208 86.7075C416.208 80.2494 421.443 75.0142 427.901 75.0142H699.827C706.285 75.0142 711.52 80.2494 711.52 86.7075V103.842H416.208V86.7075Z"
    fill="#2823FB"
  />
  <ellipse cx="449.115" cy="91.1224" rx="5.90625" ry="5.93513" fill="white" />
  <ellipse cx="469.364" cy="91.1224" rx="5.90625" ry="5.93513" fill="white" />
  <ellipse cx="489.613" cy="91.1224" rx="5.90625" ry="5.93513" fill="white" />
  <path
    d="M466.579 227.634C466.579 233.139 462.143 237.571 456.708 237.571C451.274 237.571 446.838 233.139 446.838 227.634C446.838 222.13 451.274 217.698 456.708 217.698C462.143 217.698 466.579 222.13 466.579 227.634Z"
    fill="white"
    stroke="#2823FB"
    stroke-width="7.25943"
  />
  <path
    d="M466.579 292.071C466.579 297.576 462.143 302.007 456.708 302.007C451.274 302.007 446.838 297.576 446.838 292.071C446.838 286.567 451.274 282.135 456.708 282.135C462.143 282.135 466.579 286.567 466.579 292.071Z"
    fill="white"
    stroke="#2823FB"
    stroke-width="7.25943"
  />
  <path
    d="M466.579 158.107C466.579 163.612 462.143 168.043 456.708 168.043C451.274 168.043 446.838 163.612 446.838 158.107C446.838 152.603 451.274 148.171 456.708 148.171C462.143 148.171 466.579 152.603 466.579 158.107Z"
    fill="#12E8A8"
    stroke="#12E8A8"
    stroke-width="7.25943"
  />
  <path
    d="M449.958 159.923L453.326 162.508C453.829 162.894 454.545 162.827 454.966 162.353L461.77 154.714"
    stroke="white"
    stroke-width="4.83962"
    stroke-linecap="round"
  />
  <path
    d="M290.918 282.288L253.532 257.393"
    stroke="#515256"
    stroke-width="3.01495"
    stroke-linecap="round"
  />
  <path
    fill-rule="evenodd"
    clip-rule="evenodd"
    d="M256.279 351.477L268.695 346.766L258.952 280.329L278.146 242.864L252.357 227.122C252.357 227.122 238.379 263.266 237.678 275.187C236.458 296.071 256.279 351.477 256.279 351.477Z"
    fill="#C3D3FF"
  />
  <path
    fill-rule="evenodd"
    clip-rule="evenodd"
    d="M244.536 234.52L279.095 247.384L290.627 206.558L263.495 197.442L244.536 234.52Z"
    fill="#0E9E7B"
  />
  <path
    d="M439.288 200.925L435.336 237.236"
    stroke="#192241"
    stroke-width="8.03986"
    stroke-linecap="round"
  />
  <path
    d="M440.28 192.805L439.002 203.514"
    stroke="#192241"
    stroke-width="5.02491"
    stroke-linecap="round"
  />
  <path
    fill-rule="evenodd"
    clip-rule="evenodd"
    d="M441.309 191.118C431.526 190.575 424.136 180.41 424.803 168.414C425.469 156.418 433.939 147.135 443.722 147.678C453.504 148.222 460.894 158.387 460.228 170.383C459.562 182.378 451.091 191.662 441.309 191.118Z"
    stroke="#192241"
    stroke-width="8.03986"
    stroke-linecap="round"
  />
  <path
    fill-rule="evenodd"
    clip-rule="evenodd"
    d="M297.996 672.634H222.669L225.364 628.258L247.062 635.563L244.666 651.297C244.666 651.297 280.336 659.799 297.996 672.634Z"
    fill="#0D0B6D"
  />
  <path
    fill-rule="evenodd"
    clip-rule="evenodd"
    d="M224.875 631.684L223.999 650.728L244.667 651.29L246.698 638.222L224.875 631.684Z"
    fill="#9BA5FF"
  />
  <path
    fill-rule="evenodd"
    clip-rule="evenodd"
    d="M349.192 672.634H278.167L280.862 628.258L302.568 635.563L300.165 651.297C300.165 651.297 331.533 659.799 349.192 672.634Z"
    fill="#0D0B6D"
  />
  <path
    fill-rule="evenodd"
    clip-rule="evenodd"
    d="M280.372 631.684L279.496 650.728L300.165 651.29L302.202 638.222L280.372 631.684Z"
    fill="#9BA5FF"
  />
  <path
    fill-rule="evenodd"
    clip-rule="evenodd"
    d="M218.784 640.321L253.629 637.647L273.129 475.563L289.824 294.808L249.057 291.521C249.057 291.521 232.537 307.592 229.389 349.908C226.767 385.16 225.642 471.421 225.642 471.421L218.784 640.321Z"
    fill="#2B2A38"
  />
  <path
    fill-rule="evenodd"
    clip-rule="evenodd"
    d="M335.426 247.488C335.426 247.488 370.439 285.253 386.937 280.359C408.526 273.982 437.688 226.129 437.688 226.129L423.607 219.248L383.979 253.42L347.462 220.015L335.426 247.488Z"
    fill="#C3D3FF"
  />
  <path
    fill-rule="evenodd"
    clip-rule="evenodd"
    d="M273.502 638.276L308.142 641.118L328.854 465.688C328.854 465.688 332.579 406.315 327.284 343.751C324.363 309.586 318.148 297.19 318.148 297.19L270.815 293.019L278.476 466.871L273.502 638.276Z"
    fill="#2B2A38"
  />
  <path
    fill-rule="evenodd"
    clip-rule="evenodd"
    d="M375.047 235.777L357.519 274.411L336.339 254.397C336.339 254.397 335.448 259.999 330.372 269.079C325.477 278.073 321.378 287.478 318.125 297.187L249.049 291.497C249.049 291.497 254.293 270.313 255.191 254.974C256.207 237.72 253.68 193.139 273.275 186.448C290.218 180.663 294.841 186.594 318.424 191.196C340.633 195.543 375.047 235.777 375.047 235.777Z"
    fill="#12E8B4"
  />
  <path
    fill-rule="evenodd"
    clip-rule="evenodd"
    d="M313.441 633.948L268.446 632.762L268.108 645.599L313.103 646.786L313.441 633.948Z"
    fill="#2B2A38"
  />
  <path
    fill-rule="evenodd"
    clip-rule="evenodd"
    d="M258.277 632.606L213.282 631.42L212.944 644.257L257.938 645.443L258.277 632.606Z"
    fill="#2B2A38"
  />
  <path
    fill-rule="evenodd"
    clip-rule="evenodd"
    d="M264.824 139.003C264.605 161.502 284.178 179.909 308.542 180.107C331.183 180.297 350.033 164.672 352.728 144.387C352.933 142.846 353.043 141.295 353.056 139.741C353.173 127.885 347.798 117.169 339.114 109.66C330.809 102.567 320.252 98.6599 309.331 98.6373C284.974 98.4401 265.036 116.512 264.824 139.003Z"
    fill="#240040"
  />
  <path
    fill-rule="evenodd"
    clip-rule="evenodd"
    d="M319.284 190.6C319.284 190.6 339.967 188.701 344.335 182.872C356.619 166.451 340.486 122.418 340.486 122.418L292.802 151.06C292.802 151.06 285.148 190.702 285.28 190.739L315.852 199.366L319.284 190.6Z"
    fill="#C3D3FF"
  />
  <path
    fill-rule="evenodd"
    clip-rule="evenodd"
    d="M289.575 154.986C297.915 165.374 312.865 168.697 325.843 163.971C326.881 163.604 327.898 163.18 328.889 162.7C330.526 161.935 332.096 161.036 333.585 160.012C347.819 150.26 351.208 132.203 341.136 119.668C340.178 118.478 339.122 117.369 337.981 116.352C327.326 106.819 309.988 105.819 297.082 114.635C282.98 124.292 279.554 142.101 289.253 154.621C289.377 154.745 289.48 154.862 289.575 154.986Z"
    fill="#240040"
  />
  <path
    fill-rule="evenodd"
    clip-rule="evenodd"
    d="M279.461 228.97L325.516 232.096L331.899 139.852L265.022 135.302L260.18 205.324C259.325 217.625 267.965 228.188 279.461 228.97Z"
    fill="#240040"
  />
  <path
    fill-rule="evenodd"
    clip-rule="evenodd"
    d="M267.876 347.252L272.697 479.153L275.917 437.129L267.876 347.252Z"
    fill="#101016"
  />
  <path
    fill-rule="evenodd"
    clip-rule="evenodd"
    d="M332.768 164.346C332.768 164.346 336.558 156.267 330.197 154.405C325.457 153.017 322.733 156.801 321.908 159.211C319.118 167.334 328.269 171.373 329.584 178.24"
    fill="#C3D3FF"
  />
  <path
    fill-rule="evenodd"
    clip-rule="evenodd"
    d="M420.94 221.839L423.066 217.624C423.066 217.624 426.717 210.129 428.908 207.273C432.45 202.627 436.942 205.988 436.942 205.988C436.942 205.988 445.509 201.32 447.641 202.291C453.528 204.98 452.498 226.704 446.911 228.756C442.587 230.341 439.907 232.358 434.327 233.789C431.961 234.396 428.901 233.241 427.126 233.351"
    fill="#C3D3FF"
  />
  <path
    fill-rule="evenodd"
    clip-rule="evenodd"
    d="M359.768 269.468L372.001 242.477L365.311 273.384L359.768 269.468Z"
    fill="#9BA5FF"
  />
</svg>
