<svg
  width="1296"
  height="767"
  viewBox="0 0 1296 767"
  fill="none"
  xmlns="http://www.w3.org/2000/svg"
>
  <mask
    id="mask0"
    mask-type="alpha"
    maskUnits="userSpaceOnUse"
    x="919"
    y="544"
    width="377"
    height="119"
  >
    <path
      fill-rule="evenodd"
      clip-rule="evenodd"
      d="M919.348 544.976H1295.38V662.071H919.348V544.976Z"
      fill="white"
    />
  </mask>
  <g mask="url(#mask0)">
    <path
      fill-rule="evenodd"
      clip-rule="evenodd"
      d="M1295.38 585.733V621.314C1295.38 643.819 1284.61 662.071 1271.33 662.071H943.392C930.115 662.071 919.348 643.819 919.348 621.314V585.733C919.348 563.219 930.115 544.976 943.392 544.976H1271.33C1284.61 544.976 1295.38 563.219 1295.38 585.733Z"
      fill="#EBF5FF"
    />
  </g>
  <path
    fill-rule="evenodd"
    clip-rule="evenodd"
    d="M944.794 589.68C945.026 589.944 945.156 590.092 945.388 590.356V615.957C945.388 638.511 936.579 653.586 919.193 656.8C916.29 657.336 906.327 657.638 897.994 657.801C895.845 657.842 895.716 654.494 897.78 653.807C914.58 648.217 919.193 630.838 919.193 615.957V590.356C919.425 590.092 919.555 589.944 919.787 589.68H944.794Z"
    fill="#EBF5FF"
  />
  <path
    fill-rule="evenodd"
    clip-rule="evenodd"
    d="M945.389 576.908C945.389 580.435 948.248 583.294 951.775 583.294H1265.51C1269.04 583.294 1271.9 580.435 1271.9 576.908C1271.9 573.381 1269.04 570.522 1265.51 570.522H951.775C948.248 570.522 945.389 573.381 945.389 576.908Z"
    fill="#CAE1FF"
  />
  <path
    fill-rule="evenodd"
    clip-rule="evenodd"
    d="M945.389 603.516C945.389 606.455 947.771 608.838 950.711 608.838H1266.58C1269.52 608.838 1271.9 606.455 1271.9 603.516C1271.9 600.576 1269.52 598.194 1266.58 598.194H950.711C947.771 598.194 945.389 600.576 945.389 603.516Z"
    fill="#CAE1FF"
  />
  <path
    fill-rule="evenodd"
    clip-rule="evenodd"
    d="M945.389 630.126C945.389 633.653 948.248 636.512 951.775 636.512H1184.42C1187.95 636.512 1190.81 633.653 1190.81 630.126C1190.81 626.599 1187.95 623.74 1184.42 623.74H951.775C948.248 623.74 945.389 626.599 945.389 630.126Z"
    fill="#CAE1FF"
  />
  <path
    fill-rule="evenodd"
    clip-rule="evenodd"
    d="M130.564 397.502C130.564 400.8 133.238 403.473 136.536 403.473H349.375C352.673 403.473 355.346 400.8 355.346 397.502C355.346 394.204 352.673 391.53 349.375 391.53H136.536C133.238 391.53 130.564 394.204 130.564 397.502Z"
    fill="#CAE1FF"
  />
  <path
    fill-rule="evenodd"
    clip-rule="evenodd"
    d="M509.452 635.977H40.8496C18.2887 635.977 0 617.73 0 595.222V559.639C0 537.131 18.2887 518.884 40.8496 518.884H509.452C532.013 518.884 550.302 537.131 550.302 559.639V595.222C550.302 617.73 532.013 635.977 509.452 635.977Z"
    fill="#EBF5FF"
  />
  <path
    fill-rule="evenodd"
    clip-rule="evenodd"
    d="M128.757 550.619C128.757 553.917 131.43 556.59 134.728 556.59H501.334C504.632 556.59 507.306 553.917 507.306 550.619C507.306 547.321 504.632 544.647 501.334 544.647H134.728C131.43 544.647 128.757 547.321 128.757 550.619Z"
    fill="#CAE1FF"
  />
  <path
    fill-rule="evenodd"
    clip-rule="evenodd"
    d="M128.757 577.434C128.757 580.732 131.43 583.405 134.728 583.405H501.334C504.632 583.405 507.306 580.732 507.306 577.434C507.306 574.136 504.632 571.462 501.334 571.462H134.728C131.43 571.462 128.757 574.136 128.757 577.434Z"
    fill="#CAE1FF"
  />
  <path
    fill-rule="evenodd"
    clip-rule="evenodd"
    d="M128.757 604.248C128.757 607.546 131.43 610.219 134.728 610.219H409.186C412.484 610.219 415.157 607.546 415.157 604.248C415.157 600.95 412.484 598.277 409.186 598.277H134.728C131.43 598.277 128.757 600.95 128.757 604.248Z"
    fill="#CAE1FF"
  />
  <path
    fill-rule="evenodd"
    clip-rule="evenodd"
    d="M99.6087 577.433C99.6087 595.539 84.8956 610.218 66.7458 610.218C48.5959 610.218 33.8828 595.539 33.8828 577.433C33.8828 559.326 48.5959 544.647 66.7458 544.647C84.8956 544.647 99.6087 559.326 99.6087 577.433Z"
    fill="#B3D1FF"
  />
  <path
    fill-rule="evenodd"
    clip-rule="evenodd"
    d="M783.039 422.972C783.039 441.079 768.326 455.758 750.176 455.758C732.027 455.758 717.313 441.079 717.313 422.972C717.313 404.865 732.027 390.186 750.176 390.186C768.326 390.186 783.039 404.865 783.039 422.972Z"
    fill="#B3D1FF"
  />
  <path
    fill-rule="evenodd"
    clip-rule="evenodd"
    d="M273.076 196.855C244.117 196.855 220.543 173.336 220.543 144.445C220.543 115.553 244.117 92.034 273.076 92.034C302.035 92.034 325.61 115.553 325.61 144.445C325.61 173.336 302.035 196.855 273.076 196.855ZM273.077 78.9261C236.829 78.9261 207.41 108.276 207.41 144.439C207.41 180.602 236.829 209.951 273.077 209.951C309.325 209.951 338.744 180.602 338.744 144.439C338.744 108.276 309.325 78.9261 273.077 78.9261ZM259.944 173.925L299.344 144.443L259.944 114.962V173.925Z"
    fill="#AAD5FF"
  />
  <path
    fill-rule="evenodd"
    clip-rule="evenodd"
    d="M152.443 287.98C152.443 296.516 145.507 303.436 136.95 303.436C128.394 303.436 121.458 296.516 121.458 287.98C121.458 279.443 128.394 272.523 136.95 272.523C145.507 272.523 152.443 279.443 152.443 287.98Z"
    fill="#B3D1FF"
  />
  <path
    fill-rule="evenodd"
    clip-rule="evenodd"
    d="M613.851 250.276H42.9856C20.4254 250.276 2.13672 232.03 2.13672 209.523V168.483C2.13672 145.975 20.4254 127.729 42.9856 127.729H613.851C636.411 127.729 654.7 145.975 654.7 168.483V209.523C654.7 232.03 636.411 250.276 613.851 250.276Z"
    fill="#EBF5FF"
  />
  <path
    fill-rule="evenodd"
    clip-rule="evenodd"
    d="M654.703 168.482V175.835H2.13477V168.482C2.13477 145.977 20.4296 127.733 42.9882 127.733H613.849C636.409 127.733 654.703 145.977 654.703 168.482Z"
    fill="#CAE1FF"
  />
  <path
    fill-rule="evenodd"
    clip-rule="evenodd"
    d="M53.1041 153.295C53.1041 159.711 47.8905 164.912 41.4594 164.912C35.0282 164.912 29.8154 159.711 29.8154 153.295C29.8154 146.879 35.0282 141.677 41.4594 141.677C47.8905 141.677 53.1041 146.879 53.1041 153.295Z"
    fill="#EBF5FF"
  />
  <path
    fill-rule="evenodd"
    clip-rule="evenodd"
    d="M84.2877 153.295C84.2877 159.711 79.0741 164.912 72.643 164.912C66.2118 164.912 60.999 159.711 60.999 153.295C60.999 146.879 66.2118 141.677 72.643 141.677C79.0741 141.677 84.2877 146.879 84.2877 153.295Z"
    fill="#EBF5FF"
  />
  <path
    fill-rule="evenodd"
    clip-rule="evenodd"
    d="M115.474 153.295C115.474 159.711 110.261 164.912 103.83 164.912C97.3991 164.912 92.1855 159.711 92.1855 153.295C92.1855 146.879 97.3991 141.677 103.83 141.677C110.261 141.677 115.474 146.879 115.474 153.295Z"
    fill="#EBF5FF"
  />
  <path
    fill-rule="evenodd"
    clip-rule="evenodd"
    d="M634.165 407.791V440.838C634.165 463.351 615.871 481.595 593.312 481.595H507.296C484.737 481.595 466.451 463.351 466.451 440.838V407.791C466.451 399.89 468.709 392.508 472.607 386.259C474.08 383.907 475.781 381.715 477.689 379.714C478.322 379.052 478.978 378.405 479.657 377.788C486.927 371.113 496.638 367.041 507.296 367.041H593.312C603.969 367.041 613.68 371.113 620.951 377.788C621.63 378.405 622.286 379.052 622.92 379.714C624.827 381.715 626.527 383.907 628 386.267C631.906 392.515 634.165 399.89 634.165 407.791Z"
    fill="#EBF5FF"
  />
  <path
    fill-rule="evenodd"
    clip-rule="evenodd"
    d="M627.998 386.264L550.313 433.978L472.605 386.257C474.078 383.905 475.779 381.713 477.686 379.711C478.32 379.049 478.976 378.402 479.655 377.786L550.313 421.176L620.949 377.786C621.627 378.402 622.284 379.049 622.917 379.711C624.825 381.713 626.525 383.905 627.998 386.264Z"
    fill="#D6EDFF"
  />
  <path
    fill-rule="evenodd"
    clip-rule="evenodd"
    d="M1222.79 40.7568V110.496C1222.79 133.002 1204.5 151.246 1181.95 151.246H865.027C842.469 151.246 824.174 133.002 824.174 110.496V40.7568C824.174 18.2511 842.469 0 865.027 0H1181.95C1204.5 0 1222.79 18.2511 1222.79 40.7568Z"
    fill="#EBF5FF"
  />
  <path
    fill-rule="evenodd"
    clip-rule="evenodd"
    d="M983.363 32.0667C983.363 35.3647 986.037 38.0383 989.335 38.0383H1179.48C1182.78 38.0383 1185.45 35.3647 1185.45 32.0667C1185.45 28.7687 1182.78 26.0951 1179.48 26.0951H989.335C986.037 26.0951 983.363 28.7687 983.363 32.0667Z"
    fill="#CAE1FF"
  />
  <path
    fill-rule="evenodd"
    clip-rule="evenodd"
    d="M983.363 58.5695C983.363 61.8676 986.037 64.5411 989.335 64.5411H1179.48C1182.78 64.5411 1185.45 61.8676 1185.45 58.5695C1185.45 55.2715 1182.78 52.598 1179.48 52.598H989.335C986.037 52.598 983.363 55.2715 983.363 58.5695Z"
    fill="#CAE1FF"
  />
  <path
    fill-rule="evenodd"
    clip-rule="evenodd"
    d="M983.363 85.0683C983.363 88.3663 986.037 91.0398 989.335 91.0398H1179.48C1182.78 91.0398 1185.45 88.3663 1185.45 85.0683C1185.45 81.7702 1182.78 79.0967 1179.48 79.0967H989.335C986.037 79.0967 983.363 81.7702 983.363 85.0683Z"
    fill="#CAE1FF"
  />
  <path
    fill-rule="evenodd"
    clip-rule="evenodd"
    d="M983.363 111.575C983.363 114.873 986.037 117.547 989.335 117.547H1130.29C1133.58 117.547 1136.26 114.873 1136.26 111.575C1136.26 108.277 1133.58 105.604 1130.29 105.604H989.335C986.037 105.604 983.363 108.277 983.363 111.575Z"
    fill="#CAE1FF"
  />
  <path
    fill-rule="evenodd"
    clip-rule="evenodd"
    d="M957.054 0V151.246H865.027C842.469 151.246 824.174 133.002 824.174 110.496V40.7568C824.174 18.2511 842.469 0 865.027 0H957.054Z"
    fill="#DBECFF"
  />
  <path
    d="M450.376 224.4C485.498 204.364 527.114 211.811 547.386 246.938C569.484 277.963 522.806 359.236 576.196 398.087C611.408 423.71 667.3 358.29 708.508 352.318C742.955 347.325 788.535 352.318 820.546 427.89"
    stroke="#D6E1FF"
    stroke-width="8.5222"
    stroke-linecap="round"
    stroke-linejoin="round"
    stroke-dasharray="21.31 21.31"
  />
  <path
    fill-rule="evenodd"
    clip-rule="evenodd"
    d="M470.898 415.117H120.237C113.967 415.117 108.837 411.553 108.837 407.197C108.837 374.502 108.837 139.769 108.837 85.0995C108.837 79.2161 113.606 74.5082 119.49 74.5082H470.898C477.168 74.5082 482.297 78.0723 482.297 82.4285V407.197C482.297 411.553 477.168 415.117 470.898 415.117Z"
    fill="#2823FB"
  />
  <path
    fill-rule="evenodd"
    clip-rule="evenodd"
    d="M211.272 163.921C211.272 166.273 213.179 168.179 215.53 168.179H439.627C441.979 168.179 443.885 166.273 443.885 163.921C443.885 161.57 441.979 159.664 439.627 159.664H215.53C213.179 159.664 211.272 161.57 211.272 163.921Z"
    fill="white"
  />
  <path
    fill-rule="evenodd"
    clip-rule="evenodd"
    d="M211.272 189.467C211.272 191.819 213.179 193.725 215.53 193.725H360.667C363.019 193.725 364.925 191.819 364.925 189.467C364.925 187.116 363.019 185.209 360.667 185.209H215.53C213.179 185.209 211.272 187.116 211.272 189.467Z"
    fill="white"
  />
  <path
    fill-rule="evenodd"
    clip-rule="evenodd"
    d="M211.272 249.073C211.272 251.424 213.179 253.33 215.53 253.33H439.627C441.979 253.33 443.885 251.424 443.885 249.073C443.885 246.721 441.979 244.815 439.627 244.815H215.53C213.179 244.815 211.272 246.721 211.272 249.073Z"
    fill="white"
  />
  <path
    fill-rule="evenodd"
    clip-rule="evenodd"
    d="M211.272 274.618C211.272 276.97 213.179 278.876 215.53 278.876H360.667C363.019 278.876 364.925 276.97 364.925 274.618C364.925 272.267 363.019 270.361 360.667 270.361H215.53C213.179 270.361 211.272 272.267 211.272 274.618Z"
    fill="white"
  />
  <path
    fill-rule="evenodd"
    clip-rule="evenodd"
    d="M211.272 334.224C211.272 336.575 213.179 338.481 215.53 338.481H439.627C441.979 338.481 443.885 336.575 443.885 334.224C443.885 331.872 441.979 329.966 439.627 329.966H215.53C213.179 329.966 211.272 331.872 211.272 334.224Z"
    fill="white"
  />
  <path
    fill-rule="evenodd"
    clip-rule="evenodd"
    d="M211.272 359.77C211.272 362.121 213.179 364.027 215.53 364.027H360.667C363.019 364.027 364.925 362.121 364.925 359.77C364.925 357.418 363.019 355.512 360.667 355.512H215.53C213.179 355.512 211.272 357.418 211.272 359.77Z"
    fill="white"
  />
  <path
    d="M108.837 82.676C108.837 76.9899 113.446 72.3805 119.132 72.3805H472.002C477.688 72.3805 482.297 76.9899 482.297 82.676V108.57H108.837V82.676Z"
    fill="#E1E9FF"
  />
  <ellipse cx="150.451" cy="92.6021" rx="7.46921" ry="7.45082" fill="white" />
  <ellipse cx="176.059" cy="92.6021" rx="7.46921" ry="7.45082" fill="white" />
  <ellipse cx="201.667" cy="92.6021" rx="7.46921" ry="7.45082" fill="white" />
  <path
    d="M173.931 263.97C173.931 271.604 167.725 277.805 160.054 277.805C152.383 277.805 146.177 271.604 146.177 263.97C146.177 256.337 152.383 250.136 160.054 250.136C167.725 250.136 173.931 256.337 173.931 263.97Z"
    fill="#12E8A8"
    stroke="#12E8A8"
    stroke-width="6.39165"
  />
  <path
    d="M151.519 266.253L156.125 269.763C156.566 270.1 157.192 270.041 157.563 269.627L166.457 259.715"
    stroke="white"
    stroke-width="4.2611"
    stroke-linecap="round"
  />
  <path
    d="M173.931 346.995C173.931 354.629 167.725 360.83 160.054 360.83C152.383 360.83 146.177 354.629 146.177 346.995C146.177 339.362 152.383 333.161 160.054 333.161C167.725 333.161 173.931 339.362 173.931 346.995Z"
    fill="#12E8A8"
    stroke="#12E8A8"
    stroke-width="6.39165"
  />
  <path
    d="M151.519 349.278L156.125 352.788C156.566 353.125 157.192 353.065 157.563 352.652L166.457 342.74"
    stroke="white"
    stroke-width="4.2611"
    stroke-linecap="round"
  />
  <path
    d="M173.931 176.693C173.931 184.326 167.725 190.527 160.054 190.527C152.383 190.527 146.177 184.326 146.177 176.693C146.177 169.06 152.383 162.858 160.054 162.858C167.725 162.858 173.931 169.06 173.931 176.693Z"
    fill="#12E8A8"
    stroke="#12E8A8"
    stroke-width="6.39165"
  />
  <path
    d="M151.519 178.971L156.125 182.481C156.566 182.818 157.192 182.759 157.563 182.345L166.457 172.433"
    stroke="white"
    stroke-width="4.2611"
    stroke-linecap="round"
  />
  <path
    fill-rule="evenodd"
    clip-rule="evenodd"
    d="M1190.07 581.166H839.414C833.144 581.166 828.014 577.602 828.014 573.245C828.014 540.55 828.014 305.818 828.014 251.148C828.014 245.265 832.783 240.557 838.667 240.557H1190.07C1196.34 240.557 1201.47 244.121 1201.47 248.477V573.245C1201.47 577.602 1196.34 581.166 1190.07 581.166Z"
    fill="#2823FB"
  />
  <path
    fill-rule="evenodd"
    clip-rule="evenodd"
    d="M930.448 329.966C930.448 332.317 932.354 334.223 934.706 334.223H1158.8C1161.15 334.223 1163.06 332.317 1163.06 329.966C1163.06 327.614 1161.15 325.708 1158.8 325.708H934.706C932.354 325.708 930.448 327.614 930.448 329.966Z"
    fill="white"
  />
  <path
    fill-rule="evenodd"
    clip-rule="evenodd"
    d="M930.448 355.511C930.448 357.863 932.354 359.769 934.706 359.769H1079.84C1082.19 359.769 1084.1 357.863 1084.1 355.511C1084.1 353.16 1082.19 351.254 1079.84 351.254H934.706C932.354 351.254 930.448 353.16 930.448 355.511Z"
    fill="white"
  />
  <path
    fill-rule="evenodd"
    clip-rule="evenodd"
    d="M930.448 415.117C930.448 417.468 932.354 419.374 934.706 419.374H1158.8C1161.15 419.374 1163.06 417.468 1163.06 415.117C1163.06 412.765 1161.15 410.859 1158.8 410.859H934.706C932.354 410.859 930.448 412.765 930.448 415.117Z"
    fill="white"
  />
  <path
    fill-rule="evenodd"
    clip-rule="evenodd"
    d="M930.448 440.663C930.448 443.014 932.354 444.92 934.706 444.92H1079.84C1082.19 444.92 1084.1 443.014 1084.1 440.663C1084.1 438.311 1082.19 436.405 1079.84 436.405H934.706C932.354 436.405 930.448 438.311 930.448 440.663Z"
    fill="white"
  />
  <path
    fill-rule="evenodd"
    clip-rule="evenodd"
    d="M930.448 500.268C930.448 502.62 932.354 504.526 934.706 504.526H1158.8C1161.15 504.526 1163.06 502.62 1163.06 500.268C1163.06 497.917 1161.15 496.01 1158.8 496.01H934.706C932.354 496.01 930.448 497.917 930.448 500.268Z"
    fill="white"
  />
  <path
    fill-rule="evenodd"
    clip-rule="evenodd"
    d="M930.448 525.814C930.448 528.165 932.354 530.071 934.706 530.071H1079.84C1082.19 530.071 1084.1 528.165 1084.1 525.814C1084.1 523.462 1082.19 521.556 1079.84 521.556H934.706C932.354 521.556 930.448 523.462 930.448 525.814Z"
    fill="white"
  />
  <path
    d="M828.014 248.722C828.014 243.036 832.623 238.426 838.309 238.426H1191.18C1196.86 238.426 1201.47 243.036 1201.47 248.722V274.616H828.014V248.722Z"
    fill="#E1E9FF"
  />
  <ellipse cx="869.627" cy="258.652" rx="7.46921" ry="7.45082" fill="white" />
  <ellipse cx="895.238" cy="258.652" rx="7.46921" ry="7.45082" fill="white" />
  <ellipse cx="920.846" cy="258.652" rx="7.46921" ry="7.45082" fill="white" />
  <path
    d="M899.512 427.89C899.512 435.523 893.306 441.724 885.635 441.724C877.964 441.724 871.758 435.523 871.758 427.89C871.758 420.256 877.964 414.055 885.635 414.055C893.306 414.055 899.512 420.256 899.512 427.89Z"
    fill="#2823FB"
    stroke="white"
    stroke-width="6.39165"
  />
  <path
    d="M899.512 513.041C899.512 520.674 893.306 526.876 885.635 526.876C877.964 526.876 871.758 520.674 871.758 513.041C871.758 505.408 877.964 499.206 885.635 499.206C893.306 499.206 899.512 505.408 899.512 513.041Z"
    fill="#2823FB"
    stroke="white"
    stroke-width="6.39165"
  />
  <path
    d="M899.512 342.738C899.512 350.372 893.306 356.573 885.635 356.573C877.964 356.573 871.758 350.372 871.758 342.738C871.758 335.105 877.964 328.904 885.635 328.904C893.306 328.904 899.512 335.105 899.512 342.738Z"
    fill="#12E8A8"
    stroke="#12E8A8"
    stroke-width="6.39165"
  />
  <path
    d="M877.098 345.017L881.704 348.527C882.145 348.863 882.772 348.804 883.142 348.391L892.036 338.479"
    stroke="white"
    stroke-width="4.2611"
    stroke-linecap="round"
  />
  <path
    fill-rule="evenodd"
    clip-rule="evenodd"
    d="M705.253 352.464C703.675 359.143 698.866 402.055 706.731 427.374C714.251 451.584 733.879 503.408 733.879 503.408L753.449 508.885L729.954 420.391L719.044 333.09L705.253 352.464Z"
    fill="#C3D3FF"
  />
  <path
    fill-rule="evenodd"
    clip-rule="evenodd"
    d="M700.379 360.527L709.576 331.031L737.448 327.385L729.316 373.499L700.379 360.527Z"
    fill="#0E9E7B"
  />
  <path
    fill-rule="evenodd"
    clip-rule="evenodd"
    d="M846.074 719.153L852.197 737.41L909.61 717.639L851.014 766.92H831.61L817.825 715.724L846.074 719.153Z"
    fill="#0F0F3E"
  />
  <path
    fill-rule="evenodd"
    clip-rule="evenodd"
    d="M819.398 720.437L825.858 745.209L852.109 737.36L845.985 719.102L819.398 720.437Z"
    fill="#9BA5FF"
  />
  <path
    fill-rule="evenodd"
    clip-rule="evenodd"
    d="M689.796 717L679.713 731.639L687.716 747.994L722.834 766.925L678.916 767L644.485 735.702L671.394 694.315L689.796 717Z"
    fill="#0F0F3E"
  />
  <path
    fill-rule="evenodd"
    clip-rule="evenodd"
    d="M670.113 694.901L656.72 716.681L679.715 731.635L689.798 716.996L670.113 694.901Z"
    fill="#9BA5FF"
  />
  <path
    fill-rule="evenodd"
    clip-rule="evenodd"
    d="M856.034 725.01L811.633 737.756L768.159 550.496L751.073 478.525L721.841 424.296H791.46L796.564 424.65L856.034 725.01Z"
    fill="#2B2B3B"
  />
  <path
    fill-rule="evenodd"
    clip-rule="evenodd"
    d="M781.359 498.648L768.221 550.733L760.101 582.906L691.146 728.657L653.242 702.837L711.628 571.032L715.399 482.834C715.399 482.834 712.108 458.614 718.243 424.533H723.137L781.359 498.648Z"
    fill="#2B2B3B"
  />
  <path
    fill-rule="evenodd"
    clip-rule="evenodd"
    d="M767.755 549.154L747.001 488.304L761.852 572.54L767.755 549.154Z"
    fill="#121216"
  />
  <path
    fill-rule="evenodd"
    clip-rule="evenodd"
    d="M852.223 359.145L850.619 350.796C850.619 350.796 848.864 348.088 849.582 344.335C850.3 340.581 852.898 335.158 852.078 328.625C851.506 324.073 855.789 326.013 857.214 328.634C858.639 331.255 856.708 338.151 859.997 337.711C863.286 337.27 870.179 332.48 871.939 323.773C872.175 322.604 877.144 321.274 880.278 332.306C881.823 337.744 880.694 346.979 877.952 349.737C877.952 349.737 868.283 356.812 864.017 357.864C859.501 358.978 859.468 357.392 852.223 359.145Z"
    fill="#C3D3FF"
  />
  <path
    fill-rule="evenodd"
    clip-rule="evenodd"
    d="M717.204 438.129C717.204 438.129 713.853 416.904 710.957 393.296C707.819 367.728 704.091 354.122 707.399 335.983C714.612 296.438 780.314 289.867 813.605 352.001L791.737 376.453L799.139 437.66"
    fill="#12E8A8"
  />
  <path
    fill-rule="evenodd"
    clip-rule="evenodd"
    d="M763.089 307.872C763.089 307.872 750.959 315.989 733.681 316.873C721.857 317.478 726.211 310.535 726.211 310.535C726.211 310.535 732.933 306.938 744.647 306.143C754.501 305.475 763.089 307.872 763.089 307.872Z"
    fill="#C3D3FF"
  />
  <path
    fill-rule="evenodd"
    clip-rule="evenodd"
    d="M786.163 234.406C786.163 234.406 807.36 256.936 781.812 265.509L786.163 234.406Z"
    fill="#040272"
  />
  <path
    fill-rule="evenodd"
    clip-rule="evenodd"
    d="M726.176 270.628C723.822 265.366 727.648 294.688 727.648 294.688L727.436 310.719L756.134 308.646L754.831 299.099C754.831 299.099 782.486 298.871 787.985 295.522C787.985 295.522 790.212 269.309 784.554 251.326L760.365 233.557L724.156 239.172L726.176 270.628Z"
    fill="#C3D3FF"
  />
  <path
    d="M752.021 286.44C752.021 286.44 739.893 284.898 734.449 275.757"
    stroke="#9BA5FF"
    stroke-width="1.96748"
  />
  <path
    fill-rule="evenodd"
    clip-rule="evenodd"
    d="M725.777 285.833C717.243 287.132 700.03 260.24 710.893 241.685C725.556 216.636 746.63 224.798 746.63 224.798C746.63 224.798 750.079 203.431 764.417 202.298C784.842 200.685 790.503 230.836 790.503 230.836C790.503 230.836 794.087 214.446 800.283 215.75C809.268 217.642 812.581 266.364 765.068 251.265C765.068 251.265 768.076 266.239 757.118 267.416C752.395 267.922 749.808 261.744 749.808 261.744C749.808 261.744 744.849 280.825 737.907 286.188C737.907 286.188 729.722 285.232 725.777 285.833Z"
    fill="#040272"
  />
  <path
    fill-rule="evenodd"
    clip-rule="evenodd"
    d="M734.32 274.464C738.886 284.531 754.426 286.008 754.426 286.008L753.521 280.783L750.223 261.706C748.128 256.511 734.633 253.111 733.184 266.523C732.846 269.634 733.321 272.254 734.32 274.464Z"
    fill="#C8D5F5"
  />
  <path
    d="M748.332 277.444C748.332 277.444 744.835 277.323 745.049 273.74C745.257 270.272 748.049 269.897 748.049 269.897C748.049 269.897 746.435 261.155 739.821 263.102"
    stroke="#9BA5FF"
    stroke-width="1.96748"
  />
  <path
    d="M789.631 378.077L783.933 383.81L764.741 365.181"
    stroke="#0E9E7B"
    stroke-width="3.93496"
  />
  <path
    fill-rule="evenodd"
    clip-rule="evenodd"
    d="M754.829 299.101L740.83 298.315L755.902 306.961L754.829 299.101Z"
    fill="#9BA5FF"
  />
  <path
    fill-rule="evenodd"
    clip-rule="evenodd"
    d="M868.258 350.951L853.763 341.08L821.81 367.961L810.885 354.996L790.834 377.393C790.834 377.393 806.098 396.476 821.557 395.223C832.472 394.339 868.258 350.951 868.258 350.951Z"
    fill="#C3D3FF"
  />
  <path
    fill-rule="evenodd"
    clip-rule="evenodd"
    d="M821.81 367.955L827.014 373.553L826.481 364.025L821.81 367.955Z"
    fill="#9BA5FF"
  />
</svg>
